<?xml version="1.0" standalone="no"?>
<!DOCTYPE svg PUBLIC "-//W3C//DTD SVG 20010904//EN"
 "http://www.w3.org/TR/2001/REC-SVG-20010904/DTD/svg10.dtd">
<svg version="1.0" xmlns="http://www.w3.org/2000/svg"
 width="259.000000pt" height="194.000000pt" viewBox="0 0 259.000000 194.000000"
 preserveAspectRatio="xMidYMid meet">

<g transform="translate(0.000000,194.000000) scale(0.100000,-0.100000)"
fill="#000000" stroke="none">
<path d="M0 970 l0 -970 1295 0 1295 0 0 970 0 970 -1295 0 -1295 0 0 -970z
m1462 671 c167 -58 292 -190 342 -360 20 -69 21 -199 1 -276 -51 -193 -225
-351 -427 -385 -210 -36 -446 79 -545 266 -46 87 -63 156 -63 254 0 50 7 109
16 141 58 197 220 343 424 383 51 10 196 -3 252 -23z m-554 -1238 c-3 -15 -16
-19 -71 -21 -62 -3 -67 -1 -67 18 0 18 6 20 71 20 62 0 70 -2 67 -17z m150 0
c-2 -14 -15 -19 -56 -21 l-53 -3 3 -37 3 -37 58 -3 57 -3 0 61 c0 47 3 60 15
60 10 0 15 -10 15 -30 0 -28 2 -30 39 -30 36 0 40 3 43 27 2 17 10 29 20 31
14 3 18 -7 20 -65 l3 -68 24 68 c20 58 26 68 44 65 16 -2 28 -20 49 -73 16
-41 27 -60 28 -47 0 46 17 62 65 62 63 0 56 18 -7 22 -41 2 -54 7 -56 21 -3
15 5 17 54 17 85 0 118 -36 74 -80 -16 -16 -18 -25 -10 -40 13 -25 13 -30 -5
-30 -8 0 -22 14 -30 31 -20 37 -49 36 -53 -4 -3 -23 -8 -27 -37 -27 -27 0 -35
5 -43 28 -6 15 -11 21 -11 15 -1 -7 -12 -13 -26 -13 -16 0 -25 -6 -25 -16 0
-12 -9 -14 -37 -12 -33 3 -38 7 -41 31 -3 24 -7 27 -43 27 -37 0 -39 -2 -39
-30 0 -20 -5 -30 -15 -30 -8 0 -15 6 -16 13 0 10 -2 10 -6 0 -3 -8 -25 -13
-58 -13 -61 0 -85 16 -86 58 0 15 -3 21 -6 15 -3 -8 -25 -13 -60 -13 -75 0
-67 -24 10 -28 44 -2 55 -6 50 -17 -3 -11 -21 -15 -58 -15 -62 0 -85 17 -85
61 l0 29 75 0 c51 0 75 4 75 12 0 30 33 48 87 48 46 0 54 -3 51 -17z m600 0
c-2 -10 -13 -19 -26 -21 -20 -3 -22 -9 -22 -58 0 -41 -4 -54 -15 -54 -11 0
-15 13 -15 54 0 52 -1 55 -27 58 -17 2 -29 10 -31 21 -3 15 5 17 68 17 63 0
71 -2 68 -17z m152 -3 c-9 -16 -21 -20 -61 -20 -31 0 -48 -4 -44 -10 3 -5 26
-10 51 -10 38 0 46 -4 56 -25 9 -21 8 -28 -7 -45 -23 -26 -135 -30 -135 -5 0
12 13 15 55 15 42 0 55 3 55 15 0 11 -11 15 -43 15 -63 0 -86 32 -50 72 12 13
31 18 75 18 56 0 58 -1 48 -20z"/>
<path d="M1162 1421 c-152 -52 -217 -235 -138 -389 99 -194 337 -246 516 -112
30 22 61 40 71 40 10 0 29 -14 43 -32 l25 -32 6 26 c9 34 -9 66 -40 74 -18 4
-25 13 -25 30 0 29 -41 58 -69 49 -19 -6 -18 -7 5 -30 13 -13 24 -33 24 -45 0
-26 -34 -60 -60 -60 -24 0 -60 34 -60 57 0 9 10 37 22 62 50 103 30 220 -52
302 -75 75 -166 95 -268 60z"/>
<path d="M1291 373 c-1 -6 -4 -18 -7 -27 -4 -11 -1 -16 10 -16 18 0 19 6 6 35
-5 11 -9 15 -9 8z"/>
</g>
</svg>
