<svg xmlns="http://www.w3.org/2000/svg" width="218" height="268" viewBox="0 0 218 268">
<g>
<path d="M 113.78,0.56 L 117.26,0.89 L 124.10,2.08 L 127.49,2.77 L 134.13,4.65 L 137.42,5.68 L 143.81,8.22 L 146.97,9.57 L 153.06,12.75 L 156.06,14.42 L 161.81,18.21 L 164.64,20.18 L 170.00,24.55 L 172.63,26.81 L 177.55,31.74 L 179.95,34.27 L 184.39,39.74 L 186.54,42.53 L 190.45,48.50 L 192.33,51.54 L 195.66,57.99 L 197.25,61.27 L 199.96,68.17 L 203.26,79.00 L 203.65,80.55 L 204.28,84.04 L 204.57,85.84 L 205.00,89.74 L 205.19,91.72 L 205.42,95.86 L 205.52,97.95 L 205.56,102.19 L 205.55,104.31 L 205.40,108.51 L 205.29,110.59 L 204.94,114.60 L 204.74,116.56 L 204.20,120.23 L 203.16,125.18 L 202.42,128.04 L 200.85,133.22 L 200.05,135.73 L 198.30,140.36 L 197.39,142.62 L 195.39,146.89 L 192.01,153.10 L 190.64,155.41 L 187.66,159.83 L 186.13,162.01 L 182.87,166.15 L 181.20,168.18 L 177.67,172.03 L 175.87,173.91 L 172.09,177.46 L 170.17,179.19 L 166.17,182.42 L 164.14,184.00 L 159.92,186.91 L 157.79,188.32 L 153.39,190.90 L 151.17,192.15 L 146.60,194.39 L 144.29,195.46 L 139.58,197.36 L 137.20,198.26 L 132.36,199.79 L 129.92,200.51 L 124.96,201.68 L 122.48,202.21 L 117.43,203.00 L 114.90,203.35 L 109.79,203.75 L 107.23,203.91 L 102.07,203.91 L 99.48,203.87 L 94.30,203.47 L 91.70,203.22 L 86.50,202.41 L 83.98,201.97 L 79.04,200.81 L 76.59,200.18 L 71.80,198.67 L 69.42,197.87 L 64.79,196.02 L 62.50,195.06 L 58.05,192.88 L 55.84,191.75 L 51.58,189.26 L 49.47,187.98 L 45.40,185.19 L 43.40,183.76 L 39.55,180.68 L 37.65,179.10 L 34.03,175.75 L 32.25,174.04 L 28.87,170.42 L 27.21,168.57 L 24.08,164.71 L 22.55,162.74 L 19.69,158.63 L 18.29,156.55 L 15.71,152.22 L 14.46,150.02 L 12.17,145.48 L 11.06,143.18 L 9.08,138.43 L 8.13,136.03 L 6.47,131.10 L 4.35,123.50 L 4.06,122.29 L 3.58,119.28 L 3.37,117.69 L 3.04,114.07 L 2.89,112.20 L 2.71,108.20 L 2.64,106.17 L 2.60,102.00 L 2.60,99.92 L 2.71,95.80 L 2.78,93.77 L 3.04,89.93 L 3.18,88.07 L 3.58,84.72 L 4.35,80.50 L 4.88,78.29 L 6.14,73.95 L 6.81,71.80 L 8.32,67.58 L 9.10,65.49 L 10.86,61.41 L 11.76,59.38 L 13.75,55.44 L 14.77,53.49 L 16.97,49.71 L 18.11,47.83 L 20.53,44.21 L 21.76,42.42 L 24.39,38.96 L 25.73,37.26 L 28.56,33.99 L 29.99,32.37 L 33.01,29.29 L 34.54,27.78 L 37.73,24.90 L 39.35,23.49 L 42.71,20.82 L 44.41,19.52 L 47.94,17.07 L 49.72,15.88 L 53.40,13.66 L 55.26,12.58 L 59.08,10.61 L 61.01,9.65 L 64.97,7.93 L 71.05,5.64 L 74.63,4.43 L 81.81,2.61 L 85.40,1.80 L 92.57,0.78 L 96.14,0.37 L 103.24,0.11 L 106.78,0.07 M 97.26,45.31 L 93.50,45.53 L 91.62,45.80 L 85.29,47.10 L 81.21,48.34 L 79.25,49.13 L 75.40,50.83 L 73.57,51.84 L 69.99,53.98 L 68.31,55.20 L 65.02,57.74 L 63.51,59.15 L 60.56,62.07 L 59.23,63.67 L 56.67,66.94 L 55.54,68.70 L 53.40,72.29 L 52.49,74.21 L 50.04,80.41 L 48.84,84.64 L 48.45,86.78 L 47.80,91.09 L 47.67,93.26 L 47.55,97.61 L 47.68,99.78 L 48.06,104.13 L 48.44,106.29 L 49.31,110.59 L 49.92,112.71 L 51.26,116.94 L 52.09,119.00 L 53.87,123.09 L 54.92,125.08 L 57.12,129.01 L 58.37,130.90 L 60.97,134.62 L 62.41,136.39 L 65.38,139.86 L 67.01,141.49 L 70.34,144.67 L 72.13,146.13 L 75.79,148.98 L 77.74,150.27 L 81.72,152.75 L 83.82,153.83 L 88.09,155.89 L 90.32,156.76 L 94.85,158.36 L 97.22,158.98 L 101.94,160.06 L 104.34,160.39 L 109.17,160.91 L 111.60,160.97 L 116.47,160.94 L 118.89,160.72 L 123.73,160.15 L 126.12,159.67 L 130.88,158.58 L 133.19,157.84 L 137.79,156.24 L 140.01,155.25 L 144.38,153.15 L 146.46,151.92 L 150.55,149.33 L 152.46,147.86 L 156.11,145.07 L 158.12,143.55 L 158.96,142.94 L 160.53,141.81 L 161.18,141.37 L 162.40,140.58 L 162.91,140.28 L 163.89,139.77 L 164.32,139.59 L 165.15,139.29 L 165.55,139.20 L 167.12,139.00 L 168.09,139.00 L 171.45,139.56 L 173.47,140.49 L 174.35,141.20 L 176.02,142.81 L 176.71,143.86 L 177.97,146.11 L 178.43,147.45 L 179.78,151.41 L 181.89,147.95 L 183.10,145.46 L 183.63,143.78 L 183.75,142.95 L 183.90,141.30 L 183.84,140.50 L 183.63,138.91 L 183.40,138.15 L 182.84,136.66 L 182.44,135.96 L 181.55,134.61 L 180.98,134.00 L 179.77,132.82 L 179.05,132.31 L 177.52,131.35 L 176.65,130.96 L 174.34,129.82 L 173.27,129.10 L 172.90,128.70 L 172.27,127.85 L 172.05,127.31 L 171.68,126.13 L 171.54,125.35 L 170.35,122.16 L 169.04,120.09 L 168.21,119.17 L 166.46,117.44 L 165.49,116.79 L 163.52,115.67 L 162.54,115.42 L 159.62,115.30 L 157.27,115.60 L 156.14,115.88 L 153.98,116.51 L 153.22,116.89 L 152.54,117.27 L 152.33,117.46 L 152.00,117.85 L 152.00,118.04 L 152.47,118.72 L 153.16,119.00 L 153.60,119.00 L 154.49,119.27 L 155.28,119.69 L 155.73,120.00 L 157.66,121.46 L 158.60,122.40 L 160.86,125.30 L 161.77,127.28 L 161.93,128.31 L 162.04,130.40 L 161.80,131.51 L 161.13,133.78 L 160.51,134.99 L 158.96,137.34 L 157.76,138.63 L 157.09,139.13 L 155.72,140.05 L 154.98,140.36 L 153.47,140.89 L 152.69,141.01 L 151.11,141.15 L 150.31,141.07 L 148.71,140.81 L 147.92,140.53 L 146.35,139.87 L 145.59,139.38 L 144.10,138.30 L 143.40,137.60 L 140.93,134.23 L 140.03,131.82 L 139.95,130.52 L 140.06,127.85 L 140.48,126.41 L 141.58,123.46 L 142.51,121.85 L 145.33,116.03 L 146.82,111.92 L 147.36,109.77 L 148.32,105.38 L 148.59,103.10 L 149.00,98.47 L 149.00,96.08 L 148.75,90.58 L 148.33,87.03 L 148.00,85.31 L 147.26,81.91 L 146.76,80.28 L 145.68,77.04 L 145.02,75.48 L 143.62,72.41 L 142.80,70.94 L 141.08,68.04 L 140.09,66.66 L 138.04,63.93 L 136.90,62.63 L 134.53,60.08 L 133.23,58.88 L 128.81,55.23 L 125.70,53.07 L 124.08,52.13 L 120.77,50.34 L 119.06,49.58 L 115.60,48.17 L 113.83,47.62 L 110.24,46.60 L 108.41,46.24 L 104.73,45.62 L 102.87,45.46 L 99.14,45.26 Z" fill="rgba(170,52,76,1)"/>
<path d="M 6.36,266.01 L 5.44,265.64 L 3.97,264.50 L 3.29,263.87 L 2.30,262.17 L 1.86,261.25 L 1.32,258.95 L 1.00,254.78 L 1.00,249.00 L 15.50,249.00 L 17.49,249.00 L 21.13,249.03 L 22.86,249.06 L 25.74,249.13 L 26.40,249.15 L 27.51,249.19 L 28.04,249.22 L 28.86,249.27 L 29.22,249.29 L 29.70,249.35 L 30.00,249.43 L 30.00,249.55 L 29.71,250.50 L 29.02,252.43 L 28.78,253.07 L 28.28,253.90 L 27.97,254.26 L 26.80,254.67 L 26.43,254.75 L 25.46,254.86 L 24.92,254.90 L 23.54,254.96 L 22.79,254.98 L 20.92,254.99 L 17.46,255.00 L 6.87,255.00 L 7.18,257.75 L 7.50,260.50 L 18.75,260.78 L 20.30,260.82 L 23.12,260.93 L 24.46,260.98 L 26.70,261.11 L 27.71,261.17 L 29.11,261.30 L 29.40,261.33 L 29.77,261.40 L 30.00,261.49 L 30.00,261.60 L 29.66,262.53 L 28.84,264.45 L 28.56,265.07 L 28.00,265.90 L 27.66,266.25 L 26.54,266.65 L 26.20,266.73 L 25.29,266.83 L 24.80,266.88 L 23.55,266.92 L 22.87,266.94 L 21.18,266.95 L 18.09,266.94 L 16.77,266.93 L 14.20,266.84 L 12.94,266.79 L 10.69,266.64 L 9.62,266.55 L 7.95,266.35 L 7.20,266.24 M 37.36,266.01 L 36.33,265.59 L 34.79,264.41 L 34.09,263.73 L 33.14,261.83 L 32.93,261.30 L 32.61,260.06 L 32.47,259.41 L 32.26,257.90 L 32.17,257.11 L 32.06,255.30 L 32.00,252.21 L 32.00,251.06 L 32.09,248.81 L 32.14,247.71 L 32.32,245.73 L 32.42,244.79 L 32.66,243.29 L 33.08,241.85 L 33.54,240.99 L 35.13,239.64 L 35.59,239.33 L 36.70,238.80 L 37.29,238.55 L 38.66,238.13 L 39.39,237.94 L 41.06,237.62 L 41.93,237.48 L 43.91,237.27 L 44.94,237.18 L 47.24,237.07 L 51.08,237.00 L 52.34,237.00 L 54.40,237.01 L 55.36,237.01 L 56.89,237.04 L 57.60,237.06 L 58.67,237.13 L 59.16,237.17 L 59.84,237.29 L 60.15,237.36 L 60.52,237.56 L 60.67,237.67 L 60.80,237.96 L 60.63,239.25 L 60.46,239.87 L 60.20,241.06 L 60.01,242.25 L 60.01,242.35 L 59.24,242.54 L 58.74,242.63 L 57.14,242.78 L 56.26,242.85 L 54.04,242.95 L 50.25,243.02 L 48.91,243.02 L 46.36,243.09 L 45.13,243.13 L 42.98,243.27 L 41.98,243.34 L 40.48,243.53 L 39.20,243.85 L 38.97,244.00 L 38.63,244.67 L 38.48,245.07 L 38.28,246.32 L 38.20,247.02 L 38.14,248.92 L 38.20,252.59 L 38.50,260.50 L 49.75,260.78 L 51.30,260.82 L 54.12,260.92 L 55.46,260.98 L 57.70,261.10 L 58.71,261.16 L 60.11,261.29 L 60.40,261.32 L 60.77,261.38 L 61.00,261.47 L 61.00,261.58 L 60.71,262.51 L 60.02,264.43 L 59.79,265.06 L 59.29,265.90 L 58.99,266.25 L 57.89,266.65 L 57.55,266.73 L 56.64,266.84 L 56.14,266.88 L 54.87,266.93 L 54.18,266.94 L 52.45,266.95 L 49.27,266.94 L 47.93,266.93 L 45.31,266.84 L 44.03,266.79 L 41.74,266.64 L 40.66,266.55 L 38.96,266.35 L 38.21,266.24 M 63.22,252.25 L 63.50,237.50 L 66.25,237.18 L 66.93,237.10 L 67.83,237.10 L 68.22,237.16 L 68.65,237.68 L 68.74,237.86 L 68.85,238.38 L 68.90,238.67 L 68.95,239.45 L 68.98,239.87 L 68.99,240.94 L 69.00,242.93 L 69.00,249.00 L 78.00,249.00 L 87.00,249.00 L 87.00,242.93 L 87.00,242.18 L 87.01,240.94 L 87.01,240.37 L 87.05,239.45 L 87.07,239.02 L 87.15,238.38 L 87.20,238.09 L 87.35,237.68 L 87.52,237.32 L 88.17,237.10 L 89.75,237.18 L 92.50,237.50 L 92.78,252.25 L 93.05,267.00 L 90.03,267.00 L 87.00,267.00 L 86.92,258.25 L 86.91,257.37 L 86.89,255.87 L 86.88,255.16 L 86.84,254.01 L 86.82,253.48 L 86.76,252.65 L 86.73,252.28 L 86.66,251.76 L 86.62,251.54 L 86.52,251.30 L 86.47,251.22 L 86.34,251.25 L 85.84,252.25 L 85.59,252.92 L 85.12,253.81 L 84.84,254.20 L 83.91,254.63 L 83.62,254.72 L 82.88,254.84 L 82.47,254.89 L 81.43,254.95 L 80.87,254.97 L 79.48,254.99 L 76.92,255.00 L 69.00,255.00 L 69.00,261.00 L 69.00,267.00 L 65.97,267.00 L 62.95,267.00 L 63.22,252.25 M 95.39,264.59 L 95.43,264.43 L 95.60,263.85 L 95.70,263.53 L 95.99,262.66 L 96.29,261.73 L 97.17,259.18 L 97.65,257.81 L 98.78,254.64 L 100.62,249.54 L 105.25,236.90 L 109.27,237.20 L 113.29,237.50 L 118.55,252.00 L 123.81,266.50 L 121.28,266.83 L 120.59,266.92 L 119.26,266.82 L 117.93,266.33 L 117.88,266.27 L 117.69,265.94 L 117.58,265.74 L 117.30,265.14 L 117.00,264.48 L 116.19,262.51 L 115.75,261.44 L 114.75,258.84 L 113.15,254.50 L 112.77,253.45 L 112.10,251.63 L 111.78,250.77 L 111.22,249.33 L 110.95,248.65 L 110.48,247.55 L 110.26,247.04 L 109.87,246.27 L 109.69,245.92 L 109.38,245.46 L 109.24,245.26 L 108.99,245.08 L 108.45,245.50 L 108.34,245.77 L 108.05,246.54 L 107.89,246.95 L 107.53,247.90 L 106.35,250.87 L 105.98,251.80 L 105.40,253.36 L 105.27,253.70 L 105.11,254.21 L 105.00,254.62 L 105.00,254.67 L 105.32,254.77 L 105.52,254.81 L 106.18,254.89 L 109.00,255.00 L 109.56,255.00 L 110.47,255.00 L 110.89,255.01 L 111.54,255.04 L 112.14,255.08 L 112.69,255.39 L 112.87,255.60 L 112.75,256.40 L 112.02,258.43 L 111.82,258.98 L 111.37,259.76 L 111.13,260.10 L 110.48,260.53 L 110.11,260.72 L 109.09,260.91 L 106.94,261.00 L 106.03,261.00 L 104.72,261.09 L 104.14,261.17 L 103.32,261.50 L 102.96,261.71 L 102.42,262.41 L 101.69,264.00 L 101.47,264.59 L 101.01,265.47 L 100.77,265.87 L 100.21,266.39 L 99.90,266.62 L 99.14,266.87 L 97.67,267.00 L 97.03,267.00 L 96.16,266.92 L 95.79,266.86 L 95.37,266.59 L 95.21,266.43 L 95.16,265.87 L 95.17,265.54 M 126.00,260.74 L 126.00,259.35 L 126.09,257.31 L 126.15,256.39 L 126.45,255.03 L 126.63,254.41 L 127.23,253.41 L 128.58,251.92 L 129.13,251.41 L 130.22,250.65 L 130.80,250.32 L 132.24,249.85 L 133.05,249.64 L 135.25,249.35 L 135.86,249.28 L 137.30,249.16 L 139.82,249.00 L 140.75,248.95 L 142.33,248.84 L 143.08,248.79 L 144.33,248.67 L 144.92,248.62 L 145.87,248.48 L 146.31,248.42 L 147.01,248.26 L 147.65,248.09 L 148.35,247.61 L 148.84,246.62 L 148.91,246.25 L 148.91,245.61 L 148.88,245.31 L 148.65,244.81 L 148.50,244.57 L 148.00,244.18 L 147.70,244.00 L 146.87,243.71 L 146.41,243.58 L 145.20,243.38 L 144.55,243.29 L 142.92,243.17 L 142.06,243.12 L 139.96,243.05 L 136.25,243.02 L 126.00,243.00 L 126.00,240.00 L 126.00,237.00 L 136.03,237.00 L 137.81,237.00 L 140.92,237.12 L 142.41,237.20 L 144.98,237.49 L 146.20,237.65 L 148.27,238.13 L 149.24,238.40 L 150.84,239.09 L 151.58,239.46 L 152.74,240.37 L 153.27,240.86 L 154.03,242.02 L 154.37,242.64 L 154.77,244.06 L 155.00,246.51 L 155.00,247.16 L 154.32,248.82 L 153.90,249.67 L 152.62,251.44 L 151.93,252.29 L 150.38,253.75 L 148.12,255.13 L 147.85,255.22 L 147.58,255.59 L 147.49,255.82 L 147.59,256.57 L 147.68,257.00 L 148.17,258.23 L 149.38,260.76 L 149.74,261.47 L 150.40,262.81 L 150.71,263.46 L 151.23,264.59 L 151.47,265.11 L 151.79,265.89 L 152.00,266.53 L 152.00,266.61 L 151.74,266.74 L 151.58,266.79 L 151.05,266.86 L 148.77,266.81 L 148.05,266.74 L 146.97,266.46 L 146.46,266.27 L 145.61,265.57 L 145.19,265.14 L 144.33,263.77 L 144.10,263.37 L 143.60,262.41 L 142.76,260.69 L 142.42,259.98 L 141.85,258.81 L 141.57,258.26 L 141.10,257.39 L 140.65,256.58 L 139.85,255.69 L 139.43,255.34 L 138.42,255.12 L 136.24,255.19 L 132.50,255.50 L 132.00,261.00 L 131.94,261.64 L 131.83,262.71 L 131.78,263.21 L 131.66,264.02 L 131.53,264.79 L 131.16,265.71 L 130.94,266.10 L 130.27,266.50 L 128.75,266.82 L 128.06,266.90 L 127.16,266.90 L 126.78,266.84 L 126.35,266.29 L 126.26,266.10 L 126.15,265.55 L 126.10,265.24 L 126.04,264.43 L 126.02,263.98 L 126.01,262.85 L 126.00,262.24 M 168.78,255.25 L 168.50,243.50 L 162.75,243.20 L 162.05,243.16 L 160.89,243.09 L 160.34,243.06 L 159.48,242.97 L 158.67,242.88 L 157.76,242.55 L 157.40,242.34 L 157.11,241.64 L 157.00,239.95 L 157.00,237.00 L 171.50,237.00 L 172.91,237.00 L 175.36,237.01 L 176.53,237.02 L 178.52,237.06 L 179.47,237.08 L 181.05,237.15 L 181.78,237.18 L 182.98,237.27 L 183.53,237.32 L 184.39,237.45 L 184.77,237.51 L 185.32,237.67 L 186.00,238.31 L 186.00,239.01 L 185.53,240.21 L 185.22,240.78 L 184.16,241.70 L 183.56,242.12 L 181.96,242.71 L 179.00,243.20 L 174.50,243.50 L 174.22,255.25 L 174.18,256.71 L 174.12,259.12 L 174.09,260.24 L 174.02,262.03 L 173.98,262.85 L 173.87,264.11 L 173.82,264.69 L 173.66,265.52 L 173.58,265.88 L 173.35,266.37 L 173.23,266.58 L 172.91,266.81 L 171.50,267.00 L 170.89,267.00 L 170.09,266.81 L 169.92,266.72 L 169.65,266.37 L 169.52,266.16 L 169.34,265.52 L 169.25,265.15 L 169.13,264.11 L 169.07,263.54 L 168.98,262.03 L 168.94,261.20 L 168.88,259.12 L 168.85,257.99 M 188.00,264.00 L 188.00,261.00 L 198.88,261.00 L 199.93,261.00 L 201.78,260.98 L 202.67,260.97 L 204.20,260.93 L 204.93,260.90 L 206.17,260.83 L 206.76,260.79 L 207.74,260.69 L 208.67,260.57 L 209.89,260.23 L 211.00,259.50 L 211.25,259.20 L 211.56,258.69 L 211.68,258.45 L 211.74,258.00 L 211.74,257.77 L 211.56,257.31 L 211.00,256.50 L 210.77,256.22 L 210.00,255.80 L 209.55,255.61 L 208.25,255.34 L 207.52,255.22 L 205.58,255.08 L 201.80,255.00 L 200.87,255.00 L 199.30,254.99 L 198.57,254.98 L 197.34,254.93 L 196.18,254.87 L 194.59,254.57 L 193.87,254.37 L 192.73,253.69 L 190.92,252.08 L 190.11,251.26 L 189.01,249.73 L 188.56,248.96 L 188.16,247.42 L 188.04,246.64 L 188.32,244.94 L 189.47,242.06 L 189.97,241.08 L 191.46,239.62 L 191.88,239.29 L 192.90,238.74 L 193.44,238.49 L 194.74,238.07 L 195.42,237.87 L 197.02,237.57 L 197.87,237.44 L 199.83,237.24 L 200.86,237.16 L 203.22,237.06 L 207.27,237.00 L 208.50,237.00 L 210.52,237.01 L 211.46,237.01 L 212.97,237.04 L 213.66,237.06 L 214.71,237.13 L 215.19,237.17 L 215.86,237.29 L 216.16,237.36 L 216.53,237.56 L 216.68,237.67 L 216.80,237.96 L 216.63,239.25 L 216.46,239.87 L 216.20,241.06 L 216.01,242.25 L 216.01,242.35 L 215.23,242.54 L 214.73,242.63 L 213.10,242.78 L 212.21,242.85 L 209.96,242.94 L 206.12,243.00 L 204.84,243.00 L 202.61,243.05 L 201.56,243.09 L 199.77,243.22 L 198.92,243.30 L 197.54,243.52 L 196.90,243.64 L 195.90,243.96 L 195.44,244.14 L 194.79,244.57 L 194.51,244.79 L 194.20,245.34 L 194.08,245.63 L 194.06,246.31 L 194.36,247.49 L 194.47,247.78 L 195.00,248.22 L 195.33,248.41 L 196.41,248.68 L 197.04,248.80 L 198.84,248.93 L 202.52,249.00 L 203.70,249.00 L 205.89,249.10 L 206.95,249.17 L 208.83,249.39 L 209.73,249.52 L 211.23,249.85 L 212.94,250.47 L 213.86,250.95 L 215.30,252.34 L 215.95,253.10 L 216.80,254.93 L 217.15,255.88 L 217.34,257.95 L 216.81,261.11 L 216.61,261.68 L 216.09,262.67 L 215.80,263.14 L 215.05,263.95 L 214.65,264.33 L 213.64,264.97 L 213.10,265.27 L 211.78,265.76 L 211.08,265.99 L 209.41,266.34 L 208.53,266.50 L 206.46,266.72 L 205.37,266.82 L 202.85,266.93 L 198.53,267.00 L 188.00,267.00 L 188.00,264.00 M 1.00,240.00 L 1.00,237.00 L 15.50,237.00 L 17.49,237.00 L 21.13,237.03 L 22.86,237.06 L 25.74,237.13 L 26.40,237.15 L 27.51,237.19 L 28.04,237.22 L 28.86,237.27 L 29.22,237.29 L 29.70,237.35 L 30.00,237.43 L 30.00,237.55 L 29.71,238.50 L 29.02,240.43 L 28.05,243.00 L 14.52,243.00 L 1.00,243.00 L 1.00,240.00 M 97.22,158.98 L 94.85,158.36 L 90.32,156.76 L 88.09,155.89 L 83.82,153.83 L 81.72,152.75 L 77.74,150.27 L 75.79,148.98 L 72.13,146.13 L 70.34,144.67 L 67.01,141.49 L 65.38,139.86 L 62.41,136.39 L 60.97,134.62 L 58.37,130.90 L 57.12,129.01 L 54.92,125.08 L 53.87,123.09 L 52.09,119.00 L 51.26,116.94 L 49.92,112.71 L 49.31,110.59 L 48.44,106.29 L 48.06,104.13 L 47.68,99.78 L 47.55,97.61 L 47.67,93.26 L 47.80,91.09 L 48.45,86.78 L 48.84,84.64 L 50.04,80.41 L 52.49,74.21 L 53.40,72.29 L 55.54,68.70 L 56.67,66.94 L 59.23,63.67 L 60.56,62.07 L 63.51,59.15 L 65.02,57.74 L 68.31,55.20 L 69.99,53.98 L 73.57,51.84 L 75.40,50.83 L 79.25,49.13 L 81.21,48.34 L 85.29,47.10 L 91.62,45.80 L 93.50,45.53 L 97.26,45.31 L 99.14,45.26 L 102.87,45.46 L 104.73,45.62 L 108.41,46.24 L 110.24,46.60 L 113.83,47.62 L 115.60,48.17 L 119.06,49.58 L 120.77,50.34 L 124.08,52.13 L 125.70,53.07 L 128.81,55.23 L 133.23,58.88 L 134.53,60.08 L 136.90,62.63 L 138.04,63.93 L 140.09,66.66 L 141.08,68.04 L 142.80,70.94 L 143.62,72.41 L 145.02,75.48 L 145.68,77.04 L 146.76,80.28 L 147.26,81.91 L 148.00,85.31 L 148.33,87.03 L 148.75,90.58 L 149.00,96.08 L 149.00,98.47 L 148.59,103.10 L 148.32,105.38 L 147.36,109.77 L 146.82,111.92 L 145.33,116.03 L 142.51,121.85 L 141.58,123.46 L 140.48,126.41 L 140.06,127.85 L 139.95,130.52 L 140.03,131.82 L 140.93,134.23 L 143.40,137.60 L 144.10,138.30 L 145.59,139.38 L 146.35,139.87 L 147.92,140.53 L 148.71,140.81 L 150.31,141.07 L 151.11,141.15 L 152.69,141.01 L 153.47,140.89 L 154.98,140.36 L 155.72,140.05 L 157.09,139.13 L 157.76,138.63 L 158.96,137.34 L 160.51,134.99 L 161.13,133.78 L 161.80,131.51 L 162.04,130.40 L 161.93,128.31 L 161.77,127.28 L 160.86,125.30 L 158.60,122.40 L 157.66,121.46 L 155.73,120.00 L 155.28,119.69 L 154.49,119.27 L 153.60,119.00 L 153.16,119.00 L 152.47,118.72 L 152.00,118.04 L 152.00,117.85 L 152.33,117.46 L 152.54,117.27 L 153.22,116.89 L 153.98,116.51 L 156.14,115.88 L 157.27,115.60 L 159.62,115.30 L 162.54,115.42 L 163.52,115.67 L 165.49,116.79 L 166.46,117.44 L 168.21,119.17 L 169.04,120.09 L 170.35,122.16 L 171.54,125.35 L 171.68,126.13 L 172.05,127.31 L 172.27,127.85 L 172.90,128.70 L 173.27,129.10 L 174.34,129.82 L 176.65,130.96 L 177.52,131.35 L 179.05,132.31 L 179.77,132.82 L 180.98,134.00 L 181.55,134.61 L 182.44,135.96 L 182.84,136.66 L 183.40,138.15 L 183.63,138.91 L 183.84,140.50 L 183.90,141.30 L 183.75,142.95 L 183.63,143.78 L 183.10,145.46 L 181.89,147.95 L 179.78,151.41 L 178.43,147.45 L 177.97,146.11 L 176.71,143.86 L 176.02,142.81 L 174.35,141.20 L 173.47,140.49 L 171.45,139.56 L 168.09,139.00 L 167.12,139.00 L 165.55,139.20 L 165.15,139.29 L 164.32,139.59 L 163.89,139.77 L 162.91,140.28 L 162.40,140.58 L 161.18,141.37 L 160.53,141.81 L 158.96,142.94 L 158.12,143.55 L 156.11,145.07 L 152.46,147.86 L 150.55,149.33 L 146.46,151.92 L 144.38,153.15 L 140.01,155.25 L 137.79,156.24 L 133.19,157.84 L 130.88,158.58 L 126.12,159.67 L 123.73,160.15 L 118.89,160.72 L 116.47,160.94 L 111.60,160.97 L 109.17,160.91 L 104.34,160.39 L 101.94,160.06 Z" fill="rgba(254,254,254,1)"/>
</g>
</svg>