<?xml version="1.0" standalone="no"?>
<!DOCTYPE svg PUBLIC "-//W3C//DTD SVG 20010904//EN"
 "http://www.w3.org/TR/2001/REC-SVG-20010904/DTD/svg10.dtd">
<svg version="1.0" xmlns="http://www.w3.org/2000/svg"
 width="442.000000pt" height="325.000000pt" viewBox="0 0 442.000000 325.000000"
 preserveAspectRatio="xMidYMid meet">

<g transform="translate(0.000000,325.000000) scale(0.100000,-0.100000)"
fill="#000000" stroke="none">
<path d="M3610 2521 c-82 -26 -127 -49 -205 -104 -120 -85 -115 -89 10 -7 120
78 192 102 332 108 84 3 113 1 175 -18 40 -12 88 -31 107 -42 18 -10 35 -17
37 -15 8 8 -119 70 -170 83 -71 19 -218 16 -286 -5z"/>
<path d="M308 2440 c-14 -10 -31 -34 -39 -52 -7 -18 -34 -57 -60 -85 -59 -66
-73 -106 -67 -197 7 -101 58 -191 58 -101 0 40 15 45 55 19 14 -9 55 -19 91
-22 58 -4 68 -8 89 -36 38 -50 60 -114 84 -241 57 -312 88 -391 191 -495 36
-37 87 -84 114 -106 l48 -40 13 -116 c8 -79 19 -127 32 -150 23 -39 22 -71 -2
-98 -26 -29 -73 -34 -165 -16 l-82 15 -51 -27 c-57 -30 -73 -52 -32 -44 27 5
65 -21 65 -45 0 -16 12 -17 28 -1 10 10 17 10 32 0 27 -17 43 -15 87 8 21 10
65 22 98 26 l59 7 -17 -26 c-23 -35 -22 -38 12 -26 21 8 38 6 63 -4 32 -13 39
-13 78 5 54 25 120 35 120 19 0 -6 -13 -11 -29 -11 -22 0 -31 -6 -41 -30 -7
-17 -11 -32 -9 -34 2 -2 21 -6 41 -9 25 -3 41 0 49 10 45 53 130 78 194 56 32
-11 42 -11 60 1 12 8 32 16 46 18 l24 3 -29 20 c-22 14 -47 20 -91 20 -64 0
-86 10 -107 48 -8 16 -7 23 4 31 24 18 48 73 48 111 0 42 1 42 146 20 191 -28
206 -33 244 -78 100 -116 120 -131 213 -155 98 -25 117 -27 117 -12 0 6 -5 10
-10 10 -12 0 -14 2 -75 52 -22 18 -66 46 -98 63 -56 29 -122 85 -100 85 6 0
31 -9 57 -21 26 -11 59 -19 74 -17 42 5 36 58 -15 130 -22 32 -46 72 -53 90
-13 31 -67 117 -81 128 -4 3 -21 32 -39 65 -18 33 -42 69 -53 80 l-20 20 6
-22 c3 -16 -1 -23 -17 -27 -31 -9 -31 -9 -80 29 -44 33 -46 34 -46 12 0 -13
13 -33 30 -47 29 -24 40 -50 21 -50 -5 0 -7 -9 -4 -20 3 -11 0 -20 -6 -20 -6
0 -11 4 -11 9 0 5 -17 15 -37 21 -21 7 -62 26 -91 42 -40 23 -57 27 -65 19 -8
-8 -7 -11 3 -11 13 0 13 -2 0 -10 -10 -6 -20 -5 -30 4 -8 7 -39 26 -67 41 -29
16 -53 34 -53 42 0 17 -15 17 -30 -2 -11 -13 -15 -12 -37 5 -14 11 -32 20 -41
20 -8 0 -37 17 -64 38 -27 20 -52 37 -56 37 -4 0 -21 14 -38 30 -70 68 -103
95 -118 95 -9 0 -16 5 -16 10 0 6 -6 10 -13 10 -7 0 -21 15 -32 33 -10 17 -23
37 -27 42 -5 6 -15 19 -23 30 -14 19 -14 19 -14 -5 0 -14 8 -50 19 -80 17 -48
29 -122 13 -80 -3 8 -12 19 -19 23 -8 4 -14 14 -14 22 0 7 -3 15 -7 17 -13 5
-43 65 -43 85 -1 10 -10 43 -21 73 -11 30 -26 80 -34 110 -8 30 -19 75 -25
100 -12 47 -44 90 -67 90 -7 0 -13 3 -13 8 0 4 -18 15 -41 25 -50 22 -84 57
-115 121 -33 69 -32 127 4 163 15 15 26 30 26 33 -1 3 4 16 9 29 10 20 8 26
-12 42 -29 24 -42 24 -73 -1z m482 -1010 c0 -5 -5 -10 -11 -10 -5 0 -7 5 -4
10 3 6 8 10 11 10 2 0 4 -4 4 -10z m365 -568 c16 -43 41 -89 57 -104 51 -48
28 -90 -58 -104 -39 -6 -43 -4 -60 25 -13 21 -24 29 -34 25 -40 -17 -54 -16
-66 1 -21 29 -17 45 16 59 21 8 39 30 60 71 16 32 30 66 30 75 0 17 9 30 19
30 3 0 19 -35 36 -78z"/>
<path d="M3651 2409 c-63 -20 -77 -27 -156 -78 -147 -94 -332 -288 -410 -432
-20 -37 -100 -129 -112 -129 -3 0 -3 30 -1 68 5 61 4 64 -7 37 -10 -22 -28
-36 -67 -53 -48 -21 -41 -23 20 -6 21 6 22 3 22 -40 0 -45 -2 -48 -38 -64 -78
-35 -161 -100 -277 -217 -124 -123 -185 -212 -185 -269 0 -32 13 -34 29 -3 11
22 11 22 6 -3 -4 -14 -8 -47 -11 -75 -3 -37 -2 -43 5 -24 15 46 61 132 97 181
84 114 327 315 371 306 8 -2 24 -33 36 -69 51 -152 175 -277 327 -330 36 -12
70 -28 76 -36 26 -31 44 108 28 209 -5 25 -11 35 -20 31 -20 -8 -95 40 -138
88 -37 40 -72 106 -62 116 7 8 69 -25 108 -57 20 -16 50 -51 68 -77 20 -31 29
-39 25 -23 -4 14 -22 47 -41 75 -20 31 -29 52 -22 56 16 10 0 44 -26 59 -14 7
-43 32 -65 55 -40 42 -40 43 -21 60 15 14 29 16 66 10 54 -8 81 -21 107 -52
10 -13 25 -23 33 -23 8 0 14 -4 14 -8 0 -13 68 -81 75 -74 3 4 10 0 15 -8 6
-8 10 -10 10 -5 0 20 -18 37 -30 30 -9 -5 -11 -4 -6 4 11 17 -90 111 -160 148
-33 17 -78 37 -101 44 -28 8 -43 18 -43 28 0 25 70 139 113 182 20 22 37 44
37 49 0 6 5 10 11 10 5 0 7 5 3 12 -5 8 -2 9 10 5 9 -4 15 -3 13 1 -3 4 1 13
9 20 8 7 14 10 14 6 0 -4 11 3 25 16 19 18 22 26 13 33 -9 6 -8 7 3 4 10 -3
41 12 75 37 76 54 119 74 191 87 136 25 285 -48 348 -171 43 -84 51 -166 29
-270 -5 -21 -3 -20 16 10 l22 34 24 -27 c62 -73 5 -204 -164 -373 -129 -129
-268 -224 -328 -224 -21 0 -24 5 -24 34 0 29 8 41 49 75 27 23 52 41 56 41 3
0 27 20 53 45 25 25 41 45 36 45 -6 0 -21 -12 -35 -26 -34 -36 -158 -109 -168
-98 -5 5 -16 30 -26 57 -25 68 -28 53 -4 -24 42 -135 20 -324 -36 -303 -6 3
-35 -33 -65 -78 -66 -103 -275 -313 -379 -382 -104 -69 -193 -98 -314 -104
-87 -4 -108 -1 -181 22 -91 30 -192 98 -250 169 -53 66 -87 158 -96 262 -4 58
-8 76 -10 50 -32 -402 331 -692 714 -570 121 39 235 115 372 251 145 143 212
243 247 364 16 56 16 56 74 73 205 63 495 331 590 545 43 97 62 252 32 252 -5
0 -9 11 -9 23 0 34 -34 128 -65 181 -55 95 -158 174 -266 206 -88 27 -212 26
-298 -1z m-485 -839 c4 -8 6 -19 5 -24 -1 -4 7 -16 19 -26 11 -9 20 -22 20
-27 0 -10 29 -36 118 -104 28 -22 52 -44 52 -47 0 -4 -10 -13 -21 -20 -20 -13
-27 -9 -89 55 -38 39 -80 94 -95 123 -27 53 -48 147 -37 165 4 6 10 -10 14
-35 4 -25 11 -52 14 -60z m-327 37 c-101 -77 -215 -182 -280 -260 -27 -32 -49
-54 -49 -48 0 5 12 24 28 43 15 18 34 41 42 52 51 66 247 233 258 221 3 -3 3
-6 1 -8z m291 -254 c0 -4 -13 6 -30 22 -16 16 -30 33 -30 38 0 6 14 -4 30 -21
17 -18 30 -35 30 -39z m-639 -96 c-10 -9 -11 -8 -5 6 3 10 9 15 12 12 3 -3 0
-11 -7 -18z"/>
<path d="M415 2385 c-14 -13 -25 -33 -25 -45 0 -26 43 -70 68 -70 29 0 69 36
75 66 3 20 -2 34 -19 51 -30 30 -69 29 -99 -2z"/>
<path d="M3280 2320 c-14 -10 -23 -21 -20 -23 3 -3 18 6 33 19 33 28 23 32
-13 4z"/>
<path d="M3210 2255 c-35 -36 -38 -49 -4 -17 23 20 48 52 42 52 -2 0 -19 -16
-38 -35z"/>
<path d="M860 2270 c0 -5 5 -10 11 -10 6 0 9 -9 6 -20 -3 -12 -1 -18 5 -14 6
4 9 1 6 -7 -2 -7 7 -25 21 -39 14 -14 34 -43 44 -64 10 -21 20 -36 23 -34 7 7
-6 34 -56 120 -42 72 -60 93 -60 68z"/>
<path d="M2815 1790 c-3 -5 -2 -10 4 -10 5 0 13 5 16 10 3 6 2 10 -4 10 -5 0
-13 -4 -16 -10z"/>
<path d="M2770 1770 c-13 -8 -13 -10 2 -10 9 0 20 5 23 10 8 13 -5 13 -25 0z"/>
<path d="M2629 1663 c-13 -16 -12 -17 4 -4 16 13 21 21 13 21 -2 0 -10 -8 -17
-17z"/>
<path d="M3875 1589 c-4 -6 -5 -12 -2 -15 2 -3 7 2 10 11 7 17 1 20 -8 4z"/>
<path d="M2514 1557 l-29 -32 30 25 c17 14 32 26 34 28 2 1 2 4 -1 7 -2 3 -18
-10 -34 -28z"/>
<path d="M3235 958 l-50 -53 53 50 c28 27 52 51 52 52 0 8 -9 -1 -55 -49z"/>
<path d="M2487 885 c3 -11 13 -24 21 -29 11 -6 12 -10 2 -16 -9 -6 -7 -11 9
-19 11 -7 21 -18 21 -26 0 -8 6 -14 13 -12 6 1 11 -4 9 -11 -1 -8 2 -11 7 -8
5 3 11 0 14 -7 3 -7 24 -23 48 -35 79 -39 158 -47 248 -22 56 15 49 22 -9 9
-63 -15 -156 -3 -216 26 -49 24 -101 72 -152 140 -14 19 -20 23 -15 10z"/>
<path d="M3154 878 l-19 -23 23 19 c21 18 27 26 19 26 -2 0 -12 -10 -23 -22z"/>
</g>
</svg>
