<?xml version="1.0" standalone="no"?>
<!DOCTYPE svg PUBLIC "-//W3C//DTD SVG 20010904//EN"
 "http://www.w3.org/TR/2001/REC-SVG-20010904/DTD/svg10.dtd">
<svg version="1.0" xmlns="http://www.w3.org/2000/svg"
 width="459.000000pt" height="459.000000pt" viewBox="0 0 459.000000 459.000000"
 preserveAspectRatio="xMidYMid meet">

<g transform="translate(0.000000,459.000000) scale(0.100000,-0.100000)"
fill="#000000" stroke="none">
<path d="M2155 3150 c-176 -37 -240 -124 -290 -392 l-19 -97 -110 -3 -111 -3
-7 -50 c-4 -27 -6 -56 -3 -62 3 -9 34 -13 105 -13 92 0 101 -2 96 -17 -3 -10
-40 -189 -82 -398 -58 -289 -82 -392 -102 -428 -34 -63 -90 -97 -159 -97 -58
0 -65 -6 -86 -77 l-15 -53 37 -7 c159 -31 323 45 379 174 15 34 192 865 192
900 0 1 54 3 120 3 l119 0 10 38 c6 20 12 48 13 62 l3 25 -118 3 -117 3 6 42
c15 93 46 194 72 231 35 51 89 78 156 80 l54 1 10 45 c6 25 13 52 17 61 4 12
-1 18 -17 22 -51 12 -115 15 -153 7z"/>
<path d="M2442 2818 c-5 -7 -23 -78 -40 -158 -29 -134 -148 -680 -170 -777
l-10 -43 74 0 73 0 10 38 c5 20 35 154 66 297 31 143 74 341 96 440 21 99 39
187 39 197 0 15 -9 18 -64 18 -39 0 -67 -5 -74 -12z"/>
<path d="M1270 2320 l0 -500 80 0 80 0 0 500 0 500 -80 0 -80 0 0 -500z"/>
<path d="M361 2509 c-49 -10 -118 -51 -129 -77 -5 -12 -8 -5 -12 23 l-5 40
-77 3 -78 3 0 -341 0 -340 80 0 80 0 0 217 c0 198 2 220 20 259 33 68 121 95
191 58 53 -27 59 -58 59 -309 l0 -225 80 0 80 0 0 223 c0 196 2 226 18 256 36
68 141 94 197 49 50 -39 55 -68 55 -308 l0 -220 75 0 75 0 0 258 c0 249 -1
259 -24 307 -41 88 -107 128 -212 128 -74 1 -162 -37 -195 -84 l-21 -30 -24
34 c-41 61 -143 94 -233 76z"/>
<path d="M3476 2313 c12 -98 29 -243 39 -323 9 -80 19 -148 22 -152 2 -5 39
-8 81 -8 l78 0 41 83 c96 188 202 382 211 385 6 2 13 -14 16 -35 31 -196 68
-419 72 -425 3 -4 38 -8 77 -8 l72 0 162 324 c89 178 159 327 156 330 -4 3
-36 6 -73 6 l-66 0 -106 -222 c-58 -122 -109 -223 -115 -225 -5 -2 -22 90 -37
204 -16 115 -33 216 -38 226 -7 14 -22 17 -77 17 -52 0 -71 -4 -83 -17 -8 -10
-50 -83 -93 -163 -43 -80 -93 -172 -111 -205 -18 -33 -37 -61 -42 -63 -5 -1
-12 43 -16 100 -9 141 -26 320 -31 336 -3 8 -29 12 -83 12 l-78 0 22 -177z"/>
<path d="M3215 2364 c-11 -9 -29 -22 -39 -29 -18 -14 -18 -15 4 -66 32 -75 26
-162 -16 -221 -31 -45 -118 -98 -161 -98 -19 0 -23 5 -23 30 0 17 -5 30 -11
30 -13 0 -168 -112 -169 -121 0 -4 23 -17 52 -29 43 -18 65 -21 137 -18 103 4
164 29 227 95 71 72 89 121 89 238 0 90 -3 105 -28 153 -15 28 -31 52 -35 52
-4 0 -16 -8 -27 -16z"/>
</g>
</svg>
