<svg xmlns="http://www.w3.org/2000/svg" width="200" height="200" viewBox="0 0 200 200">
<g>
<path d="M 42.39,91.98 L 44.72,92.27 L 45.78,92.69 L 47.80,93.71 L 48.58,94.49 L 49.97,96.12 L 50.54,97.30 L 50.68,98.19 L 50.80,99.15 L 50.84,99.75 L 50.89,101.05 L 50.89,101.85 L 50.88,103.57 L 50.86,104.63 L 50.82,106.88 L 50.78,108.24 L 50.50,119.50 L 48.00,119.50 L 46.57,119.34 L 45.97,118.92 L 45.80,118.37 L 45.64,117.77 L 45.58,117.35 L 45.48,116.44 L 45.44,115.84 L 45.37,114.56 L 45.34,113.76 L 45.28,112.04 L 45.25,111.00 L 45.11,106.91 L 45.00,104.68 L 44.94,103.78 L 44.78,102.13 L 44.68,101.49 L 44.45,100.32 L 44.29,99.89 L 43.95,99.13 L 43.73,98.87 L 43.25,98.43 L 42.95,98.30 L 42.30,98.10 L 41.90,98.05 L 41.05,98.00 L 40.54,98.00 L 38.76,98.13 L 37.74,98.37 L 37.31,98.58 L 36.50,99.06 L 36.17,99.40 L 35.55,100.16 L 35.31,100.66 L 34.86,101.74 L 34.69,102.41 L 34.39,103.86 L 34.29,104.73 L 34.11,106.58 L 34.07,107.67 L 34.00,109.96 L 34.00,120.13 L 31.25,119.82 L 29.66,119.50 L 29.01,119.02 L 28.82,118.46 L 28.65,117.84 L 28.59,117.42 L 28.48,116.50 L 28.44,115.90 L 28.37,114.61 L 28.34,113.79 L 28.28,112.06 L 28.25,111.00 L 28.11,106.84 L 28.01,104.58 L 27.93,103.67 L 27.78,102.01 L 27.67,101.37 L 27.42,100.21 L 27.25,99.79 L 26.88,99.05 L 26.64,98.80 L 26.11,98.39 L 25.77,98.27 L 25.04,98.08 L 24.59,98.04 L 23.62,98.00 L 23.04,98.00 L 20.04,98.37 L 19.23,98.62 L 18.94,98.76 L 18.43,99.08 L 18.32,99.25 L 17.97,100.48 L 17.73,101.95 L 17.61,102.92 L 17.37,105.01 L 17.27,106.21 L 17.08,108.69 L 17.01,110.00 L 16.90,112.03 L 16.84,112.88 L 16.74,114.47 L 16.68,115.12 L 16.56,116.33 L 16.49,116.81 L 16.34,117.69 L 16.25,118.02 L 15.86,119.10 L 15.57,119.36 L 14.92,119.73 L 14.46,119.79 L 12.81,119.79 L 11.90,119.57 L 11.71,119.38 L 11.57,118.97 L 11.48,118.46 L 11.43,118.09 L 11.27,116.33 L 11.21,115.11 L 11.09,112.44 L 11.06,110.87 L 11.00,107.60 L 11.00,93.00 L 14.00,93.00 L 16.12,93.31 L 16.61,93.52 L 16.76,93.65 L 17.00,93.91 L 17.00,94.06 L 17.17,94.35 L 17.44,94.40 L 17.64,94.36 L 18.60,93.99 L 19.22,93.56 L 21.97,92.38 L 24.13,92.02 L 25.25,92.06 L 27.48,92.26 L 28.49,92.57 L 30.40,93.32 L 31.12,93.89 L 32.49,94.94 L 33.16,95.29 L 33.46,95.29 L 34.07,95.17 L 34.45,94.94 L 35.27,94.36 L 35.86,93.89 L 38.91,92.37 L 41.21,91.92 M 65.77,99.75 L 65.50,119.50 L 62.96,119.80 L 60.96,119.80 L 59.91,119.58 L 59.71,119.38 L 59.57,118.84 L 59.48,118.11 L 59.44,117.58 L 59.35,116.40 L 59.31,115.67 L 59.24,114.11 L 59.21,113.20 L 59.15,111.30 L 59.12,110.25 L 59.07,108.07 L 59.06,106.90 L 59.00,101.99 L 59.00,80.00 L 66.04,80.00 Z" fill="rgb(2,2,2)" />
<path d="M 95.71,67.19 L 97.36,67.42 L 98.24,67.63 L 98.56,67.77 L 99.13,68.06 L 99.30,68.24 L 99.57,68.60 L 99.59,68.81 L 99.55,69.24 L 99.41,69.48 L 99.07,69.96 L 98.78,70.23 L 98.13,70.76 L 97.69,71.05 L 96.73,71.63 L 96.13,71.93 L 92.94,73.92 L 91.30,75.36 L 90.72,76.16 L 89.71,77.80 L 89.42,78.71 L 89.00,80.60 L 89.00,81.64 L 89.12,83.35 L 89.37,84.18 L 89.61,84.49 L 90.20,85.05 L 90.67,85.29 L 91.74,85.75 L 92.50,86.00 L 94.97,87.08 L 95.55,87.44 L 95.72,87.61 L 96.00,87.92 L 96.00,88.04 L 95.42,89.02 L 94.55,89.69 L 93.97,89.98 L 92.72,90.53 L 92.05,90.71 L 90.71,91.00 L 90.09,91.00 L 88.22,91.74 L 87.66,92.30 L 87.39,92.69 L 86.88,93.52 L 86.63,94.05 L 86.16,95.17 L 85.93,95.84 L 85.49,97.26 L 85.28,98.09 L 84.86,99.81 L 84.66,100.80 L 84.26,102.85 L 84.07,104.00 L 83.00,110.22 L 82.35,113.76 L 82.05,115.26 L 81.46,118.10 L 81.17,119.29 L 80.60,121.52 L 80.31,122.45 L 79.73,124.20 L 79.43,124.92 L 78.80,126.28 L 78.46,126.85 L 77.01,128.89 L 76.09,129.75 L 73.86,131.60 L 72.79,132.15 L 71.73,132.64 L 71.23,132.78 L 70.25,133.00 L 69.80,133.00 L 68.58,132.88 L 67.94,132.70 L 67.71,132.56 L 67.02,131.90 L 67.03,131.44 L 67.28,130.45 L 67.76,129.91 L 68.94,128.79 L 69.89,128.25 L 72.48,126.38 L 73.77,124.90 L 74.27,123.92 L 75.17,121.77 L 75.54,120.32 L 75.90,118.79 L 76.07,117.91 L 76.41,116.06 L 76.58,115.00 L 77.14,111.61 L 77.56,109.16 L 77.78,107.94 L 78.22,105.52 L 78.42,104.42 L 78.82,102.32 L 78.99,101.50 L 79.69,96.14 L 79.79,94.40 L 79.79,93.64 L 79.75,92.21 L 79.68,91.69 L 79.53,89.91 L 79.55,88.98 L 79.62,88.63 L 79.81,88.00 L 79.97,87.79 L 80.33,87.43 L 80.59,87.33 L 81.58,86.54 L 82.00,85.79 L 82.00,85.41 L 82.17,84.38 L 82.43,83.27 L 82.62,82.56 L 83.53,79.39 L 84.10,77.63 L 85.11,74.94 L 85.82,73.35 L 86.21,72.66 L 87.00,71.35 L 87.43,70.80 L 88.31,69.75 L 88.78,69.33 L 89.75,68.54 L 90.27,68.24 L 91.34,67.71 L 91.91,67.53 L 94.32,67.07 M 149.11,96.14 L 149.68,96.54 L 150.00,97.01 L 150.65,98.15 L 151.00,99.00 L 152.14,101.12 L 152.51,101.61 L 152.68,101.76 L 153.00,102.00 L 153.12,102.00 L 153.46,102.27 L 153.66,102.70 L 153.74,103.01 L 154.00,104.50 L 154.00,105.45 L 154.45,108.27 L 155.18,109.58 L 155.75,109.90 L 156.66,110.52 L 156.97,110.92 L 156.99,111.18 L 156.92,111.74 L 156.75,112.15 L 156.32,113.05 L 155.97,113.69 L 155.14,115.02 L 154.69,115.49 L 153.78,116.32 L 153.30,116.54 L 152.34,116.85 L 151.85,116.80 L 150.89,116.57 L 150.42,116.25 L 149.94,115.33 L 149.58,114.17 L 149.41,113.39 L 149.05,111.71 L 148.88,110.75 L 148.54,108.75 L 148.39,107.71 L 147.86,103.47 L 147.74,101.67 L 147.64,99.96 L 147.65,99.29 L 147.70,98.09 L 147.79,97.75 L 148.37,96.38 L 148.84,96.03 M 107.51,84.17 L 107.74,84.73 L 107.86,85.37 L 107.90,85.81 L 108.04,87.81 L 108.04,89.07 L 108.01,91.72 L 107.93,93.09 L 107.72,95.81 L 107.55,97.00 L 106.25,103.86 L 105.65,106.33 L 105.27,107.71 L 104.46,110.59 L 103.96,112.25 L 103.36,113.92 L 102.99,114.51 L 102.22,115.53 L 101.81,115.77 L 100.98,116.08 L 100.58,115.94 L 99.79,115.47 L 99.45,114.92 L 99.30,113.88 L 99.31,112.64 L 99.36,111.83 L 99.50,110.08 L 99.60,109.09 L 99.84,107.03 L 99.98,105.95 L 100.62,101.58 L 100.98,99.70 L 101.35,97.91 L 101.53,97.19 L 101.88,95.89 L 102.05,95.50 L 102.84,93.08 L 103.38,91.00 L 103.56,90.06 L 104.32,87.64 L 105.04,86.15 L 105.43,85.56 L 106.23,84.51 L 106.60,84.25 L 107.28,83.95 M 176.58,108.06 L 177.32,108.31 L 177.61,108.60 L 178.12,109.27 L 178.23,109.75 L 178.19,110.61 L 177.98,111.28 L 177.80,111.65 L 176.90,113.13 L 176.25,113.75 L 174.78,115.03 L 174.14,115.39 L 172.92,115.91 L 172.41,115.88 L 171.43,115.64 L 171.03,115.22 L 170.27,114.21 L 169.97,113.42 L 169.44,111.36 L 169.44,110.32 L 169.62,109.98 L 170.08,109.42 L 170.48,109.34 L 171.39,109.31 L 172.00,109.50 L 173.48,109.60 L 174.30,109.33 L 174.47,109.04 L 175.43,108.19 L 176.20,107.99 M 168.72,93.14 L 169.31,93.37 L 169.54,93.57 L 169.96,94.02 L 170.11,94.34 L 170.39,95.05 L 170.48,95.50 L 171.01,98.05 L 171.40,99.92 L 171.56,100.66 L 171.61,102.82 L 171.21,103.88 L 170.81,104.14 L 169.72,104.75 L 169.28,104.85 L 168.44,104.88 L 168.08,104.65 L 167.36,104.01 L 167.00,103.41 L 166.26,102.02 L 165.84,101.02 L 164.78,97.66 L 164.59,95.83 L 164.74,95.14 L 165.21,93.92 L 165.68,93.55 L 166.80,93.00 L 167.60,93.00 M 138.26,101.61 L 138.50,102.00 L 138.77,102.73 L 138.72,103.12 L 138.50,103.90 L 138.23,104.17 L 137.29,104.63 L 136.74,104.39 L 136.50,104.00 L 136.28,102.88 L 136.50,102.10 L 136.77,101.83 L 137.71,101.37 Z" fill="rgb(11,145,217)" />
<path d="M 86.63,94.05 L 86.16,95.17 L 85.93,95.85 L 85.49,97.27 L 85.28,98.09 L 84.86,99.82 L 84.67,100.80 L 84.27,102.85 L 84.08,104.00 L 83.47,107.66 L 83.09,109.90 L 82.91,110.92 L 82.20,114.79 L 81.87,116.40 L 81.23,119.41 L 80.90,120.65 L 80.25,122.95 L 79.91,123.90 L 79.21,125.65 L 78.82,126.38 L 78.00,127.73 L 77.54,128.31 L 76.56,129.41 L 75.99,129.92 L 74.80,130.92 L 74.10,131.43 L 72.76,132.39 L 72.14,132.81 L 70.93,133.60 L 70.41,133.92 L 69.44,134.48 L 69.09,134.65 L 68.49,134.90 L 68.37,134.88 L 66.37,134.48 L 65.37,134.12 L 65.02,133.88 L 64.41,133.35 L 64.24,133.03 L 64.00,132.32 L 64.00,131.90 L 64.51,130.35 L 65.27,129.53 L 65.75,129.37 L 68.50,128.43 L 70.03,127.81 L 70.66,127.48 L 71.85,126.80 L 72.34,126.40 L 72.96,125.83 L 72.48,126.38 L 69.89,128.25 L 68.94,128.79 L 67.76,129.91 L 67.28,130.45 L 67.03,131.44 L 67.02,131.90 L 67.71,132.56 L 67.94,132.70 L 68.58,132.88 L 69.80,133.00 L 70.25,133.00 L 71.23,132.78 L 71.73,132.64 L 72.79,132.15 L 73.86,131.60 L 76.09,129.75 L 77.01,128.89 L 78.46,126.85 L 78.80,126.28 L 79.43,124.92 L 79.73,124.20 L 80.31,122.45 L 80.60,121.52 L 81.17,119.29 L 81.46,118.10 L 82.05,115.26 L 82.35,113.76 L 83.00,110.22 L 84.07,104.00 L 84.26,102.85 L 84.66,100.80 L 84.86,99.81 L 85.28,98.09 L 85.49,97.26 L 85.93,95.84 L 86.16,95.17 L 86.63,94.05 L 86.75,93.79 M 73.77,124.90 L 73.53,125.18 L 73.62,125.06 L 73.97,124.51 M 154.00,105.45 L 154.00,104.87 L 154.15,106.42 M 184.89,94.16 L 185.36,94.43 L 185.53,94.64 L 186.01,95.68 L 185.97,96.47 L 185.71,98.23 L 185.31,99.34 L 184.32,101.71 L 183.56,103.09 L 182.39,105.22 L 181.49,106.87 L 181.02,107.75 L 179.11,111.31 L 178.35,112.75 L 176.57,115.71 L 175.43,117.20 L 174.88,117.70 L 173.81,118.54 L 173.31,118.72 L 172.33,118.92 L 171.88,118.78 L 171.00,118.34 L 170.61,117.88 L 169.85,116.81 L 169.52,116.04 L 168.90,114.35 L 168.65,113.27 L 168.18,110.95 L 168.01,109.55 L 167.63,106.90 L 167.37,105.29 L 167.23,104.63 L 166.97,103.40 L 166.95,103.33 L 167.00,103.41 L 167.36,104.01 L 168.08,104.65 L 168.44,104.88 L 169.28,104.85 L 169.72,104.75 L 170.81,104.14 L 171.21,103.88 L 171.61,102.82 L 171.56,100.66 L 171.40,99.92 L 171.17,98.80 L 171.48,100.22 L 171.66,101.03 L 172.02,102.59 L 172.18,103.26 L 172.50,104.53 L 172.64,105.07 L 173.19,106.95 L 173.42,107.51 L 173.84,108.40 L 174.02,108.51 L 174.62,108.12 L 175.25,107.30 L 175.64,106.66 L 176.48,105.26 L 176.95,104.38 L 177.91,102.54 L 178.40,101.51 L 180.20,97.94 L 181.20,96.20 L 181.63,95.62 L 182.46,94.63 L 182.84,94.37 L 183.60,94.00 L 183.98,94.00 M 137.10,98.43 L 137.61,98.55 L 137.89,98.72 L 138.46,99.13 L 138.76,99.45 L 139.38,100.17 L 139.69,100.65 L 140.58,102.21 L 140.87,103.13 L 140.85,103.67 L 140.71,104.85 L 140.48,105.68 L 140.22,106.56 L 140.04,107.08 L 139.67,108.20 L 139.44,108.87 L 138.32,111.76 L 137.60,113.19 L 137.20,113.73 L 136.35,114.72 L 135.83,115.11 L 134.71,115.84 L 134.00,116.19 L 131.23,117.46 L 130.13,117.87 L 128.11,118.51 L 127.36,118.61 L 126.00,118.64 L 125.55,118.43 L 124.78,117.86 L 124.58,117.35 L 124.55,115.71 L 125.11,114.72 L 125.62,114.32 L 126.80,113.59 L 127.57,113.36 L 129.22,113.00 L 130.17,113.00 L 131.50,112.79 L 132.33,112.44 L 132.71,112.18 L 134.10,110.89 L 134.60,109.97 L 135.46,107.96 L 135.64,106.77 L 135.82,104.28 L 135.61,102.95 L 135.46,101.32 L 135.50,100.40 L 135.57,100.03 L 135.76,99.35 L 135.90,99.11 L 136.22,98.68 L 136.42,98.57 L 136.85,98.41 M 99.79,115.47 L 100.58,115.94 L 100.98,116.08 L 101.81,115.77 L 102.07,115.62 L 101.89,115.75 L 101.04,116.12 L 100.63,115.99 L 99.81,115.51 L 99.45,114.92 M 175.43,108.19 L 174.47,109.04 L 174.30,109.33 L 173.48,109.60 L 172.00,109.50 L 171.39,109.31 L 170.48,109.34 L 170.08,109.42 L 169.62,109.98 L 169.44,110.32 L 169.44,111.36 L 169.97,113.42 L 170.27,114.21 L 171.03,115.22 L 171.43,115.64 L 172.41,115.88 L 172.92,115.91 L 174.14,115.39 L 174.78,115.03 L 176.25,113.75 L 176.90,113.13 L 177.80,111.65 L 177.98,111.28 L 178.19,110.61 L 178.23,109.75 L 178.12,109.27 L 177.61,108.60 L 177.32,108.31 L 176.58,108.06 L 176.20,107.99 M 102.30,115.46 L 102.24,115.50 L 102.53,115.12 M 106.74,102.63 L 106.35,104.57 L 106.10,105.20 L 105.66,106.43 L 105.40,107.21 L 105.65,106.33 L 106.25,103.86 L 106.96,100.10 M 109.15,80.63 L 109.74,80.86 L 109.97,81.04 L 110.37,81.47 L 110.50,81.76 L 110.72,82.39 L 110.76,82.79 L 110.79,83.65 L 110.74,84.17 L 110.59,85.27 L 110.45,85.92 L 110.12,87.27 L 109.89,88.05 L 109.38,89.67 L 109.05,90.59 L 107.77,95.07 L 107.93,93.09 L 108.01,91.72 L 108.04,89.07 L 108.04,87.81 L 107.90,85.81 L 107.86,85.37 L 107.74,84.73 L 107.51,84.17 L 107.28,83.95 L 106.60,84.25 L 106.23,84.51 L 105.43,85.56 L 105.04,86.15 L 104.32,87.64 L 103.56,90.06 L 103.38,91.00 L 102.84,93.08 L 102.05,95.50 L 101.88,95.89 L 101.53,97.19 L 101.35,97.91 L 100.98,99.70 L 100.62,101.58 L 100.03,105.61 L 100.53,101.90 L 100.86,100.07 L 101.18,98.32 L 101.34,97.63 L 101.66,96.37 L 101.80,96.00 L 102.15,94.87 L 102.49,93.65 L 102.68,92.88 L 103.55,89.42 L 103.99,87.50 L 104.49,85.38 L 104.79,84.22 L 104.93,83.74 L 105.46,82.11 L 105.74,81.63 L 106.32,80.87 L 106.69,80.70 L 107.50,80.50 L 108.05,80.50 M 136.77,101.83 L 136.50,102.10 L 136.28,102.88 L 136.50,104.00 L 136.74,104.39 L 137.29,104.63 L 138.23,104.17 L 138.50,103.90 L 138.72,103.12 L 138.77,102.73 L 138.50,102.00 L 138.26,101.61 L 137.71,101.37 M 169.90,93.88 L 170.06,94.17 L 170.34,94.82 L 170.38,95.02 L 170.11,94.34 L 169.96,94.02 L 169.57,93.60 M 86.88,93.53 L 86.88,93.52 L 87.05,93.24 M 82.62,82.56 L 82.43,83.27 L 82.17,84.38 L 82.00,85.41 L 82.00,85.79 L 81.58,86.54 L 80.59,87.33 L 80.33,87.43 L 79.97,87.79 L 79.81,88.00 L 79.62,88.63 L 79.55,88.98 L 79.53,89.91 L 79.68,91.69 L 79.75,92.21 L 79.78,93.39 L 79.66,92.67 L 79.35,92.21 L 78.62,91.45 L 78.07,91.31 L 76.78,90.82 L 76.15,90.41 L 75.94,90.17 L 75.60,89.68 L 75.54,89.42 L 75.48,88.88 L 75.56,88.60 L 75.78,88.04 L 75.99,87.76 L 76.48,87.21 L 76.82,86.95 L 77.57,86.44 L 78.04,86.21 L 79.04,85.77 L 79.63,85.59 L 80.75,84.92 L 81.44,84.14 L 81.78,83.55 L 82.47,82.22 L 82.83,81.32 L 83.45,79.67 M 169.16,93.30 L 169.19,93.32 L 169.11,93.29 M 87.66,92.30 L 87.66,92.30 L 87.66,92.30 M 88.22,91.74 L 90.09,91.00 L 88.22,91.74 M 86.75,71.76 L 86.92,71.48 L 86.95,71.44 M 87.32,70.94 L 87.35,70.91 L 87.36,70.88 M 91.91,67.53 L 91.34,67.71 L 90.27,68.24 L 89.75,68.54 L 88.78,69.33 L 88.31,69.75 L 87.53,70.68 L 88.22,69.82 L 88.70,69.38 L 89.67,68.57 L 90.19,68.26 L 91.27,67.71 L 91.85,67.54 L 93.04,67.24 L 93.68,67.18 L 93.76,67.18 M 165.68,93.55 L 165.21,93.92 L 164.74,95.14 L 164.59,95.83 L 164.78,97.66 L 165.84,101.02 L 166.26,102.02 L 166.36,102.21 L 166.10,102.21 L 165.66,102.45 L 165.39,102.67 L 164.18,103.77 L 163.54,104.51 L 162.28,106.06 L 161.82,106.78 L 161.39,107.49 L 161.26,107.79 L 161.04,108.35 L 161.04,108.55 L 160.79,109.33 L 160.41,110.16 L 160.14,110.68 L 158.84,113.01 L 158.02,114.30 L 156.94,115.94 L 156.47,116.55 L 155.56,117.64 L 155.13,118.00 L 154.29,118.61 L 153.86,118.77 L 152.98,119.00 L 152.49,119.00 L 150.73,118.83 L 150.32,118.61 L 150.15,118.40 L 149.83,117.90 L 149.70,117.52 L 149.44,116.65 L 149.32,116.04 L 149.09,114.70 L 148.97,113.82 L 148.72,111.90 L 148.58,110.69 L 148.29,108.09 L 148.11,106.50 L 147.61,102.04 L 147.36,99.64 L 147.27,98.69 L 147.13,96.95 L 147.10,96.29 L 147.08,95.11 L 147.12,94.68 L 147.23,93.95 L 147.34,93.71 L 147.59,93.31 L 147.77,93.21 L 148.65,93.00 L 149.34,93.00 L 150.54,93.17 L 151.18,93.49 L 151.44,93.79 L 151.94,94.47 L 152.17,94.97 L 152.61,96.10 L 152.84,96.87 L 153.66,100.81 L 154.00,103.73 L 154.00,104.50 L 153.74,103.01 L 153.66,102.70 L 153.46,102.27 L 153.12,102.00 L 153.00,102.00 L 152.68,101.76 L 152.51,101.61 L 152.14,101.12 L 151.00,99.00 L 150.65,98.15 L 150.00,97.01 L 149.68,96.54 L 149.11,96.14 L 148.84,96.03 L 148.37,96.38 L 147.79,97.75 L 147.70,98.09 L 147.65,99.29 L 147.64,99.96 L 147.74,101.67 L 147.86,103.47 L 148.39,107.71 L 148.54,108.75 L 148.88,110.75 L 149.05,111.71 L 149.41,113.39 L 149.58,114.17 L 149.94,115.33 L 150.42,116.25 L 150.89,116.57 L 151.85,116.80 L 152.34,116.85 L 153.30,116.54 L 153.78,116.32 L 154.69,115.49 L 155.14,115.02 L 155.97,113.69 L 156.32,113.05 L 156.75,112.15 L 156.92,111.74 L 156.99,111.18 L 156.97,110.92 L 156.66,110.52 L 155.75,109.90 L 155.18,109.58 L 154.86,109.00 L 154.99,109.00 L 155.69,108.37 L 156.41,107.38 L 156.87,106.65 L 157.83,105.06 L 158.36,104.11 L 159.45,102.10 L 160.00,101.00 L 161.24,98.56 L 161.95,97.22 L 162.26,96.67 L 162.85,95.66 L 163.11,95.26 L 163.62,94.53 L 163.86,94.26 L 164.78,93.40 L 165.27,93.22 L 166.31,93.00 L 166.80,93.00 Z" fill="rgb(19,144,206)" />
<path d="M 71.85,126.80 L 71.84,126.80 L 72.09,126.60 M 79.63,85.59 L 79.04,85.77 L 78.04,86.21 L 77.57,86.44 L 76.82,86.95 L 76.48,87.21 L 75.99,87.76 L 75.78,88.04 L 75.56,88.60 L 75.48,88.88 L 75.54,89.42 L 75.60,89.68 L 75.94,90.17 L 76.15,90.41 L 76.78,90.82 L 78.07,91.31 L 78.62,91.45 L 79.35,92.21 L 79.66,92.67 L 79.91,94.16 L 79.98,95.01 L 79.77,97.36 L 79.69,98.01 L 79.44,99.49 L 78.94,102.00 L 78.81,102.62 L 78.46,104.38 L 78.28,105.32 L 77.87,107.53 L 76.67,114.50 L 76.45,115.87 L 76.39,116.21 L 76.58,115.00 L 77.14,111.63 L 77.56,109.20 L 77.77,108.00 L 78.20,105.61 L 78.40,104.54 L 78.79,102.49 L 78.95,101.69 L 79.47,98.92 L 79.71,97.35 L 79.77,96.68 L 79.87,95.42 L 79.86,94.90 L 79.80,93.93 L 79.71,93.53 L 79.49,92.80 L 79.31,92.51 L 78.92,91.99 L 78.65,91.79 L 77.41,91.16 L 76.50,91.00 L 75.11,90.64 L 74.39,90.31 L 74.12,90.09 L 73.65,89.61 L 73.49,89.30 L 73.24,88.65 L 73.18,88.24 L 73.13,87.08 L 73.29,86.55 L 73.50,86.39 L 74.03,86.13 L 74.46,86.07 L 75.46,85.99 L 76.18,85.98 L 79.06,85.74 L 79.89,85.44 M 80.75,84.92 L 80.73,84.94 L 80.83,84.83 M 81.44,84.14 L 81.19,84.42 L 81.47,84.10 M 82.83,81.32 L 82.47,82.22 L 82.37,82.41 L 82.45,82.24 L 82.93,81.06 M 85.00,75.25 L 83.97,78.09 L 83.57,79.35 L 82.94,81.02 L 83.19,80.32 L 83.73,78.77 L 84.03,77.85 L 85.06,75.08 L 85.72,73.61 M 86.12,72.86 L 85.73,73.58 L 85.79,73.45 L 86.18,72.75 L 86.47,72.26 M 86.97,71.41 L 86.97,71.41 L 86.99,71.38 M 70.01,127.82 L 70.64,127.49 L 71.46,127.02 L 70.66,127.48 L 70.03,127.81 L 68.50,128.43 L 65.75,129.37 L 68.49,128.43 M 95.01,67.13 L 95.71,67.19 L 95.01,67.13 Z" fill="rgb(29,141,197)" />
<path d="M 99.82,107.24 L 99.61,109.26 L 99.51,110.24 L 99.38,111.94 L 99.33,112.74 L 99.32,113.93 L 99.45,114.92 L 99.81,115.51 L 100.63,115.99 L 101.04,116.12 L 101.89,115.75 L 102.30,115.46 L 103.08,114.30 L 103.45,113.63 L 104.06,111.75 L 104.37,110.58 L 105.13,108.07 L 105.32,107.48 L 105.42,107.17 L 105.07,108.68 L 104.63,110.27 L 103.56,114.71 L 103.34,115.90 L 103.29,116.34 L 103.22,117.10 L 103.26,117.27 L 103.25,117.65 L 103.14,117.81 L 102.84,118.12 L 102.62,118.25 L 101.52,118.69 L 100.84,118.78 L 99.44,118.86 L 98.84,118.74 L 97.74,118.38 L 97.51,118.01 L 97.31,116.88 L 97.52,116.04 L 97.78,115.71 L 98.25,114.57 L 98.62,113.24 L 98.82,112.36 L 99.23,110.47 L 99.42,109.40 L 99.81,107.17 L 99.95,106.22 M 127.20,112.45 L 128.41,112.52 L 129.15,112.64 L 131.06,112.86 L 130.17,113.00 L 129.22,113.00 L 127.57,113.36 L 126.80,113.59 L 125.62,114.32 L 125.11,114.72 L 124.55,115.71 L 124.58,117.35 L 124.78,117.86 L 125.55,118.43 L 125.92,118.60 L 125.81,118.61 L 124.50,118.54 L 124.00,118.36 L 121.00,117.34 L 120.43,116.99 L 120.35,116.66 L 120.47,116.44 L 120.80,115.94 L 121.14,115.62 L 121.92,114.90 L 122.48,114.45 L 124.12,113.29 L 125.11,112.78 L 125.61,112.65 L 126.63,112.45 M 135.64,106.77 L 135.46,107.96 L 134.60,109.97 L 134.10,110.89 L 133.91,111.07 L 134.13,110.72 L 134.52,109.96 L 135.65,106.58 L 135.81,104.23 L 135.61,102.95 L 135.82,104.28 M 107.97,94.45 L 107.54,96.29 L 107.37,97.15 L 107.05,98.81 L 107.05,98.82 L 107.16,97.95 L 107.27,97.27 L 107.60,95.67 L 108.11,93.91 M 110.65,81.79 L 110.76,82.49 L 110.83,83.23 L 110.80,83.69 L 110.70,84.65 L 110.63,85.01 L 110.74,84.17 L 110.79,83.65 L 110.76,82.79 L 110.72,82.39 L 110.50,81.76 L 110.37,81.47 M 109.92,80.97 L 110.32,81.42 L 109.97,81.04 L 109.85,80.95 M 106.16,81.08 L 106.32,80.87 L 106.32,80.87 M 106.63,80.73 L 106.68,80.71 L 106.69,80.71 M 106.85,80.66 L 107.49,80.50 L 107.50,80.50 Z" fill="rgb(41,141,191)" />
<path d="M 200.00,200.00 L 0.00,200.00 L 0.00,0.00 L 200.00,0.00 M 93.99,62.57 L 90.84,62.86 L 89.12,63.16 L 86.62,63.63 L 85.23,63.92 L 84.65,64.07 L 83.57,64.37 L 83.14,64.53 L 82.34,64.85 L 82.03,65.04 L 81.03,65.82 L 80.78,66.35 L 80.44,67.51 L 80.40,68.30 L 80.00,72.31 L 79.52,74.81 L 79.21,75.87 L 78.55,77.87 L 78.17,78.58 L 77.40,79.78 L 77.00,80.00 L 75.11,80.32 L 73.88,79.93 L 73.35,79.49 L 72.38,78.44 L 72.06,77.74 L 71.55,76.23 L 71.53,75.37 L 71.40,73.90 L 71.17,73.20 L 70.95,72.96 L 70.43,72.53 L 70.03,72.38 L 69.14,72.11 L 68.53,72.00 L 64.57,71.64 L 62.21,71.74 L 61.21,71.94 L 59.37,72.46 L 58.71,72.86 L 57.56,73.76 L 57.32,74.34 L 56.72,76.23 L 56.52,77.41 L 56.57,77.75 L 56.88,79.88 L 57.28,80.18 L 57.87,80.31 L 58.29,80.35 L 59.00,80.36 L 59.00,101.99 L 59.06,106.90 L 59.07,108.07 L 59.12,110.25 L 59.15,111.30 L 59.21,113.20 L 59.24,114.11 L 59.31,115.67 L 59.35,116.40 L 59.44,117.58 L 59.48,118.11 L 59.57,118.84 L 59.71,119.38 L 59.91,119.58 L 60.96,119.80 L 62.96,119.80 L 64.94,119.56 L 64.87,119.73 L 64.76,119.84 L 64.21,120.49 L 64.03,120.84 L 64.04,121.00 L 64.32,121.58 L 64.86,121.91 L 65.29,122.41 L 65.36,122.82 L 65.29,123.06 L 64.75,124.09 L 64.12,124.70 L 62.63,125.95 L 61.59,126.60 L 59.32,127.90 L 57.95,128.52 L 56.26,129.40 L 55.36,130.01 L 55.03,130.32 L 54.43,130.94 L 54.26,131.25 L 54.00,131.86 L 54.00,132.15 L 53.74,133.46 L 53.36,134.00 L 53.11,134.00 L 52.69,134.29 L 52.41,134.74 L 52.28,135.06 L 51.77,136.59 L 51.59,137.50 L 51.28,139.38 L 51.25,140.20 L 51.25,140.97 L 51.30,141.29 L 51.41,141.85 L 51.51,142.02 L 52.13,142.73 L 52.50,142.87 L 53.28,143.04 L 53.65,142.94 L 54.36,142.63 L 54.60,142.31 L 55.00,141.58 L 55.00,141.08 L 55.20,138.94 L 55.54,137.78 L 55.79,137.34 L 56.37,136.57 L 56.74,136.35 L 57.53,136.00 L 58.00,136.00 L 59.43,136.44 L 60.20,137.09 L 60.36,137.50 L 61.44,138.58 L 62.59,139.05 L 63.22,139.07 L 64.35,139.13 L 64.76,139.20 L 64.79,139.25 L 64.74,139.38 L 64.55,139.48 L 64.06,139.71 L 63.65,139.87 L 62.71,140.29 L 62.38,140.55 L 62.36,140.69 L 62.42,140.98 L 62.59,141.17 L 63.01,141.60 L 63.36,141.89 L 64.34,142.47 L 65.10,142.67 L 65.58,142.68 L 66.61,142.64 L 67.29,142.53 L 68.76,142.25 L 69.71,142.02 L 73.61,141.21 L 74.74,141.02 L 75.19,140.96 L 76.01,140.87 L 76.25,140.87 L 77.49,140.43 L 78.00,139.79 L 78.00,139.38 L 78.32,138.50 L 78.82,138.39 L 79.15,138.60 L 79.81,138.81 L 79.83,138.53 L 79.62,138.19 L 79.46,137.34 L 79.57,136.56 L 79.70,136.09 L 80.47,134.05 L 81.07,132.95 L 82.39,130.76 L 83.12,129.85 L 83.85,129.00 L 84.21,128.66 L 84.92,128.06 L 85.25,127.88 L 87.06,126.72 L 88.03,125.90 L 88.23,125.60 L 88.80,125.07 L 88.98,125.32 L 88.98,125.75 L 89.44,126.63 L 90.09,127.00 L 90.50,127.00 L 91.60,126.33 L 92.00,125.28 L 92.00,124.50 L 92.22,122.80 L 92.59,122.17 L 92.89,122.11 L 93.56,122.15 L 94.01,122.43 L 94.98,123.14 L 95.58,123.75 L 97.48,125.09 L 99.12,125.81 L 100.09,126.08 L 102.10,126.57 L 103.21,126.73 L 105.48,126.98 L 106.67,127.01 L 111.54,126.92 L 113.89,126.50 L 116.21,126.02 L 117.30,125.68 L 119.39,124.95 L 120.32,124.49 L 123.17,123.43 L 125.05,123.03 L 125.80,122.99 L 126.50,122.98 L 126.78,123.01 L 127.28,123.11 L 127.42,123.21 L 127.64,123.42 L 127.62,123.57 L 127.49,123.91 L 127.28,124.12 L 126.53,125.47 L 126.57,126.35 L 126.82,126.72 L 127.48,127.42 L 128.00,127.64 L 129.17,128.00 L 129.92,128.00 L 132.16,127.56 L 133.79,126.93 L 134.47,126.56 L 135.67,125.82 L 135.89,125.53 L 136.04,125.25 L 135.98,125.15 L 135.77,124.99 L 135.50,124.96 L 135.18,124.84 L 135.20,124.70 L 135.31,124.61 L 135.99,124.21 L 136.57,123.99 L 137.84,123.55 L 138.53,123.38 L 139.90,123.09 L 140.44,123.07 L 141.51,123.06 L 141.87,123.11 L 141.87,123.19 L 141.76,123.41 L 141.53,123.60 L 140.94,124.05 L 140.48,124.39 L 139.52,125.19 L 139.31,125.58 L 139.45,125.74 L 139.89,126.07 L 140.40,126.25 L 141.61,126.63 L 142.54,126.89 L 147.13,127.78 L 150.16,128.04 L 151.48,128.01 L 152.75,127.95 L 153.29,127.88 L 154.32,127.71 L 154.73,127.59 L 155.44,127.32 L 155.66,127.15 L 156.00,126.78 L 156.00,126.56 L 156.24,125.39 L 156.59,124.75 L 156.82,124.61 L 158.49,123.97 L 159.88,123.67 L 160.58,123.61 L 161.94,123.53 L 162.46,123.59 L 163.36,123.77 L 163.48,123.98 L 164.37,124.43 L 165.27,124.48 L 165.76,124.35 L 167.65,124.64 L 169.12,125.40 L 169.73,125.97 L 171.04,127.02 L 171.86,127.44 L 172.31,127.51 L 173.29,127.59 L 173.92,127.52 L 175.30,127.29 L 176.23,127.09 L 180.27,126.47 L 181.66,126.35 L 182.29,126.32 L 183.50,126.29 L 183.98,126.32 L 185.68,126.32 L 186.51,126.20 L 186.81,126.07 L 187.32,125.76 L 187.49,125.52 L 187.76,124.99 L 187.83,124.63 L 187.92,123.84 L 187.88,123.48 L 187.80,123.40 L 187.62,123.28 L 187.47,123.30 L 187.15,123.41 L 186.93,123.55 L 186.37,123.81 L 186.16,123.82 L 186.12,123.73 L 186.09,123.49 L 186.15,123.27 L 186.30,122.77 L 186.45,122.41 L 187.02,120.70 L 187.27,119.59 L 187.29,119.25 L 187.65,118.37 L 188.14,118.00 L 188.45,118.00 L 189.30,117.27 L 189.71,116.19 L 189.77,115.50 L 189.56,113.66 L 189.03,113.00 L 188.60,113.00 L 187.38,112.53 L 186.79,111.82 L 186.63,111.35 L 186.41,110.33 L 186.46,109.78 L 186.67,108.67 L 186.97,108.16 L 187.66,107.26 L 187.96,107.18 L 187.97,107.44 L 188.16,107.74 L 188.43,107.69 L 188.62,107.56 L 189.50,106.80 L 190.00,106.20 L 191.00,104.90 L 191.38,104.25 L 192.00,103.00 L 192.00,102.60 L 192.29,101.37 L 192.72,100.67 L 193.00,100.50 L 193.71,100.35 L 194.00,100.58 L 194.00,100.85 L 194.59,101.38 L 195.45,101.43 L 196.00,101.29 L 197.42,100.59 L 198.01,99.95 L 198.02,99.63 L 198.31,99.27 L 198.73,99.59 L 199.00,100.00 L 199.43,100.08 L 199.66,99.44 L 199.74,98.76 L 199.88,97.16 L 199.92,95.99 L 199.98,93.42 L 199.98,91.75 L 199.97,89.11 L 199.95,87.59 L 199.93,86.96 L 199.88,85.75 L 199.84,85.26 L 199.76,84.34 L 199.71,83.97 L 199.46,82.74 L 199.28,82.43 L 198.86,82.00 L 198.58,82.00 L 197.95,82.22 L 197.51,82.56 L 197.29,82.81 L 196.44,83.99 L 196.16,84.75 L 195.74,85.77 L 195.50,86.20 L 195.41,86.29 L 195.24,86.38 L 195.18,86.30 L 195.09,86.04 L 195.08,85.78 L 194.82,84.88 L 194.46,84.30 L 194.20,84.02 L 192.97,82.97 L 192.19,82.59 L 190.58,81.94 L 189.79,81.84 L 188.27,81.83 L 187.72,82.14 L 186.50,83.19 L 186.00,84.03 L 186.00,84.38 L 185.38,85.22 L 184.49,85.49 L 183.95,85.48 L 182.83,85.37 L 182.34,85.18 L 181.41,84.69 L 181.17,84.31 L 179.57,83.00 L 178.73,82.63 L 178.21,82.46 L 177.07,82.15 L 176.38,82.00 L 174.92,81.72 L 174.05,81.60 L 172.20,81.35 L 171.13,81.24 L 168.87,81.01 L 167.57,80.91 L 164.86,80.70 L 163.31,80.59 L 161.21,80.47 L 160.01,80.42 L 159.49,80.42 L 157.64,80.45 L 156.94,80.56 L 155.67,80.86 L 155.13,81.12 L 154.08,81.72 L 153.52,82.16 L 151.09,83.49 L 149.50,83.84 L 148.92,83.69 L 147.77,83.63 L 146.96,83.79 L 146.54,83.96 L 144.87,84.87 L 144.13,85.56 L 142.72,87.08 L 142.25,87.95 L 141.50,89.72 L 141.50,90.58 L 141.16,92.79 L 140.62,93.57 L 140.22,93.61 L 139.34,93.45 L 138.80,93.02 L 137.65,91.92 L 137.01,91.01 L 136.00,89.45 L 135.59,88.62 L 135.51,88.28 L 135.43,87.63 L 135.51,87.35 L 135.75,86.80 L 135.98,86.52 L 136.43,85.80 L 136.44,85.44 L 136.28,85.30 L 135.85,85.04 L 135.44,84.94 L 134.50,84.74 L 133.82,84.64 L 130.37,84.25 L 128.58,84.16 L 127.93,84.20 L 126.80,84.33 L 126.48,84.49 L 126.00,84.85 L 126.00,85.12 L 125.73,85.66 L 125.34,85.71 L 125.08,85.55 L 123.69,85.44 L 122.32,85.69 L 121.61,85.96 L 120.11,86.35 L 119.32,86.22 L 118.92,85.87 L 118.52,85.47 L 118.29,85.19 L 117.83,84.55 L 117.56,84.13 L 117.01,83.22 L 116.68,82.65 L 115.98,81.43 L 115.57,80.70 L 114.02,77.71 L 113.26,75.98 L 113.01,75.22 L 112.59,73.78 L 112.50,73.16 L 112.40,71.95 L 112.47,71.42 L 112.56,68.89 L 112.30,67.64 L 111.98,67.20 L 111.23,66.45 L 110.65,66.23 L 109.33,65.88 L 108.44,65.83 L 105.92,65.35 L 104.41,64.78 L 104.00,64.46 L 101.56,63.23 L 99.44,62.71 L 98.17,62.59 L 95.50,62.47 M 11.06,110.87 L 11.09,112.44 L 11.21,115.11 L 11.27,116.33 L 11.43,118.09 L 11.48,118.46 L 11.57,118.97 L 11.71,119.38 L 11.90,119.57 L 12.81,119.79 L 14.46,119.79 L 14.92,119.73 L 15.57,119.36 L 15.86,119.10 L 16.25,118.02 L 16.34,117.69 L 16.49,116.81 L 16.56,116.33 L 16.68,115.12 L 16.74,114.47 L 16.78,113.83 L 16.75,114.67 L 16.71,116.24 L 16.70,116.87 L 16.70,118.03 L 16.72,118.47 L 16.78,119.27 L 16.83,119.55 L 17.11,120.39 L 17.36,120.49 L 17.97,120.51 L 18.43,120.37 L 19.50,120.13 L 20.45,120.01 L 21.00,119.96 L 23.34,119.81 L 24.47,119.84 L 26.84,119.83 L 27.79,119.69 L 28.02,119.48 L 28.35,118.95 L 28.35,118.47 L 28.29,117.35 L 28.19,116.49 L 27.61,114.29 L 26.90,113.17 L 26.34,112.75 L 25.08,112.01 L 24.20,111.75 L 22.27,111.28 L 21.00,111.12 L 20.61,110.85 L 20.38,110.47 L 20.29,110.20 L 20.00,108.95 L 20.00,108.17 L 20.17,106.45 L 20.54,105.71 L 20.94,105.49 L 21.89,105.14 L 22.67,105.06 L 23.51,105.00 L 24.02,104.99 L 25.10,104.97 L 25.75,104.97 L 27.46,104.52 L 27.94,103.81 L 28.01,104.58 L 28.11,106.84 L 28.25,111.00 L 28.28,112.06 L 28.34,113.79 L 28.37,114.61 L 28.44,115.90 L 28.48,116.50 L 28.59,117.42 L 28.65,117.84 L 28.82,118.46 L 29.01,119.02 L 29.66,119.50 L 31.25,119.82 L 34.00,120.13 L 34.00,121.02 L 38.25,120.43 L 40.40,120.11 L 41.56,119.92 L 42.03,119.82 L 42.89,119.61 L 43.23,119.48 L 43.83,119.23 L 44.05,119.07 L 44.73,118.36 L 44.85,117.80 L 45.00,116.54 L 45.00,115.61 L 44.93,113.68 L 44.74,112.89 L 44.52,112.68 L 43.97,112.38 L 43.49,112.36 L 42.38,112.37 L 41.55,112.44 L 39.29,112.39 L 38.24,112.04 L 37.90,111.66 L 37.34,110.77 L 37.20,110.07 L 37.00,108.50 L 37.00,107.42 L 37.16,105.94 L 37.50,105.31 L 37.87,105.14 L 38.74,104.89 L 39.45,104.87 L 41.08,104.89 L 42.25,104.97 L 43.58,104.96 L 44.22,104.84 L 44.43,104.70 L 44.78,104.37 L 44.87,104.11 L 44.94,103.82 L 45.00,104.68 L 45.11,106.91 L 45.25,111.00 L 45.28,112.04 L 45.34,113.76 L 45.37,114.56 L 45.44,115.84 L 45.48,116.44 L 45.58,117.35 L 45.64,117.77 L 45.80,118.37 L 45.97,118.92 L 46.57,119.34 L 48.00,119.50 L 50.50,119.50 L 50.78,108.24 L 50.82,106.88 L 50.86,104.63 L 50.88,103.57 L 50.89,101.85 L 50.89,101.05 L 50.85,100.01 L 50.92,101.16 L 50.94,101.98 L 50.98,103.74 L 50.99,104.81 L 51.00,107.09 L 51.00,120.00 L 59.51,120.00 L 59.16,115.50 L 58.90,113.24 L 58.66,112.20 L 58.49,111.86 L 58.10,111.32 L 57.83,111.18 L 57.23,111.00 L 56.82,111.00 L 55.73,110.76 L 55.50,110.52 L 55.41,110.31 L 55.26,109.85 L 55.21,109.50 L 55.14,108.75 L 55.12,108.23 L 55.12,107.11 L 55.14,106.39 L 55.19,104.84 L 55.23,103.89 L 55.33,101.84 L 55.40,100.60 L 55.53,97.80 L 55.59,96.18 L 55.61,95.48 L 55.62,94.16 L 55.61,93.60 L 55.59,92.54 L 55.55,92.11 L 55.38,90.58 L 55.22,90.09 L 54.84,89.28 L 54.57,89.05 L 53.34,88.42 L 52.75,88.60 L 52.50,88.99 L 51.45,89.58 L 50.40,89.63 L 49.85,89.45 L 46.78,88.76 L 45.51,88.58 L 44.79,88.51 L 43.29,88.36 L 42.43,88.31 L 40.65,88.20 L 39.64,88.16 L 37.53,88.09 L 36.34,88.07 L 33.87,88.03 L 32.48,88.02 L 29.60,88.01 L 28.00,88.01 L 22.00,88.06 L 18.67,88.14 L 17.30,88.21 L 14.76,88.38 L 13.75,88.50 L 11.90,88.78 L 11.20,88.97 L 9.95,89.39 L 9.52,89.66 L 8.78,90.24 L 8.56,90.61 L 8.23,91.38 L 8.18,91.85 L 8.17,92.84 L 8.24,93.42 L 8.81,94.90 L 9.41,95.58 L 9.74,95.71 L 10.38,95.84 L 10.61,95.67 L 11.00,95.14 L 11.00,107.60 M 9.99,114.00 L 9.20,114.46 L 8.77,115.15 L 8.63,115.61 L 8.41,116.57 L 8.41,117.08 L 8.47,118.07 L 8.64,118.50 L 9.23,119.66 L 9.56,119.89 L 10.22,120.15 L 10.50,119.99 L 11.02,119.47 L 11.16,118.96 L 11.33,117.79 L 11.21,117.00 L 10.67,114.88 L 10.45,114.39 L 10.33,114.24 L 10.10,114.00 M 88.60,113.44 L 89.08,113.65 L 89.35,113.88 L 90.49,114.47 L 91.16,114.51 L 91.34,114.32 L 91.80,114.42 L 91.99,115.06 L 91.98,115.58 L 91.88,117.23 L 91.71,117.81 L 91.30,118.78 L 91.00,119.00 L 90.33,119.26 L 89.92,119.10 L 89.05,118.61 L 88.56,118.06 L 87.48,116.17 L 87.25,114.91 L 87.34,114.41 L 87.66,113.56 L 88.01,113.44 L 88.38,113.37 M 66.00,99.17 L 65.98,104.08 L 65.96,106.97 L 65.93,108.24 L 65.88,110.65 L 65.85,111.69 L 65.77,113.65 L 65.72,114.47 L 65.61,116.01 L 65.55,116.63 L 65.54,116.72 L 65.77,99.75 L 66.00,83.08 M 34.84,101.83 L 34.67,102.53 L 34.38,104.02 L 34.28,104.93 L 34.11,106.84 L 34.06,107.97 L 34.00,110.35 L 34.00,109.96 L 34.07,107.67 L 34.11,106.58 L 34.29,104.73 L 34.39,103.86 L 34.69,102.41 L 34.86,101.74 L 35.24,100.83 M 70.46,103.16 L 70.64,103.67 L 70.70,104.15 L 70.80,105.27 L 70.83,106.09 L 70.86,107.41 L 70.82,107.91 L 70.72,108.81 L 70.62,109.12 L 70.37,109.65 L 70.18,109.79 L 69.77,110.00 L 69.49,110.00 L 68.87,109.80 L 68.53,109.48 L 68.41,109.25 L 68.03,108.15 L 68.01,107.45 L 68.10,106.01 L 68.32,105.31 L 68.88,103.98 L 69.34,103.52 L 70.03,102.99 L 70.35,102.97 M 19.92,98.41 L 19.21,98.79 L 18.93,99.09 L 18.40,99.76 L 18.19,100.23 L 17.86,101.16 L 17.97,100.48 L 18.32,99.25 L 18.43,99.08 L 18.94,98.76 L 19.23,98.62 L 19.93,98.40 M 35.30,100.68 L 35.31,100.66 L 35.34,100.59 M 35.54,100.18 L 35.55,100.16 L 35.70,99.98 M 41.90,98.05 L 42.30,98.10 L 42.95,98.30 L 43.25,98.43 L 43.73,98.87 L 43.78,98.93 L 43.19,98.44 L 42.61,98.26 L 41.43,98.02 M 24.59,98.04 L 25.04,98.08 L 25.77,98.27 L 26.11,98.39 L 26.64,98.80 L 26.73,98.89 L 26.03,98.40 L 25.37,98.23 L 23.98,98.02 M 31.14,93.89 L 32.55,94.94 L 33.23,95.29 L 33.16,95.29 L 32.49,94.94 L 31.12,93.89 L 30.41,93.32 M 45.75,92.68 L 47.78,93.69 L 47.80,93.71 L 45.78,92.69 L 44.91,92.35 M 19.22,93.56 L 21.96,92.38 L 21.96,92.38 M 41.21,91.92 L 38.91,92.37 L 37.16,93.24 L 38.88,92.37 L 41.18,91.92 M 44.69,92.26 L 44.72,92.27 L 42.41,91.98 M 42.35,91.97 L 42.39,91.98 L 41.22,91.92 M 66.00,80.00 L 63.69,80.00 L 66.00,79.74 Z" fill="rgb(254,254,254)" />
<path d="M 130.68,92.37 L 131.84,92.63 L 132.29,92.78 L 133.12,93.10 L 133.36,93.27 L 134.23,94.03 L 134.46,94.46 L 134.37,94.69 L 134.07,95.19 L 133.69,95.52 L 132.80,96.25 L 132.11,96.76 L 130.57,97.75 L 129.60,98.21 L 129.13,98.33 L 127.23,98.60 L 126.16,98.38 L 124.65,98.21 L 123.77,98.27 L 123.36,98.40 L 122.58,98.72 L 122.19,98.99 L 121.40,99.60 L 120.98,100.02 L 119.85,101.34 L 119.38,102.21 L 119.26,102.71 L 119.09,103.79 L 119.11,104.49 L 119.20,106.02 L 119.32,107.04 L 119.52,109.39 L 119.52,110.55 L 119.45,110.96 L 119.25,111.67 L 119.07,111.91 L 118.66,112.30 L 118.36,112.41 L 117.42,112.77 L 117.10,112.85 L 116.54,112.94 L 116.33,112.86 L 115.94,112.59 L 115.74,112.30 L 115.32,111.60 L 115.04,111.07 L 114.63,109.95 L 114.40,108.92 L 114.30,108.32 L 114.00,105.74 L 114.00,104.45 L 114.13,101.86 L 114.39,100.50 L 114.66,99.90 L 115.32,98.72 L 115.84,98.08 L 117.03,96.73 L 117.88,95.88 L 120.10,93.82 L 121.33,92.91 L 121.94,92.64 L 123.19,92.21 L 123.95,92.12 L 125.59,92.00 L 126.69,92.00 Z" fill="rgb(97,195,222)" />
<path d="M 197.47,92.90 L 198.00,93.65 L 198.00,94.21 L 197.81,95.22 L 197.47,95.53 L 196.63,96.00 L 196.00,96.00 L 194.53,95.53 L 194.00,94.77 L 194.00,94.21 L 194.53,92.90 L 195.37,92.43 L 196.00,92.43 Z" fill="rgb(195,197,198)" />
<path d="M 149.32,116.04 L 149.44,116.65 L 149.70,117.52 L 149.83,117.90 L 150.15,118.40 L 150.32,118.61 L 150.73,118.83 L 152.38,118.99 L 151.27,119.12 L 150.72,118.93 L 150.20,118.69 L 150.01,118.49 L 149.67,118.05 L 149.58,117.75 L 149.34,116.39 L 149.15,115.03 M 166.63,102.30 L 166.85,102.98 L 166.97,103.40 L 167.23,104.63 L 167.37,105.29 L 167.63,106.90 L 168.01,109.55 L 168.18,110.95 L 168.65,113.27 L 168.90,114.35 L 169.52,116.04 L 169.85,116.81 L 170.61,117.88 L 171.00,118.34 L 171.61,118.65 L 171.21,118.55 L 170.81,118.24 L 170.04,117.50 L 169.72,116.92 L 169.10,115.64 L 168.86,114.80 L 168.42,112.99 L 168.27,111.89 L 167.55,108.57 L 167.23,107.71 L 167.07,107.40 L 166.75,106.87 L 166.60,106.77 L 164.81,106.02 L 163.70,106.01 L 163.18,106.25 L 162.19,106.88 L 161.75,107.43 L 161.04,108.49 L 161.04,108.35 L 161.26,107.79 L 161.39,107.49 L 161.82,106.78 L 162.28,106.06 L 163.54,104.51 L 164.18,103.77 L 165.39,102.67 L 165.66,102.45 L 166.10,102.21 L 166.54,102.21 M 157.53,115.25 L 156.96,116.06 L 155.72,117.46 L 155.69,117.48 L 156.47,116.55 L 156.94,115.94 L 158.02,114.30 L 158.71,113.22 M 165.27,93.22 L 164.78,93.40 L 163.86,94.26 L 163.62,94.53 L 163.11,95.26 L 162.85,95.66 L 162.26,96.67 L 161.95,97.22 L 161.24,98.56 L 160.00,101.00 L 159.45,102.10 L 158.36,104.11 L 157.83,105.06 L 156.87,106.65 L 156.41,107.38 L 155.69,108.37 L 154.99,109.00 L 154.85,109.00 L 154.60,108.67 L 154.49,108.46 L 154.29,107.79 L 154.00,104.87 L 154.00,103.73 L 153.66,100.81 L 152.84,96.87 L 153.66,100.22 L 153.85,101.28 L 153.91,101.73 L 154.00,102.57 L 154.00,102.87 L 154.48,104.48 L 155.31,105.00 L 155.99,105.00 L 157.06,104.67 L 157.81,104.09 L 158.21,103.61 L 159.04,102.52 L 159.50,101.75 L 160.46,100.08 L 161.00,99.00 L 161.91,97.24 L 162.45,96.26 L 162.69,95.85 L 163.59,94.46 L 164.00,94.03 L 164.83,93.35 L 165.30,93.20 L 166.28,93.00 L 166.31,93.00 M 182.84,94.37 L 182.46,94.63 L 181.63,95.62 L 181.20,96.20 L 180.20,97.94 L 178.40,101.51 L 177.91,102.54 L 176.95,104.38 L 176.48,105.26 L 175.64,106.66 L 175.25,107.30 L 174.62,108.12 L 174.02,108.51 L 173.84,108.40 L 173.42,107.51 L 173.19,106.95 L 172.64,105.07 L 172.50,104.53 L 172.18,103.26 L 172.02,102.59 L 171.66,101.03 L 171.64,100.96 L 172.12,101.93 L 172.57,102.43 L 173.53,103.31 L 174.07,103.52 L 175.18,103.76 L 175.73,103.59 L 176.63,103.00 L 177.33,102.31 L 177.70,101.84 L 179.19,99.73 L 179.79,98.50 L 180.89,96.48 L 181.59,95.45 L 181.93,95.08 L 182.61,94.44 L 182.96,94.26 L 183.46,94.07 M 184.32,101.71 L 183.69,102.85 L 184.32,101.71 M 170.62,95.16 L 170.78,95.84 L 171.02,97.35 L 171.03,98.14 L 170.42,95.25 L 170.34,94.82 L 170.08,94.23 M 147.14,97.10 L 147.14,97.08 L 147.13,97.01 M 147.12,94.68 L 147.08,95.11 L 147.10,96.29 L 147.13,96.95 L 147.08,96.33 L 146.99,95.04 L 146.99,94.75 L 147.17,94.35 M 186.01,95.68 L 186.00,95.92 L 186.01,95.68 M 184.90,94.16 L 185.37,94.43 L 185.53,94.64 L 185.87,95.38 L 185.53,94.64 L 185.36,94.43 L 184.89,94.16 L 183.98,94.00 L 183.99,94.00 M 148.46,93.05 L 148.56,93.00 L 148.65,93.00 Z" fill="rgb(204,245,253)" />
<path d="M 98.41,64.45 L 99.60,64.76 L 100.11,64.98 L 101.07,65.48 L 101.45,65.80 L 102.15,66.48 L 102.38,66.89 L 102.76,67.74 L 102.81,68.23 L 102.82,69.74 L 102.57,70.53 L 102.25,70.88 L 101.48,71.57 L 100.84,71.95 L 99.37,72.74 L 98.32,73.24 L 95.94,74.49 L 94.79,75.27 L 94.38,75.67 L 93.67,76.48 L 93.44,76.95 L 93.06,77.92 L 92.94,78.51 L 92.62,81.17 L 92.71,82.42 L 92.91,82.81 L 93.42,83.43 L 93.85,83.53 L 94.83,83.58 L 95.50,83.41 L 97.31,83.32 L 98.27,83.62 L 98.45,83.92 L 99.47,84.68 L 100.48,85.00 L 101.00,85.00 L 101.92,84.82 L 102.38,84.50 L 102.55,84.21 L 102.85,83.54 L 102.95,83.06 L 103.13,81.97 L 103.19,81.25 L 103.45,79.16 L 103.73,78.27 L 104.00,78.00 L 104.64,77.57 L 105.16,77.45 L 106.36,77.26 L 107.25,77.19 L 109.04,77.12 L 109.91,77.18 L 110.20,77.28 L 110.69,77.52 L 110.82,77.71 L 111.00,78.14 L 111.00,78.44 L 111.26,79.54 L 111.64,80.00 L 111.88,80.00 L 112.89,80.73 L 113.29,81.81 L 113.35,82.51 L 113.37,83.98 L 113.22,84.71 L 112.82,86.15 L 112.45,86.72 L 111.27,89.13 L 110.64,90.99 L 110.52,91.74 L 108.88,99.96 L 108.25,102.52 L 107.94,103.60 L 107.34,105.62 L 107.07,106.32 L 106.32,109.34 L 106.00,111.69 L 106.00,112.66 L 105.74,114.98 L 105.34,116.44 L 105.04,117.11 L 104.39,118.41 L 104.00,118.97 L 103.17,120.03 L 102.71,120.45 L 101.78,121.22 L 101.29,121.47 L 100.32,121.88 L 99.84,121.92 L 98.90,121.90 L 98.46,121.71 L 97.62,121.21 L 97.26,120.75 L 96.18,118.71 L 95.67,117.03 L 95.54,116.13 L 95.35,114.30 L 95.40,113.44 L 95.58,111.77 L 95.83,111.10 L 96.29,109.75 L 96.67,108.63 L 96.87,108.01 L 97.69,105.42 L 98.04,104.25 L 99.16,101.25 L 99.51,100.55 L 99.66,100.34 L 99.94,100.00 L 100.04,100.00 L 100.72,99.26 L 101.10,98.19 L 101.22,97.54 L 101.40,96.20 L 101.39,95.59 L 101.29,94.48 L 101.10,94.18 L 100.45,93.77 L 99.70,93.58 L 99.22,93.51 L 97.02,93.35 L 95.77,93.39 L 93.25,93.56 L 92.21,93.76 L 91.23,93.98 L 90.85,94.12 L 90.19,94.41 L 90.02,94.58 L 89.52,95.50 L 89.15,96.54 L 88.96,97.22 L 88.20,100.29 L 87.92,102.04 L 86.93,106.87 L 86.59,108.12 L 86.43,108.58 L 86.13,109.35 L 86.01,109.49 L 85.62,110.33 L 85.34,111.25 L 85.20,111.85 L 84.67,114.52 L 84.50,116.02 L 83.54,121.61 L 82.65,124.85 L 82.06,126.24 L 80.80,128.89 L 80.02,130.00 L 78.37,132.10 L 77.40,132.95 L 76.00,134.14 L 75.39,134.55 L 74.17,135.26 L 73.52,135.47 L 72.14,135.82 L 71.26,135.90 L 69.35,136.00 L 68.07,136.00 L 65.26,135.92 L 63.86,135.78 L 63.35,135.66 L 62.47,135.37 L 62.19,135.17 L 61.72,134.72 L 61.61,134.42 L 60.99,132.02 L 61.00,130.69 L 61.22,130.14 L 61.81,129.10 L 62.34,128.66 L 63.54,127.84 L 64.38,127.49 L 67.80,125.48 L 69.75,123.72 L 70.53,122.67 L 71.96,120.46 L 72.46,119.21 L 73.31,116.63 L 73.48,115.25 L 73.83,112.81 L 74.14,110.81 L 74.32,109.70 L 75.10,105.08 L 75.48,103.03 L 75.94,100.36 L 76.16,98.86 L 76.22,98.22 L 76.30,97.03 L 76.28,96.54 L 76.22,95.61 L 76.12,95.24 L 75.60,93.94 L 75.07,93.51 L 73.83,92.76 L 72.91,92.47 L 72.03,92.01 L 71.59,91.55 L 71.44,91.24 L 71.18,90.55 L 71.10,90.10 L 71.00,89.14 L 71.00,88.54 L 71.26,86.40 L 71.72,85.35 L 72.11,85.00 L 73.02,84.39 L 73.67,84.23 L 75.11,84.00 L 76.06,84.00 L 77.76,83.41 L 78.82,82.46 L 79.29,81.74 L 80.19,80.16 L 80.55,79.17 L 81.20,77.06 L 81.41,75.85 L 82.30,72.91 L 82.70,72.07 L 82.90,71.74 L 83.32,71.15 L 83.53,70.98 L 84.57,69.73 L 85.00,68.82 L 85.00,68.46 L 85.36,67.82 L 85.92,67.31 L 86.32,67.04 L 88.27,65.92 L 89.51,65.44 L 94.25,64.29 L 97.18,64.19 M 93.71,67.19 L 93.07,67.24 L 91.89,67.53 L 91.31,67.71 L 90.24,68.25 L 89.72,68.55 L 88.75,69.35 L 88.28,69.78 L 87.40,70.84 L 86.97,71.41 L 86.18,72.75 L 85.79,73.45 L 85.06,75.08 L 84.03,77.85 L 83.73,78.77 L 83.19,80.32 L 82.93,81.05 L 82.45,82.24 L 82.21,82.79 L 81.73,83.67 L 81.49,84.07 L 80.97,84.68 L 80.44,85.24 L 79.06,85.74 L 76.18,85.98 L 75.46,85.99 L 74.46,86.07 L 74.03,86.13 L 73.50,86.39 L 73.29,86.55 L 73.13,87.08 L 73.18,88.24 L 73.24,88.65 L 73.49,89.30 L 73.65,89.61 L 74.12,90.09 L 74.39,90.31 L 75.11,90.64 L 76.50,91.00 L 77.41,91.16 L 78.65,91.79 L 78.92,91.99 L 79.31,92.51 L 79.49,92.80 L 79.71,93.53 L 79.80,93.93 L 79.86,94.90 L 79.87,95.42 L 79.77,96.68 L 79.71,97.35 L 79.47,98.92 L 78.95,101.69 L 78.79,102.49 L 78.40,104.54 L 78.20,105.61 L 77.77,108.00 L 77.56,109.20 L 77.14,111.63 L 76.58,115.00 L 76.37,116.30 L 75.97,118.50 L 75.77,119.54 L 75.33,121.27 L 75.10,122.09 L 74.57,123.43 L 74.28,124.07 L 73.59,125.11 L 73.22,125.60 L 72.32,126.42 L 71.83,126.81 L 70.64,127.49 L 70.01,127.82 L 68.49,128.43 L 65.75,129.37 L 65.27,129.53 L 64.51,130.35 L 64.00,131.90 L 64.00,132.32 L 64.24,133.03 L 64.41,133.35 L 65.02,133.88 L 65.37,134.12 L 66.37,134.48 L 68.37,134.88 L 68.49,134.90 L 69.09,134.65 L 69.44,134.48 L 70.41,133.92 L 70.93,133.60 L 72.14,132.81 L 72.76,132.39 L 74.10,131.43 L 74.80,130.92 L 75.99,129.92 L 76.56,129.41 L 77.54,128.31 L 78.00,127.73 L 78.82,126.38 L 79.21,125.65 L 79.91,123.90 L 80.25,122.95 L 80.90,120.65 L 81.23,119.41 L 81.87,116.40 L 82.20,114.79 L 82.91,110.92 L 83.09,109.90 L 83.47,107.66 L 84.08,104.00 L 84.27,102.85 L 84.67,100.80 L 84.86,99.82 L 85.28,98.09 L 85.49,97.27 L 85.93,95.85 L 86.16,95.17 L 86.63,94.05 L 86.88,93.53 L 87.39,92.69 L 87.65,92.30 L 88.21,91.74 L 90.09,91.00 L 90.71,91.00 L 92.05,90.71 L 92.72,90.53 L 93.97,89.98 L 94.55,89.69 L 95.42,89.02 L 96.00,88.04 L 96.00,87.92 L 95.72,87.61 L 95.55,87.44 L 94.97,87.08 L 92.50,86.00 L 91.74,85.75 L 90.67,85.29 L 90.20,85.05 L 89.61,84.49 L 89.37,84.18 L 89.12,83.35 L 89.00,81.64 L 89.00,80.60 L 89.42,78.71 L 89.71,77.80 L 90.72,76.16 L 91.30,75.36 L 92.94,73.92 L 96.13,71.93 L 96.73,71.63 L 97.69,71.05 L 98.13,70.76 L 98.78,70.23 L 99.07,69.96 L 99.41,69.48 L 99.55,69.24 L 99.59,68.81 L 99.57,68.60 L 99.30,68.24 L 99.13,68.06 L 98.56,67.77 L 98.24,67.63 L 97.36,67.42 L 95.71,67.19 L 95.01,67.13 M 129.23,90.11 L 130.74,90.32 L 131.38,90.51 L 132.59,90.96 L 133.16,91.30 L 134.30,92.07 L 134.92,92.59 L 137.10,94.83 L 137.60,95.54 L 137.76,95.84 L 138.00,96.39 L 138.00,96.59 L 138.34,97.51 L 138.85,97.82 L 139.17,97.75 L 139.73,97.85 L 140.15,98.10 L 140.38,98.31 L 141.29,99.31 L 141.65,100.00 L 142.40,101.33 L 142.71,101.70 L 142.79,101.59 L 142.93,101.16 L 142.95,100.62 L 142.98,99.31 L 142.99,98.29 L 143.49,95.00 L 144.29,93.11 L 144.88,92.37 L 146.17,91.04 L 146.96,90.63 L 148.63,90.00 L 149.57,90.00 L 151.48,90.38 L 152.52,91.03 L 152.93,91.57 L 153.70,92.83 L 154.01,93.70 L 154.57,95.62 L 154.78,96.86 L 155.10,98.38 L 155.33,99.16 L 155.46,99.43 L 155.72,99.89 L 155.87,100.01 L 156.18,100.15 L 156.36,100.10 L 156.74,99.93 L 156.95,99.72 L 157.40,99.21 L 157.66,98.84 L 158.19,98.00 L 158.50,97.46 L 159.14,96.29 L 159.50,95.58 L 160.49,93.76 L 161.12,92.75 L 161.43,92.35 L 162.66,91.00 L 163.35,90.67 L 164.82,90.25 L 165.75,90.33 L 166.72,90.46 L 167.27,90.59 L 168.43,90.90 L 169.09,91.11 L 171.43,91.95 L 172.48,92.49 L 172.81,92.81 L 173.36,93.51 L 173.51,93.99 L 173.74,95.03 L 173.81,95.75 L 174.05,97.16 L 174.29,97.90 L 174.44,98.16 L 174.75,98.62 L 174.94,98.74 L 175.31,98.92 L 175.51,98.91 L 175.93,98.82 L 176.14,98.67 L 176.57,98.30 L 176.79,98.02 L 177.21,97.38 L 177.42,96.96 L 177.82,96.05 L 178.00,95.49 L 179.40,92.71 L 179.97,91.92 L 180.27,91.62 L 180.85,91.08 L 181.12,90.94 L 182.26,90.57 L 183.25,90.43 L 183.81,90.40 L 186.23,90.41 L 187.44,90.57 L 189.80,90.96 L 190.63,91.26 L 191.39,91.58 L 191.63,91.75 L 192.00,92.12 L 192.00,92.31 L 192.25,92.90 L 192.69,92.71 L 193.08,92.32 L 194.53,91.62 L 195.63,91.61 L 196.14,91.80 L 197.12,92.30 L 197.46,92.69 L 198.00,93.57 L 198.00,93.65 L 197.47,92.90 L 196.00,92.43 L 195.37,92.43 L 194.53,92.90 L 194.00,94.21 L 194.00,94.77 L 194.53,95.53 L 196.00,96.00 L 196.55,96.00 L 196.07,96.17 L 195.55,96.21 L 194.44,96.23 L 193.78,96.13 L 191.89,96.39 L 190.55,97.05 L 189.88,97.59 L 188.58,98.80 L 187.98,99.57 L 186.84,101.20 L 186.39,102.15 L 184.20,106.73 L 182.98,109.38 L 182.50,110.49 L 181.61,112.59 L 181.29,113.42 L 180.73,114.95 L 180.57,115.50 L 180.08,116.46 L 179.51,117.21 L 179.15,117.61 L 177.48,119.21 L 176.52,119.86 L 174.30,121.08 L 172.89,121.55 L 172.23,121.63 L 170.96,121.68 L 170.38,121.56 L 169.26,121.20 L 168.77,120.88 L 167.85,120.14 L 167.47,119.64 L 166.77,118.54 L 166.52,117.86 L 166.07,116.41 L 165.96,115.57 L 165.80,113.81 L 165.84,112.81 L 165.80,111.26 L 165.66,110.47 L 165.55,110.20 L 165.29,109.75 L 165.12,109.65 L 164.74,109.52 L 164.52,109.58 L 164.05,109.77 L 163.78,109.99 L 163.23,110.51 L 162.93,110.89 L 162.31,111.72 L 161.98,112.25 L 161.31,113.40 L 160.96,114.09 L 158.93,117.39 L 158.18,118.43 L 157.81,118.87 L 157.11,119.68 L 156.81,119.96 L 155.68,120.93 L 155.14,121.24 L 154.06,121.74 L 153.49,121.82 L 152.31,121.87 L 151.64,121.73 L 150.22,121.36 L 149.38,121.02 L 147.96,119.90 L 147.19,118.66 L 146.88,117.79 L 146.33,115.89 L 146.13,114.67 L 145.78,112.07 L 145.69,110.50 L 145.26,108.30 L 144.78,107.42 L 144.51,107.30 L 143.96,107.29 L 143.73,107.63 L 143.30,108.57 L 143.19,109.42 L 142.72,110.71 L 142.11,111.70 L 141.69,112.24 L 139.70,114.48 L 138.45,115.57 L 135.82,117.69 L 134.51,118.50 L 133.21,119.26 L 132.61,119.53 L 131.43,120.01 L 130.92,120.12 L 126.72,120.47 L 124.02,120.13 L 122.72,119.67 L 120.17,118.57 L 118.94,117.73 L 116.52,115.85 L 115.36,114.63 L 113.99,113.15 L 113.24,112.32 L 112.95,111.95 L 111.96,110.62 L 111.72,110.02 L 111.38,108.79 L 111.38,108.05 L 111.48,106.42 L 111.63,105.27 L 112.57,100.46 L 113.47,97.60 L 114.04,96.39 L 115.26,94.14 L 115.95,93.30 L 117.40,91.81 L 118.18,91.40 L 119.67,90.86 L 120.97,90.54 L 121.71,90.41 L 124.87,90.00 L 126.37,90.00 M 148.56,93.00 L 147.58,93.44 L 146.99,94.75 L 146.99,95.04 L 147.08,96.33 L 147.14,97.08 L 147.33,99.09 L 147.43,100.16 L 147.69,102.61 L 147.82,103.87 L 148.11,106.51 L 148.26,107.83 L 148.56,110.37 L 148.71,111.61 L 148.99,113.80 L 149.12,114.83 L 149.34,116.39 L 149.58,117.75 L 149.67,118.05 L 150.01,118.49 L 150.20,118.69 L 150.72,118.93 L 151.27,119.12 L 152.71,118.95 L 153.45,118.78 L 154.98,117.95 L 155.72,117.46 L 156.96,116.06 L 157.53,115.25 L 158.87,112.94 L 160.54,109.56 L 160.90,108.69 L 161.75,107.43 L 162.19,106.88 L 163.18,106.25 L 163.70,106.01 L 164.81,106.02 L 166.60,106.77 L 166.75,106.87 L 167.07,107.40 L 167.23,107.71 L 167.55,108.57 L 168.27,111.89 L 168.42,112.99 L 168.86,114.80 L 169.10,115.64 L 169.72,116.92 L 170.04,117.50 L 170.81,118.24 L 171.21,118.55 L 172.09,118.76 L 172.55,118.80 L 173.53,118.48 L 174.03,118.25 L 175.08,117.38 L 175.61,116.88 L 176.70,115.47 L 178.35,112.75 L 179.11,111.31 L 181.02,107.75 L 181.49,106.87 L 182.39,105.22 L 183.56,103.09 L 184.32,101.71 L 185.31,99.34 L 185.71,98.23 L 185.97,96.48 L 186.01,95.68 L 185.53,94.64 L 185.37,94.43 L 184.90,94.16 L 183.99,94.00 L 183.64,94.00 L 182.96,94.26 L 182.61,94.44 L 181.93,95.08 L 181.59,95.45 L 180.89,96.48 L 179.79,98.50 L 179.19,99.73 L 177.70,101.84 L 177.33,102.31 L 176.63,103.00 L 175.73,103.59 L 175.18,103.76 L 174.07,103.52 L 173.53,103.31 L 172.57,102.43 L 172.12,101.93 L 171.47,100.61 L 171.03,98.33 L 171.02,97.35 L 170.78,95.84 L 170.62,95.16 L 170.06,94.20 L 169.74,93.77 L 168.80,93.28 L 166.91,93.00 L 166.28,93.00 L 165.30,93.20 L 164.83,93.35 L 164.00,94.03 L 163.59,94.46 L 162.69,95.85 L 162.45,96.26 L 161.91,97.24 L 161.00,99.00 L 160.46,100.08 L 159.50,101.75 L 159.04,102.52 L 158.21,103.61 L 157.81,104.09 L 157.06,104.67 L 155.99,105.00 L 155.31,105.00 L 154.48,104.48 L 154.00,102.87 L 154.00,102.57 L 153.91,101.73 L 153.85,101.28 L 153.66,100.22 L 152.84,96.87 L 152.61,96.10 L 152.17,94.97 L 151.94,94.47 L 151.44,93.79 L 151.18,93.49 L 150.54,93.17 L 149.34,93.00 M 107.49,80.50 L 106.68,80.71 L 106.32,80.87 L 105.74,81.63 L 105.46,82.11 L 104.93,83.74 L 104.79,84.22 L 104.49,85.39 L 103.99,87.50 L 103.55,89.42 L 102.68,92.88 L 102.49,93.65 L 102.15,94.87 L 101.80,96.00 L 101.72,96.21 L 101.48,97.25 L 101.35,97.86 L 101.03,99.56 L 100.86,100.46 L 100.51,102.58 L 99.98,106.00 L 99.81,107.17 L 99.42,109.40 L 99.23,110.47 L 98.82,112.36 L 98.62,113.24 L 98.25,114.57 L 97.78,115.71 L 97.52,116.04 L 97.31,116.88 L 97.51,118.01 L 97.74,118.38 L 98.84,118.74 L 99.44,118.86 L 100.84,118.78 L 101.52,118.69 L 102.62,118.25 L 102.84,118.12 L 103.14,117.81 L 103.25,117.65 L 103.26,117.27 L 103.22,117.10 L 103.29,116.34 L 103.34,115.90 L 103.56,114.71 L 104.63,110.27 L 105.07,108.68 L 105.98,104.73 L 106.19,103.75 L 106.55,101.90 L 106.95,99.50 L 107.05,98.81 L 107.37,97.15 L 107.54,96.29 L 107.97,94.45 L 108.20,93.53 L 108.68,91.73 L 109.42,89.33 L 109.70,88.52 L 110.13,87.09 L 110.32,86.41 L 110.59,85.22 L 110.70,84.65 L 110.80,83.69 L 110.83,83.23 L 110.76,82.49 L 110.65,81.79 L 109.92,80.97 L 108.04,80.50 M 136.42,98.57 L 136.22,98.68 L 135.90,99.11 L 135.76,99.35 L 135.57,100.03 L 135.50,100.40 L 135.46,101.32 L 135.61,102.95 L 135.81,104.23 L 135.65,106.58 L 134.52,109.96 L 134.13,110.72 L 133.50,111.73 L 133.19,112.16 L 132.52,112.63 L 132.16,112.81 L 131.20,112.87 L 129.15,112.64 L 128.41,112.52 L 127.20,112.45 L 126.63,112.45 L 125.61,112.65 L 125.11,112.78 L 124.12,113.29 L 122.48,114.45 L 121.92,114.90 L 121.14,115.62 L 120.80,115.94 L 120.47,116.44 L 120.35,116.66 L 120.43,116.99 L 121.00,117.34 L 124.00,118.36 L 124.50,118.54 L 125.81,118.61 L 126.51,118.60 L 128.15,118.31 L 129.01,118.12 L 130.92,117.50 L 131.90,117.14 L 134.00,116.19 L 134.71,115.84 L 135.83,115.11 L 136.35,114.72 L 137.20,113.73 L 137.60,113.19 L 138.32,111.76 L 139.44,108.87 L 139.67,108.20 L 140.04,107.08 L 140.22,106.56 L 140.48,105.68 L 140.71,104.85 L 140.85,103.67 L 140.87,103.13 L 140.58,102.21 L 139.69,100.65 L 139.38,100.17 L 138.76,99.45 L 138.46,99.13 L 137.89,98.72 L 137.61,98.55 L 137.10,98.43 L 136.85,98.41 M 125.59,92.00 L 123.95,92.12 L 123.19,92.21 L 121.94,92.64 L 121.33,92.91 L 120.10,93.82 L 117.88,95.88 L 117.03,96.73 L 115.84,98.08 L 115.32,98.72 L 114.66,99.90 L 114.39,100.50 L 114.13,101.86 L 114.00,104.45 L 114.00,105.74 L 114.30,108.32 L 114.40,108.92 L 114.63,109.95 L 115.04,111.07 L 115.32,111.60 L 115.74,112.30 L 115.94,112.59 L 116.33,112.86 L 116.54,112.94 L 117.10,112.85 L 117.42,112.77 L 118.36,112.41 L 118.66,112.30 L 119.07,111.91 L 119.25,111.67 L 119.45,110.96 L 119.52,110.55 L 119.52,109.39 L 119.32,107.04 L 119.20,106.02 L 119.11,104.49 L 119.09,103.79 L 119.26,102.71 L 119.38,102.21 L 119.85,101.34 L 120.98,100.02 L 121.40,99.60 L 122.19,98.99 L 122.58,98.72 L 123.36,98.40 L 123.77,98.27 L 124.65,98.21 L 126.16,98.38 L 127.23,98.60 L 129.13,98.33 L 129.60,98.21 L 130.57,97.75 L 132.11,96.76 L 132.80,96.25 L 133.69,95.52 L 134.07,95.19 L 134.37,94.69 L 134.46,94.46 L 134.23,94.03 L 133.36,93.27 L 133.12,93.10 L 132.29,92.78 L 131.84,92.63 L 130.68,92.37 L 126.69,92.00 M 123.65,100.15 L 123.23,100.25 L 122.46,100.51 L 122.15,100.73 L 121.58,101.23 L 121.32,101.58 L 120.21,103.90 L 119.94,105.53 L 120.03,106.29 L 120.35,107.78 L 120.72,108.38 L 121.61,109.47 L 122.25,109.78 L 123.88,110.32 L 124.87,110.40 L 126.93,110.43 L 127.97,110.28 L 129.99,109.86 L 130.83,109.51 L 132.34,108.71 L 132.75,108.20 L 133.64,106.77 L 133.99,105.86 L 134.04,105.43 L 134.05,104.57 L 133.94,104.18 L 133.65,103.41 L 133.38,103.05 L 132.78,102.37 L 132.37,102.08 L 131.48,101.51 L 130.93,101.27 L 129.75,100.82 L 129.07,100.65 L 127.62,100.35 L 126.81,100.25 L 124.73,100.11 M 197.24,95.71 L 196.87,95.89 L 196.76,95.93 L 197.33,95.60 Z" fill="rgb(233,252,252)" />
<path d="M 51.51,142.02 L 51.41,141.85 L 51.30,141.29 L 51.25,140.97 L 51.25,140.20 L 51.28,139.38 L 51.59,137.50 L 51.77,136.59 L 52.28,135.06 L 52.41,134.74 L 52.69,134.29 L 53.11,134.00 L 53.36,134.00 L 53.74,133.46 L 54.00,132.15 L 54.00,131.86 L 54.26,131.25 L 54.43,130.94 L 55.03,130.32 L 55.36,130.01 L 56.26,129.40 L 57.95,128.52 L 59.32,127.90 L 61.59,126.60 L 62.63,125.95 L 64.12,124.70 L 64.75,124.09 L 65.29,123.06 L 65.36,122.82 L 65.29,122.41 L 64.86,121.91 L 64.32,121.58 L 64.04,121.00 L 64.03,120.84 L 64.21,120.49 L 64.76,119.84 L 64.87,119.73 L 65.07,119.27 L 65.17,119.01 L 65.33,118.22 L 65.41,117.78 L 65.55,116.63 L 65.61,116.01 L 65.72,114.47 L 65.77,113.65 L 65.85,111.69 L 65.88,110.65 L 65.93,108.24 L 65.96,106.97 L 65.98,104.08 L 66.00,99.17 L 66.00,79.74 L 61.50,80.25 L 60.26,80.39 L 58.29,80.35 L 57.87,80.31 L 57.28,80.18 L 56.88,79.88 L 56.57,77.75 L 56.52,77.41 L 56.72,76.23 L 57.32,74.34 L 57.56,73.76 L 58.71,72.86 L 59.37,72.46 L 61.21,71.94 L 62.21,71.74 L 64.57,71.64 L 68.53,72.00 L 69.14,72.11 L 70.03,72.38 L 70.43,72.53 L 70.95,72.96 L 71.17,73.20 L 71.40,73.90 L 71.53,75.37 L 71.55,76.23 L 72.06,77.74 L 72.38,78.44 L 73.35,79.49 L 73.88,79.93 L 75.11,80.32 L 77.00,80.00 L 77.40,79.78 L 78.17,78.58 L 78.55,77.87 L 79.21,75.87 L 79.52,74.81 L 80.00,72.31 L 80.40,68.30 L 80.44,67.51 L 80.78,66.35 L 81.03,65.82 L 82.03,65.04 L 82.34,64.85 L 83.14,64.53 L 83.57,64.37 L 84.65,64.07 L 85.23,63.92 L 86.62,63.63 L 89.12,63.16 L 90.84,62.86 L 93.99,62.57 L 95.50,62.47 L 98.17,62.59 L 99.44,62.71 L 101.56,63.23 L 104.00,64.46 L 104.41,64.78 L 105.92,65.35 L 108.44,65.83 L 109.33,65.88 L 110.65,66.23 L 111.23,66.45 L 111.98,67.20 L 112.30,67.64 L 112.56,68.89 L 112.47,71.42 L 112.40,71.95 L 112.50,73.16 L 112.59,73.78 L 113.01,75.22 L 113.26,75.98 L 114.02,77.71 L 115.57,80.70 L 115.98,81.43 L 116.68,82.65 L 117.01,83.22 L 117.56,84.13 L 117.83,84.55 L 118.29,85.19 L 118.52,85.47 L 118.92,85.87 L 119.32,86.22 L 120.11,86.35 L 121.61,85.96 L 122.32,85.69 L 123.69,85.44 L 125.08,85.55 L 125.34,85.71 L 125.73,85.66 L 126.00,85.12 L 126.00,84.85 L 126.48,84.49 L 126.80,84.33 L 127.93,84.20 L 128.58,84.16 L 130.37,84.25 L 133.82,84.64 L 134.50,84.74 L 135.44,84.94 L 135.85,85.04 L 136.28,85.30 L 136.44,85.44 L 136.43,85.80 L 135.98,86.52 L 135.75,86.80 L 135.51,87.35 L 135.43,87.63 L 135.51,88.28 L 135.59,88.62 L 136.00,89.45 L 137.01,91.01 L 137.65,91.92 L 138.80,93.02 L 139.34,93.45 L 140.22,93.61 L 140.62,93.57 L 141.16,92.79 L 141.50,90.58 L 141.50,89.72 L 142.25,87.95 L 142.72,87.08 L 144.13,85.56 L 144.87,84.87 L 146.54,83.96 L 146.96,83.79 L 147.77,83.63 L 148.92,83.69 L 149.50,83.84 L 151.09,83.49 L 153.52,82.16 L 154.08,81.72 L 155.13,81.12 L 155.67,80.86 L 156.94,80.56 L 157.64,80.45 L 159.49,80.42 L 160.01,80.42 L 161.21,80.47 L 163.31,80.59 L 164.86,80.70 L 167.57,80.91 L 168.87,81.01 L 171.13,81.24 L 172.20,81.35 L 174.05,81.60 L 174.92,81.72 L 176.38,82.00 L 177.07,82.15 L 178.21,82.46 L 178.73,82.63 L 179.57,83.00 L 181.17,84.31 L 181.41,84.69 L 182.34,85.18 L 182.83,85.37 L 183.95,85.48 L 184.49,85.49 L 185.38,85.22 L 186.00,84.38 L 186.00,84.03 L 186.50,83.19 L 187.72,82.14 L 188.27,81.83 L 189.79,81.84 L 190.58,81.94 L 192.19,82.59 L 192.97,82.97 L 194.20,84.02 L 194.46,84.30 L 194.82,84.88 L 195.08,85.78 L 195.09,86.04 L 195.18,86.30 L 195.24,86.38 L 195.41,86.29 L 195.50,86.20 L 195.74,85.77 L 196.16,84.75 L 196.44,83.99 L 197.29,82.81 L 197.51,82.56 L 197.95,82.22 L 198.58,82.00 L 198.86,82.00 L 199.28,82.43 L 199.46,82.74 L 199.71,83.97 L 199.76,84.34 L 199.84,85.26 L 199.88,85.75 L 199.93,86.96 L 199.95,87.59 L 199.97,89.11 L 199.98,91.75 L 199.98,93.42 L 199.92,95.99 L 199.88,97.16 L 199.74,98.76 L 199.66,99.44 L 199.43,100.08 L 199.00,100.00 L 198.73,99.59 L 198.31,99.27 L 198.02,99.63 L 198.01,99.95 L 197.42,100.59 L 196.00,101.29 L 195.45,101.43 L 194.59,101.38 L 194.00,100.85 L 194.00,100.58 L 193.71,100.35 L 193.00,100.50 L 192.72,100.67 L 192.29,101.37 L 192.00,102.60 L 192.00,103.00 L 191.38,104.25 L 191.00,104.90 L 190.00,106.20 L 189.50,106.80 L 188.62,107.56 L 188.43,107.69 L 188.16,107.74 L 187.97,107.44 L 187.96,107.18 L 187.66,107.26 L 186.97,108.16 L 186.67,108.67 L 186.46,109.78 L 186.41,110.33 L 186.63,111.35 L 186.79,111.82 L 187.38,112.53 L 188.60,113.00 L 189.03,113.00 L 189.56,113.66 L 189.77,115.50 L 189.71,116.19 L 189.30,117.27 L 188.45,118.00 L 188.14,118.00 L 187.65,118.37 L 187.29,119.25 L 187.27,119.59 L 187.02,120.70 L 186.45,122.41 L 186.30,122.77 L 186.15,123.27 L 186.09,123.49 L 186.12,123.73 L 186.16,123.82 L 186.37,123.81 L 186.93,123.55 L 187.15,123.41 L 187.47,123.30 L 187.62,123.28 L 187.80,123.40 L 187.88,123.48 L 187.92,123.84 L 187.83,124.63 L 187.76,124.99 L 187.49,125.52 L 187.32,125.76 L 186.81,126.07 L 186.51,126.20 L 185.68,126.32 L 183.98,126.32 L 183.50,126.29 L 182.29,126.32 L 181.66,126.35 L 180.27,126.47 L 176.23,127.09 L 175.30,127.29 L 173.92,127.52 L 173.29,127.59 L 172.31,127.51 L 171.86,127.44 L 171.04,127.02 L 169.73,125.97 L 169.12,125.40 L 167.65,124.64 L 165.76,124.35 L 165.27,124.48 L 164.37,124.43 L 163.48,123.98 L 163.36,123.77 L 162.46,123.59 L 161.94,123.53 L 160.58,123.61 L 159.88,123.67 L 158.49,123.97 L 156.82,124.61 L 156.59,124.75 L 156.24,125.39 L 156.00,126.56 L 156.00,126.78 L 155.66,127.15 L 155.44,127.32 L 154.73,127.59 L 154.32,127.71 L 153.29,127.88 L 152.75,127.95 L 151.48,128.01 L 150.16,128.04 L 147.13,127.78 L 142.54,126.89 L 141.61,126.63 L 140.40,126.25 L 139.89,126.07 L 139.45,125.74 L 139.31,125.58 L 139.52,125.19 L 140.48,124.39 L 140.94,124.05 L 141.53,123.60 L 141.76,123.41 L 141.87,123.19 L 141.87,123.11 L 141.51,123.06 L 140.44,123.07 L 139.90,123.09 L 138.53,123.38 L 137.84,123.55 L 136.57,123.99 L 135.99,124.21 L 135.31,124.61 L 135.20,124.70 L 135.18,124.84 L 135.50,124.96 L 135.77,124.99 L 135.98,125.15 L 136.04,125.25 L 135.89,125.53 L 135.67,125.82 L 134.47,126.56 L 133.79,126.93 L 132.16,127.56 L 129.92,128.00 L 129.17,128.00 L 128.00,127.64 L 127.48,127.42 L 126.82,126.72 L 126.57,126.35 L 126.53,125.47 L 127.28,124.12 L 127.49,123.91 L 127.62,123.57 L 127.64,123.42 L 127.42,123.21 L 127.28,123.11 L 126.78,123.01 L 126.50,122.98 L 125.80,122.99 L 125.05,123.03 L 123.17,123.43 L 120.32,124.49 L 119.39,124.95 L 117.30,125.68 L 116.21,126.02 L 113.89,126.50 L 111.54,126.92 L 106.67,127.01 L 105.48,126.98 L 103.21,126.73 L 102.10,126.57 L 100.09,126.08 L 99.12,125.81 L 97.48,125.09 L 95.58,123.75 L 94.98,123.14 L 94.01,122.43 L 93.56,122.15 L 92.89,122.11 L 92.59,122.17 L 92.22,122.80 L 92.00,124.50 L 92.00,125.28 L 91.60,126.33 L 90.50,127.00 L 90.09,127.00 L 89.44,126.63 L 88.98,125.75 L 88.98,125.32 L 88.80,125.07 L 88.23,125.60 L 88.03,125.90 L 87.06,126.72 L 85.25,127.88 L 84.92,128.06 L 84.21,128.66 L 83.85,129.00 L 83.12,129.85 L 82.39,130.76 L 81.07,132.95 L 80.47,134.05 L 79.70,136.09 L 79.57,136.56 L 79.46,137.34 L 79.62,138.19 L 79.83,138.53 L 79.81,138.81 L 79.15,138.60 L 78.82,138.39 L 78.32,138.50 L 78.00,139.38 L 78.00,139.79 L 77.49,140.43 L 76.25,140.87 L 76.01,140.87 L 75.19,140.96 L 74.74,141.02 L 73.61,141.21 L 69.71,142.02 L 68.76,142.25 L 67.29,142.53 L 66.61,142.64 L 65.58,142.68 L 65.10,142.67 L 64.34,142.47 L 63.36,141.89 L 63.01,141.60 L 62.59,141.17 L 62.42,140.98 L 62.36,140.69 L 62.38,140.55 L 62.71,140.29 L 63.65,139.87 L 64.06,139.71 L 64.55,139.48 L 64.74,139.38 L 64.79,139.25 L 64.76,139.20 L 64.35,139.13 L 63.22,139.07 L 62.59,139.05 L 61.44,138.58 L 60.36,137.50 L 60.20,137.09 L 59.43,136.44 L 58.00,136.00 L 57.53,136.00 L 56.74,136.35 L 56.37,136.57 L 55.79,137.34 L 55.54,137.78 L 55.20,138.94 L 55.00,141.08 L 55.00,141.58 L 54.60,142.31 L 54.36,142.63 L 53.65,142.94 L 53.28,143.04 L 52.50,142.87 L 52.13,142.73 M 77.40,132.95 L 78.37,132.10 L 80.02,130.00 L 80.80,128.89 L 82.06,126.24 L 82.65,124.85 L 83.54,121.61 L 84.50,116.02 L 84.67,114.52 L 85.20,111.85 L 85.34,111.25 L 85.62,110.33 L 86.01,109.49 L 86.13,109.35 L 86.43,108.58 L 86.59,108.12 L 86.93,106.87 L 87.92,102.04 L 88.20,100.29 L 88.96,97.22 L 89.15,96.54 L 89.52,95.50 L 90.02,94.58 L 90.19,94.41 L 90.85,94.12 L 91.23,93.98 L 92.21,93.76 L 93.25,93.56 L 95.77,93.39 L 97.02,93.35 L 99.22,93.51 L 99.70,93.58 L 100.45,93.77 L 101.10,94.18 L 101.29,94.48 L 101.39,95.59 L 101.40,96.20 L 101.22,97.54 L 101.10,98.19 L 100.72,99.26 L 100.04,100.00 L 99.94,100.00 L 99.66,100.34 L 99.51,100.55 L 99.16,101.25 L 98.04,104.25 L 97.69,105.42 L 96.87,108.01 L 96.67,108.63 L 96.29,109.75 L 95.83,111.10 L 95.58,111.77 L 95.40,113.44 L 95.35,114.30 L 95.54,116.13 L 95.67,117.03 L 96.18,118.71 L 97.26,120.75 L 97.62,121.21 L 98.46,121.71 L 98.90,121.90 L 99.84,121.92 L 100.32,121.88 L 101.29,121.47 L 101.78,121.22 L 102.71,120.45 L 103.17,120.03 L 104.00,118.97 L 104.39,118.41 L 105.04,117.11 L 105.34,116.44 L 105.74,114.98 L 106.00,112.66 L 106.00,111.69 L 106.32,109.34 L 107.07,106.32 L 107.34,105.62 L 107.94,103.60 L 108.25,102.52 L 108.88,99.96 L 110.52,91.74 L 110.64,90.99 L 111.27,89.13 L 112.45,86.72 L 112.82,86.15 L 113.22,84.71 L 113.37,83.98 L 113.35,82.51 L 113.29,81.81 L 112.89,80.73 L 111.88,80.00 L 111.64,80.00 L 111.26,79.54 L 111.00,78.44 L 111.00,78.14 L 110.82,77.71 L 110.69,77.52 L 110.20,77.28 L 109.91,77.18 L 109.04,77.12 L 107.25,77.19 L 106.36,77.26 L 105.16,77.45 L 104.64,77.57 L 104.00,78.00 L 103.73,78.27 L 103.45,79.16 L 103.19,81.25 L 103.13,81.97 L 102.95,83.06 L 102.85,83.54 L 102.55,84.21 L 102.38,84.50 L 101.92,84.82 L 101.00,85.00 L 100.48,85.00 L 99.47,84.68 L 98.45,83.92 L 98.27,83.62 L 97.31,83.32 L 95.50,83.41 L 94.83,83.58 L 93.85,83.53 L 93.42,83.43 L 92.91,82.81 L 92.71,82.42 L 92.62,81.17 L 92.94,78.51 L 93.06,77.92 L 93.44,76.95 L 93.67,76.48 L 94.38,75.67 L 94.79,75.27 L 95.94,74.49 L 98.32,73.24 L 99.37,72.74 L 100.84,71.95 L 101.48,71.57 L 102.25,70.88 L 102.57,70.53 L 102.82,69.74 L 102.81,68.23 L 102.76,67.74 L 102.38,66.89 L 102.15,66.48 L 101.45,65.80 L 101.07,65.48 L 100.11,64.98 L 99.60,64.76 L 98.41,64.45 L 97.18,64.19 L 94.25,64.29 L 89.51,65.44 L 88.27,65.92 L 86.32,67.04 L 85.92,67.31 L 85.36,67.82 L 85.00,68.46 L 85.00,68.82 L 84.57,69.73 L 83.53,70.98 L 83.32,71.15 L 82.90,71.74 L 82.70,72.07 L 82.30,72.91 L 81.41,75.85 L 81.20,77.06 L 80.55,79.17 L 80.19,80.16 L 79.29,81.74 L 78.82,82.46 L 77.76,83.41 L 76.06,84.00 L 75.11,84.00 L 73.67,84.23 L 73.02,84.39 L 72.11,85.00 L 71.72,85.35 L 71.26,86.40 L 71.00,88.54 L 71.00,89.14 L 71.10,90.10 L 71.18,90.55 L 71.44,91.24 L 71.59,91.55 L 72.03,92.01 L 72.91,92.47 L 73.83,92.76 L 75.07,93.51 L 75.60,93.94 L 76.12,95.24 L 76.22,95.61 L 76.28,96.54 L 76.30,97.03 L 76.22,98.22 L 76.16,98.86 L 75.94,100.36 L 75.48,103.03 L 75.10,105.08 L 74.32,109.70 L 74.14,110.81 L 73.83,112.81 L 73.48,115.25 L 73.31,116.63 L 72.46,119.21 L 71.96,120.46 L 70.53,122.67 L 69.75,123.72 L 67.80,125.48 L 64.38,127.49 L 63.54,127.84 L 62.34,128.66 L 61.81,129.10 L 61.22,130.14 L 61.00,130.69 L 60.99,132.02 L 61.61,134.42 L 61.72,134.72 L 62.19,135.17 L 62.47,135.37 L 63.35,135.66 L 63.86,135.78 L 65.26,135.92 L 68.07,136.00 L 69.35,136.00 L 71.26,135.90 L 72.14,135.82 L 73.52,135.47 L 74.17,135.26 L 75.39,134.55 L 76.00,134.14 M 156.81,119.96 L 157.11,119.68 L 157.81,118.87 L 158.18,118.43 L 158.93,117.39 L 160.96,114.09 L 161.31,113.40 L 161.98,112.25 L 162.31,111.72 L 162.93,110.89 L 163.23,110.51 L 163.78,109.99 L 164.05,109.77 L 164.52,109.58 L 164.74,109.52 L 165.12,109.65 L 165.29,109.75 L 165.55,110.20 L 165.66,110.47 L 165.80,111.26 L 165.84,112.81 L 165.80,113.81 L 165.96,115.57 L 166.07,116.41 L 166.52,117.86 L 166.77,118.54 L 167.47,119.64 L 167.85,120.14 L 168.77,120.88 L 169.26,121.20 L 170.38,121.56 L 170.96,121.68 L 172.23,121.63 L 172.89,121.55 L 174.30,121.08 L 176.52,119.86 L 177.48,119.21 L 179.15,117.61 L 179.51,117.21 L 180.08,116.46 L 180.57,115.50 L 180.73,114.95 L 181.29,113.42 L 181.61,112.59 L 182.50,110.49 L 182.98,109.38 L 184.20,106.73 L 186.39,102.15 L 186.84,101.20 L 187.98,99.57 L 188.58,98.80 L 189.88,97.59 L 190.55,97.05 L 191.89,96.39 L 193.78,96.13 L 194.44,96.23 L 195.55,96.21 L 196.07,96.17 L 196.87,95.89 L 197.24,95.71 L 197.71,95.18 L 198.00,94.12 L 198.00,93.57 L 197.46,92.69 L 197.12,92.30 L 196.14,91.80 L 195.63,91.61 L 194.53,91.62 L 193.08,92.32 L 192.69,92.71 L 192.25,92.90 L 192.00,92.31 L 192.00,92.12 L 191.63,91.75 L 191.39,91.58 L 190.63,91.26 L 189.80,90.96 L 187.44,90.57 L 186.23,90.41 L 183.81,90.40 L 183.25,90.43 L 182.26,90.57 L 181.12,90.94 L 180.85,91.08 L 180.27,91.62 L 179.97,91.92 L 179.40,92.71 L 178.00,95.49 L 177.82,96.05 L 177.42,96.96 L 177.21,97.38 L 176.79,98.02 L 176.57,98.30 L 176.14,98.67 L 175.93,98.82 L 175.51,98.91 L 175.31,98.92 L 174.94,98.74 L 174.75,98.62 L 174.44,98.16 L 174.29,97.90 L 174.05,97.16 L 173.81,95.75 L 173.74,95.03 L 173.51,93.99 L 173.36,93.51 L 172.81,92.81 L 172.48,92.49 L 171.43,91.95 L 169.09,91.11 L 168.43,90.90 L 167.27,90.59 L 166.72,90.46 L 165.75,90.33 L 164.82,90.25 L 163.35,90.67 L 162.66,91.00 L 161.43,92.35 L 161.12,92.75 L 160.49,93.76 L 159.50,95.58 L 159.14,96.29 L 158.50,97.46 L 158.19,98.00 L 157.66,98.84 L 157.40,99.21 L 156.95,99.72 L 156.74,99.93 L 156.36,100.10 L 156.18,100.15 L 155.87,100.01 L 155.72,99.89 L 155.46,99.43 L 155.33,99.16 L 155.10,98.38 L 154.78,96.86 L 154.57,95.62 L 154.01,93.70 L 153.70,92.83 L 152.93,91.57 L 152.52,91.03 L 151.48,90.38 L 149.57,90.00 L 148.63,90.00 L 146.96,90.63 L 146.17,91.04 L 144.88,92.37 L 144.29,93.11 L 143.49,95.00 L 142.99,98.29 L 142.98,99.31 L 142.95,100.62 L 142.93,101.16 L 142.79,101.59 L 142.71,101.70 L 142.40,101.33 L 141.65,100.00 L 141.29,99.31 L 140.38,98.31 L 140.15,98.10 L 139.73,97.85 L 139.17,97.75 L 138.85,97.82 L 138.34,97.51 L 138.00,96.59 L 138.00,96.39 L 137.76,95.84 L 137.60,95.54 L 137.10,94.83 L 134.92,92.59 L 134.30,92.07 L 133.16,91.30 L 132.59,90.96 L 131.38,90.51 L 130.74,90.32 L 129.23,90.11 L 126.37,90.00 L 124.87,90.00 L 121.71,90.41 L 120.97,90.54 L 119.67,90.86 L 118.18,91.40 L 117.40,91.81 L 115.95,93.30 L 115.26,94.14 L 114.04,96.39 L 113.47,97.60 L 112.57,100.46 L 111.63,105.27 L 111.48,106.42 L 111.38,108.05 L 111.38,108.79 L 111.72,110.02 L 111.96,110.62 L 112.95,111.95 L 113.24,112.32 L 113.99,113.15 L 115.36,114.63 L 116.52,115.85 L 118.94,117.73 L 120.17,118.57 L 122.72,119.67 L 124.02,120.13 L 126.72,120.47 L 130.92,120.12 L 131.43,120.01 L 132.61,119.53 L 133.21,119.26 L 134.51,118.50 L 135.82,117.69 L 138.45,115.57 L 139.70,114.48 L 141.69,112.24 L 142.11,111.70 L 142.72,110.71 L 143.19,109.42 L 143.30,108.57 L 143.73,107.63 L 143.96,107.29 L 144.51,107.30 L 144.78,107.42 L 145.26,108.30 L 145.69,110.50 L 145.78,112.07 L 146.13,114.67 L 146.33,115.89 L 146.88,117.79 L 147.19,118.66 L 147.96,119.90 L 149.38,121.02 L 150.22,121.36 L 151.64,121.73 L 152.31,121.87 L 153.49,121.82 L 154.06,121.74 L 155.14,121.24 L 155.68,120.93 M 91.98,115.58 L 91.99,115.06 L 91.80,114.42 L 91.34,114.32 L 91.16,114.51 L 90.49,114.47 L 89.35,113.88 L 89.08,113.65 L 88.60,113.44 L 88.38,113.37 L 88.01,113.44 L 87.66,113.56 L 87.34,114.41 L 87.25,114.91 L 87.48,116.17 L 88.56,118.06 L 89.05,118.61 L 89.92,119.10 L 90.33,119.26 L 91.00,119.00 L 91.30,118.78 L 91.71,117.81 L 91.88,117.23 M 70.83,106.09 L 70.80,105.27 L 70.70,104.15 L 70.64,103.67 L 70.46,103.16 L 70.35,102.97 L 70.03,102.99 L 69.34,103.52 L 68.88,103.98 L 68.32,105.31 L 68.10,106.01 L 68.01,107.45 L 68.03,108.15 L 68.41,109.25 L 68.53,109.48 L 68.87,109.80 L 69.49,110.00 L 69.77,110.00 L 70.18,109.79 L 70.37,109.65 L 70.62,109.12 L 70.72,108.81 L 70.82,107.91 L 70.86,107.41 M 16.86,111.77 L 16.92,110.22 L 17.05,107.62 L 17.12,106.39 L 17.31,104.38 L 17.41,103.45 L 17.67,101.96 L 17.82,101.27 L 18.19,100.23 L 18.40,99.76 L 18.93,99.09 L 19.21,98.79 L 19.92,98.41 L 20.29,98.25 L 21.21,98.08 L 22.87,98.00 L 23.87,98.00 L 25.37,98.23 L 26.03,98.40 L 26.94,99.05 L 27.33,99.43 L 27.76,100.60 L 28.00,103.07 L 28.00,103.73 L 27.46,104.52 L 25.75,104.97 L 25.10,104.97 L 24.02,104.99 L 23.51,105.00 L 22.67,105.06 L 21.89,105.14 L 20.94,105.49 L 20.54,105.71 L 20.17,106.45 L 20.00,108.17 L 20.00,108.95 L 20.29,110.20 L 20.38,110.47 L 20.61,110.85 L 21.00,111.12 L 22.27,111.28 L 24.20,111.75 L 25.08,112.01 L 26.34,112.75 L 26.90,113.17 L 27.61,114.29 L 28.19,116.49 L 28.29,117.35 L 28.35,118.47 L 28.35,118.95 L 28.02,119.48 L 27.79,119.69 L 26.84,119.83 L 24.47,119.84 L 23.34,119.81 L 21.00,119.96 L 20.45,120.01 L 19.50,120.13 L 18.43,120.37 L 17.97,120.51 L 17.36,120.49 L 17.11,120.39 L 16.83,119.55 L 16.78,119.27 L 16.72,118.47 L 16.70,118.03 L 16.70,116.87 L 16.71,116.24 L 16.75,114.67 L 16.78,113.82 M 34.00,111.73 L 34.00,110.35 L 34.06,107.97 L 34.11,106.84 L 34.28,104.93 L 34.38,104.02 L 34.67,102.53 L 34.84,101.83 L 35.28,100.72 L 35.52,100.21 L 36.13,99.43 L 36.46,99.08 L 37.25,98.59 L 37.68,98.38 L 38.68,98.14 L 40.45,98.00 L 41.31,98.00 L 42.61,98.26 L 43.19,98.44 L 44.01,99.12 L 44.36,99.52 L 44.77,100.71 L 45.00,103.16 L 45.00,103.55 L 44.87,104.11 L 44.78,104.37 L 44.43,104.70 L 44.22,104.84 L 43.58,104.96 L 42.25,104.97 L 41.08,104.89 L 39.45,104.87 L 38.74,104.89 L 37.87,105.14 L 37.50,105.31 L 37.16,105.94 L 37.00,107.42 L 37.00,108.50 L 37.20,110.07 L 37.34,110.77 L 37.90,111.66 L 38.24,112.04 L 39.29,112.39 L 41.55,112.44 L 42.38,112.37 L 43.49,112.36 L 43.97,112.38 L 44.52,112.68 L 44.74,112.89 L 44.93,113.68 L 45.00,115.61 L 45.00,116.54 L 44.85,117.80 L 44.73,118.36 L 44.05,119.07 L 43.83,119.23 L 43.23,119.48 L 42.89,119.61 L 42.03,119.82 L 41.56,119.92 L 40.40,120.11 L 38.25,120.43 L 34.00,121.02 L 34.00,111.73 M 8.64,118.50 L 8.47,118.07 L 8.41,117.08 L 8.41,116.57 L 8.63,115.61 L 8.77,115.15 L 9.20,114.46 L 9.99,114.00 L 10.10,114.00 L 10.33,114.24 L 10.45,114.39 L 10.67,114.88 L 11.21,117.00 L 11.33,117.79 L 11.16,118.96 L 11.02,119.47 L 10.50,119.99 L 10.22,120.15 L 9.56,119.89 L 9.23,119.66 M 51.00,108.45 L 51.00,107.09 L 50.99,104.81 L 50.98,103.74 L 50.94,101.98 L 50.92,101.16 L 50.84,99.84 L 50.79,99.22 L 50.64,98.23 L 50.48,97.31 L 49.91,96.09 L 48.55,94.45 L 47.78,93.69 L 45.75,92.68 L 44.69,92.26 L 42.35,91.97 L 41.18,91.92 L 38.88,92.37 L 35.88,93.89 L 35.31,94.36 L 34.51,94.94 L 34.14,95.17 L 33.54,95.29 L 33.23,95.29 L 32.55,94.94 L 31.14,93.89 L 30.41,93.32 L 28.47,92.57 L 27.45,92.26 L 25.22,92.06 L 24.11,92.03 L 21.96,92.38 L 19.22,93.56 L 18.60,93.99 L 17.64,94.36 L 17.44,94.40 L 17.17,94.35 L 17.00,94.06 L 17.00,93.91 L 16.76,93.65 L 16.61,93.52 L 16.12,93.31 L 14.00,93.00 L 13.48,93.00 L 12.66,93.09 L 12.28,93.16 L 11.72,93.38 L 11.48,93.51 L 11.18,93.88 L 11.00,94.58 L 11.00,95.14 L 10.61,95.67 L 10.38,95.84 L 9.74,95.71 L 9.41,95.58 L 8.81,94.90 L 8.24,93.42 L 8.17,92.84 L 8.18,91.85 L 8.23,91.38 L 8.56,90.61 L 8.78,90.24 L 9.52,89.66 L 9.95,89.39 L 11.20,88.97 L 11.90,88.78 L 13.75,88.50 L 14.76,88.38 L 17.30,88.21 L 18.67,88.14 L 22.00,88.06 L 28.00,88.01 L 29.60,88.01 L 32.48,88.02 L 33.87,88.03 L 36.34,88.07 L 37.53,88.09 L 39.64,88.16 L 40.65,88.20 L 42.43,88.31 L 43.29,88.36 L 44.79,88.51 L 45.51,88.58 L 46.78,88.76 L 49.85,89.45 L 50.40,89.63 L 51.45,89.58 L 52.50,88.99 L 52.75,88.60 L 53.34,88.42 L 54.57,89.05 L 54.84,89.28 L 55.22,90.09 L 55.38,90.58 L 55.55,92.11 L 55.59,92.54 L 55.61,93.60 L 55.62,94.16 L 55.61,95.48 L 55.59,96.18 L 55.53,97.80 L 55.40,100.60 L 55.33,101.84 L 55.23,103.89 L 55.19,104.84 L 55.14,106.39 L 55.12,107.11 L 55.12,108.23 L 55.14,108.75 L 55.21,109.50 L 55.26,109.85 L 55.41,110.31 L 55.50,110.52 L 55.73,110.76 L 56.82,111.00 L 57.23,111.00 L 57.83,111.18 L 58.10,111.32 L 58.49,111.86 L 58.66,112.20 L 58.90,113.24 L 59.16,115.50 L 59.51,120.00 L 55.26,120.00 L 51.00,120.00 L 51.00,108.45 M 122.25,109.78 L 121.61,109.47 L 120.72,108.38 L 120.35,107.78 L 120.03,106.29 L 119.94,105.53 L 120.21,103.90 L 121.32,101.58 L 121.58,101.23 L 122.15,100.73 L 122.46,100.51 L 123.23,100.25 L 123.65,100.15 L 124.73,100.11 L 126.81,100.25 L 127.62,100.35 L 129.07,100.65 L 129.75,100.82 L 130.93,101.27 L 131.48,101.51 L 132.37,102.08 L 132.78,102.37 L 133.38,103.05 L 133.65,103.41 L 133.94,104.18 L 134.05,104.57 L 134.04,105.43 L 133.99,105.86 L 133.64,106.77 L 132.75,108.20 L 132.34,108.71 L 130.83,109.51 L 129.99,109.86 L 127.97,110.28 L 126.93,110.43 L 124.87,110.40 L 123.88,110.32 Z" fill="rgb(250,252,251)" />
</g>
</svg>