<?xml version="1.0" standalone="no"?>
<!DOCTYPE svg PUBLIC "-//W3C//DTD SVG 20010904//EN"
 "http://www.w3.org/TR/2001/REC-SVG-20010904/DTD/svg10.dtd">
<svg version="1.0" xmlns="http://www.w3.org/2000/svg"
 width="2048.000000pt" height="2048.000000pt" viewBox="0 0 2048.000000 2048.000000"
 preserveAspectRatio="xMidYMid meet">

<g transform="translate(0.000000,2048.000000) scale(0.100000,-0.100000)"
fill="#000000" stroke="none">
<path d="M13770 4225 l0 -4225 1738 2 1737 3 79 23 c310 90 521 301 609 611
l22 76 3 3073 2 3072 -1550 0 -1550 0 0 75 0 75 -60 0 -60 0 0 125 0 125 -80
0 -80 0 0 100 0 100 -65 0 -65 0 0 100 0 100 -65 0 -65 0 0 95 0 95 -30 0 -30
0 0 100 0 100 -40 0 -40 0 0 100 0 100 -105 0 -105 0 0 100 0 100 -100 0 -100
0 0 -4225z"/>
</g>
</svg>
