<svg xmlns="http://www.w3.org/2000/svg" width="1024" height="1024" viewBox="0 0 1024 1024">
<g>
<path d="M 897.47,260.88 L 897.47,269.76 L 897.47,274.24 L 897.48,283.46 L 897.48,288.11 L 897.48,297.68 L 897.48,302.50 L 897.49,312.42 L 897.49,317.42 L 897.49,327.70 L 897.49,332.88 L 897.49,343.52 L 897.49,348.88 L 897.49,359.89 L 897.49,365.45 L 897.50,376.83 L 897.50,382.57 L 897.50,394.35 L 897.50,400.28 L 897.50,412.44 L 897.50,418.57 L 897.50,431.13 L 897.50,437.46 L 897.50,450.42 L 897.50,456.95 L 897.50,470.32 L 897.50,477.06 L 897.50,490.85 L 897.50,512.00 L 897.50,519.16 L 897.50,533.15 L 897.50,540.10 L 897.50,553.68 L 897.50,560.42 L 897.50,573.58 L 897.50,580.11 L 897.50,592.87 L 897.50,599.20 L 897.50,611.56 L 897.50,617.69 L 897.50,629.65 L 897.50,635.59 L 897.50,647.17 L 897.49,652.91 L 897.49,664.11 L 897.49,669.66 L 897.49,680.48 L 897.49,685.85 L 897.49,696.30 L 897.49,701.49 L 897.49,711.58 L 897.48,716.58 L 897.48,726.32 L 897.48,731.15 L 897.48,740.54 L 897.48,745.19 L 897.47,754.24 L 897.47,758.73 L 897.47,767.44 L 897.47,771.76 L 897.46,780.14 L 897.46,784.29 L 897.45,792.35 L 897.45,796.35 L 897.45,804.09 L 897.44,807.93 L 897.44,815.36 L 897.44,819.04 L 897.43,826.18 L 897.43,829.70 L 897.42,836.54 L 897.42,839.92 L 897.41,846.47 L 897.41,849.71 L 897.40,855.97 L 897.39,859.06 L 897.38,865.05 L 897.38,868.00 L 897.37,873.72 L 897.37,876.54 L 897.36,881.99 L 897.35,887.37 L 897.32,897.37 L 897.31,902.25 L 897.29,911.27 L 897.27,915.67 L 897.25,923.77 L 897.23,927.71 L 897.20,934.93 L 897.18,938.44 L 897.15,944.85 L 897.13,947.96 L 897.09,953.60 L 897.07,956.32 L 897.03,961.24 L 897.00,963.62 L 896.96,967.87 L 896.93,969.92 L 896.88,973.56 L 896.85,975.31 L 896.80,978.39 L 896.77,979.86 L 896.71,982.42 L 896.68,983.65 L 896.61,985.75 L 896.58,986.75 L 896.51,988.45 L 896.47,989.25 L 896.39,990.58 L 896.35,991.21 L 896.27,992.25 L 896.19,993.21 L 896.00,994.44 L 895.70,995.66 L 895.22,997.03 L 893.99,999.72 L 893.34,1001.06 L 891.78,1003.65 L 890.97,1004.93 L 889.11,1007.38 L 888.16,1008.59 L 886.04,1010.87 L 884.96,1011.99 L 882.62,1014.07 L 881.42,1015.08 L 878.89,1016.91 L 877.60,1017.80 L 874.90,1019.36 L 870.72,1021.36 L 865.50,1023.50 L 687.67,1023.59 L 688.33,900.83 L 688.40,887.89 L 688.45,879.03 L 688.47,874.51 L 688.56,856.22 L 688.61,846.89 L 688.70,828.15 L 688.74,818.80 L 688.82,800.15 L 688.86,791.06 L 688.90,782.01 L 688.92,777.58 L 688.95,768.78 L 688.97,764.49 L 689.00,756.01 L 689.02,751.91 L 689.05,743.81 L 689.06,739.93 L 689.09,732.28 L 689.10,728.65 L 689.12,721.53 L 689.14,718.18 L 689.16,711.65 L 689.16,708.63 L 689.18,702.75 L 689.19,700.08 L 689.24,684.67 L 689.28,675.05 L 689.31,670.63 L 689.34,666.28 L 689.35,664.21 L 689.38,660.15 L 689.40,658.24 L 689.43,654.50 L 689.45,652.75 L 689.48,649.35 L 689.50,647.79 L 689.54,644.75 L 689.56,643.37 L 689.60,640.72 L 689.62,639.55 L 689.66,637.31 L 689.68,636.36 L 689.72,634.55 L 689.74,633.82 L 689.78,632.48 L 689.81,631.98 L 689.85,631.12 L 689.87,630.88 L 689.91,630.52 L 689.94,630.54 L 689.98,630.71 L 690.00,631.00 L 690.63,639.50 L 690.81,629.75 L 691.00,620.00 L 695.43,620.00 L 699.32,620.29 L 700.56,620.48 L 701.09,620.60 L 702.08,620.84 L 702.43,620.98 L 703.76,621.63 L 704.36,622.16 L 704.54,622.54 L 704.84,623.38 L 704.91,623.98 L 705.00,625.32 L 705.00,626.23 L 705.10,628.30 L 705.28,629.40 L 705.43,629.83 L 705.78,630.63 L 706.03,630.94 L 706.58,631.50 L 706.93,631.73 L 708.41,633.51 L 709.09,635.23 L 709.18,636.14 L 709.49,637.73 L 709.84,638.62 L 710.10,639.00 L 710.69,639.73 L 711.08,640.06 L 711.95,640.70 L 712.50,641.00 L 714.09,642.04 L 714.82,642.79 L 715.07,643.29 L 715.49,644.37 L 715.64,645.14 L 715.89,646.83 L 716.00,648.00 L 716.36,650.86 L 716.68,652.22 L 716.93,652.71 L 717.49,653.60 L 717.91,653.96 L 718.84,654.64 L 719.50,655.00 L 721.14,656.07 L 721.86,656.82 L 722.08,657.35 L 722.45,658.53 L 722.55,659.40 L 722.65,660.34 L 722.69,660.90 L 722.76,662.09 L 722.80,662.79 L 723.04,666.12 L 723.30,667.68 L 723.52,668.25 L 724.04,669.28 L 724.44,669.70 L 725.34,670.53 L 725.99,670.99 L 728.23,673.31 L 729.08,675.13 L 729.19,676.17 L 729.92,678.64 L 730.31,679.31 L 730.54,679.57 L 731.01,680.03 L 731.25,680.15 L 734.75,681.85 L 735.46,682.43 L 735.90,683.00 L 736.08,683.36 L 736.72,684.95 L 736.81,685.83 L 737.77,688.70 L 739.07,690.34 L 740.06,691.04 L 741.53,692.25 L 742.21,693.05 L 742.43,693.49 L 742.79,694.43 L 742.88,695.01 L 743.00,696.27 L 743.00,701.00 L 818.50,701.00 L 828.72,701.00 L 835.09,701.01 L 838.07,701.01 L 843.88,701.02 L 846.58,701.03 L 851.85,701.05 L 854.28,701.06 L 859.02,701.08 L 861.21,701.09 L 865.44,701.12 L 867.37,701.14 L 871.12,701.17 L 872.82,701.19 L 876.10,701.23 L 877.57,701.25 L 880.40,701.30 L 881.66,701.33 L 884.06,701.38 L 885.10,701.41 L 887.09,701.47 L 887.94,701.51 L 889.54,701.58 L 890.20,701.61 L 891.42,701.69 L 891.90,701.73 L 892.78,701.82 L 893.09,701.86 L 893.63,701.96 L 893.78,702.01 L 894.00,702.11 L 894.00,702.17 L 894.20,702.79 L 894.50,702.84 L 894.69,702.65 L 895.13,701.85 L 895.41,700.90 L 895.53,700.13 L 895.77,698.38 L 895.88,697.12 L 895.99,695.78 L 896.04,695.00 L 896.14,693.35 L 896.19,692.41 L 896.28,690.42 L 896.32,689.29 L 896.41,686.94 L 896.45,685.61 L 896.53,682.85 L 896.56,681.31 L 896.64,678.12 L 896.67,676.34 L 896.74,672.68 L 896.77,670.66 L 896.83,666.49 L 896.86,664.21 L 896.91,659.50 L 896.94,656.94 L 896.99,651.67 L 897.01,648.81 L 897.06,642.94 L 897.08,639.77 L 897.12,633.27 L 897.14,629.77 L 897.17,622.61 L 897.19,618.76 L 897.22,610.90 L 897.24,606.69 L 897.27,598.10 L 897.28,593.52 L 897.30,584.16 L 897.31,579.18 L 897.33,569.03 L 897.34,563.64 L 897.36,552.66 L 897.37,546.85 L 897.39,535.01 L 897.39,528.76 L 897.40,516.02 L 897.41,509.31 L 897.42,495.65 L 897.42,488.46 L 897.43,473.84 L 897.44,466.16 L 897.44,450.55 L 897.45,442.37 L 897.45,425.73 L 897.45,417.02 L 897.45,408.25 L 897.46,403.76 L 897.46,394.71 L 897.46,390.08 L 897.46,380.76 L 897.46,376.00 L 897.46,366.40 L 897.46,361.50 L 897.46,347.03 L 897.46,337.60 L 897.47,333.00 L 897.47,323.85 L 897.47,319.38 L 897.47,310.52 L 897.47,306.19 L 897.47,297.60 L 897.47,293.40 L 897.47,285.08 L 897.47,281.02 L 897.47,265.05 L 897.47,257.45 L 897.47,256.88 M 150.10,1019.88 L 151.79,1020.60 L 155.23,1021.92 L 157.02,1022.40 L 157.37,1022.47 L 157.02,1022.40 L 155.23,1021.92 L 151.79,1020.60 L 150.10,1019.88 L 147.81,1018.63 M 140.93,1013.91 L 140.93,1013.91 L 140.62,1013.62 M 130.78,1001.07 L 131.69,1002.67 L 133.61,1005.80 L 134.71,1007.25 L 137.01,1010.09 L 137.01,1010.09 L 134.71,1007.25 L 133.61,1005.79 L 131.68,1002.67 L 130.78,1001.07 L 129.27,997.70 L 127.53,992.41 L 129.27,997.70 M 895.81,28.65 L 895.81,28.66 L 895.81,28.65 Z" fill="rgba(185,100,3,1)" />
<path d="M 689.06,280.63 L 689.65,280.72 L 690.03,280.83 L 690.86,281.07 L 691.33,281.25 L 693.37,282.06 L 694.45,282.59 L 696.60,283.73 L 697.50,284.34 L 698.96,285.39 L 700.11,286.26 L 700.72,286.75 L 703.22,288.77 L 704.25,289.68 L 707.21,292.03 L 708.04,292.57 L 708.36,292.74 L 708.92,293.00 L 709.06,293.00 L 709.77,293.24 L 710.49,293.63 L 710.93,293.90 L 712.90,295.23 L 713.95,296.08 L 715.88,297.84 L 716.91,299.05 L 717.32,299.73 L 718.10,301.15 L 718.44,302.01 L 719.09,303.84 L 719.41,304.97 L 721.12,309.78 L 721.76,311.22 L 722.07,311.80 L 722.68,312.86 L 722.94,313.19 L 724.37,315.75 L 725.07,317.72 L 725.16,318.53 L 725.99,320.94 L 727.00,322.19 L 727.64,322.52 L 730.04,323.90 L 731.27,324.83 L 731.71,325.31 L 732.47,326.29 L 732.68,326.81 L 733.00,327.86 L 733.00,328.42 L 733.34,330.36 L 733.88,331.41 L 734.31,331.80 L 735.26,332.49 L 735.88,332.69 L 737.21,333.00 L 738.00,333.00 L 740.45,333.39 L 741.60,334.09 L 741.98,334.74 L 742.33,335.43 L 742.46,335.86 L 742.69,336.79 L 742.77,337.34 L 742.91,338.52 L 742.95,339.21 L 743.00,340.66 L 743.00,341.50 L 743.09,343.99 L 743.24,345.52 L 743.35,346.18 L 743.59,347.41 L 743.73,347.86 L 744.03,348.63 L 744.20,348.80 L 744.58,348.96 L 745.04,349.07 L 745.39,349.11 L 746.16,349.21 L 746.67,349.25 L 747.76,349.33 L 748.44,349.37 L 749.89,349.45 L 750.74,349.48 L 752.55,349.55 L 753.60,349.58 L 755.80,349.64 L 757.05,349.67 L 759.66,349.72 L 761.12,349.74 L 764.16,349.79 L 765.84,349.81 L 769.32,349.84 L 771.24,349.86 L 775.20,349.89 L 777.36,349.91 L 781.80,349.93 L 784.21,349.94 L 789.17,349.96 L 791.85,349.97 L 797.33,349.98 L 800.28,349.99 L 806.32,349.99 L 809.56,350.00 L 816.17,350.00 L 819.70,350.00 L 830.22,350.00 L 836.74,350.01 L 839.76,350.01 L 845.66,350.02 L 848.38,350.03 L 853.67,350.05 L 856.10,350.06 L 860.82,350.08 L 862.97,350.09 L 867.15,350.12 L 869.04,350.13 L 872.69,350.17 L 874.33,350.19 L 877.49,350.23 L 878.89,350.25 L 881.58,350.30 L 882.76,350.33 L 885.02,350.39 L 885.99,350.42 L 887.83,350.49 L 888.61,350.52 L 890.07,350.60 L 890.66,350.64 L 891.76,350.72 L 892.19,350.77 L 892.96,350.86 L 893.23,350.91 L 893.70,351.02 L 893.82,351.07 L 894.01,351.19 L 894.02,351.25 L 894.27,351.81 L 894.68,351.50 L 895.00,351.00 L 895.50,350.28 L 895.73,350.04 L 895.80,350.03 L 895.91,350.11 L 895.94,350.26 L 895.98,350.64 L 895.98,350.95 L 896.25,351.79 L 896.67,351.73 L 897.02,351.38 L 897.14,350.65 L 897.21,349.54 L 897.25,348.69 L 897.32,346.77 L 897.35,345.50 L 897.42,342.76 L 897.44,341.09 L 897.46,339.82 L 897.46,347.03 L 897.46,361.50 L 897.46,366.40 L 897.46,376.00 L 897.46,380.76 L 897.46,390.08 L 897.46,394.71 L 897.46,403.76 L 897.45,408.25 L 897.45,417.02 L 897.45,425.73 L 897.45,442.37 L 897.44,450.55 L 897.44,466.16 L 897.43,473.84 L 897.42,488.46 L 897.42,495.65 L 897.41,509.31 L 897.40,516.02 L 897.39,528.76 L 897.39,535.01 L 897.37,546.85 L 897.36,552.66 L 897.34,563.64 L 897.33,569.03 L 897.31,579.18 L 897.30,584.16 L 897.28,593.52 L 897.27,598.10 L 897.24,606.69 L 897.22,610.90 L 897.19,618.76 L 897.17,622.61 L 897.14,629.77 L 897.12,633.27 L 897.08,639.77 L 897.06,642.94 L 897.01,648.81 L 896.99,651.67 L 896.94,656.94 L 896.91,659.50 L 896.86,664.21 L 896.83,666.49 L 896.77,670.66 L 896.74,672.68 L 896.67,676.34 L 896.64,678.12 L 896.56,681.31 L 896.53,682.85 L 896.45,685.61 L 896.41,686.94 L 896.32,689.29 L 896.28,690.42 L 896.19,692.41 L 896.14,693.35 L 896.04,695.00 L 895.99,695.78 L 895.88,697.12 L 895.77,698.38 L 895.53,700.13 L 895.41,700.90 L 895.13,701.85 L 894.69,702.65 L 894.50,702.84 L 894.20,702.79 L 894.00,702.17 L 894.00,702.11 L 893.78,702.01 L 893.63,701.96 L 893.09,701.86 L 892.78,701.82 L 891.90,701.73 L 891.42,701.69 L 890.20,701.61 L 889.54,701.58 L 887.94,701.51 L 887.09,701.47 L 885.10,701.41 L 884.06,701.38 L 881.66,701.33 L 880.40,701.30 L 877.57,701.25 L 876.10,701.23 L 872.82,701.19 L 871.12,701.17 L 867.37,701.14 L 865.44,701.12 L 861.21,701.09 L 859.02,701.08 L 854.28,701.06 L 851.85,701.05 L 846.58,701.03 L 843.88,701.02 L 838.07,701.01 L 835.09,701.01 L 828.72,701.00 L 818.50,701.00 L 743.00,701.00 L 743.00,696.27 L 742.88,695.01 L 742.79,694.43 L 742.43,693.49 L 742.21,693.05 L 741.53,692.25 L 740.06,691.04 L 739.07,690.34 L 737.77,688.70 L 736.81,685.83 L 736.72,684.95 L 736.08,683.36 L 735.90,683.00 L 735.46,682.43 L 734.75,681.85 L 731.25,680.15 L 731.01,680.03 L 730.54,679.57 L 730.31,679.31 L 729.92,678.64 L 729.19,676.17 L 729.08,675.13 L 728.23,673.31 L 725.99,670.99 L 725.34,670.53 L 724.44,669.70 L 724.04,669.28 L 723.52,668.25 L 723.30,667.68 L 723.04,666.12 L 722.80,662.79 L 722.76,662.09 L 722.69,660.90 L 722.65,660.34 L 722.55,659.40 L 722.45,658.53 L 722.08,657.35 L 721.86,656.82 L 721.14,656.07 L 719.50,655.00 L 718.84,654.64 L 717.91,653.96 L 717.49,653.60 L 716.93,652.71 L 716.68,652.22 L 716.36,650.86 L 716.00,648.00 L 715.89,646.83 L 715.64,645.14 L 715.49,644.37 L 715.07,643.29 L 714.82,642.79 L 714.09,642.04 L 712.50,641.00 L 711.95,640.70 L 711.08,640.06 L 710.69,639.73 L 710.10,639.00 L 709.84,638.62 L 709.49,637.73 L 709.18,636.14 L 709.09,635.23 L 708.41,633.51 L 706.93,631.73 L 706.58,631.50 L 706.03,630.94 L 705.78,630.63 L 705.43,629.83 L 705.28,629.40 L 705.10,628.30 L 705.00,626.23 L 705.00,625.32 L 704.91,623.98 L 704.84,623.38 L 704.54,622.54 L 704.36,622.16 L 703.76,621.63 L 702.43,620.98 L 702.08,620.84 L 701.09,620.60 L 700.56,620.48 L 699.32,620.29 L 695.43,620.00 L 691.00,620.00 L 690.81,629.75 L 690.63,639.50 L 690.00,631.00 L 689.98,630.71 L 689.94,630.54 L 689.91,630.52 L 689.87,630.88 L 689.85,631.12 L 689.81,631.98 L 689.78,632.48 L 689.74,633.82 L 689.72,634.55 L 689.68,636.36 L 689.66,637.31 L 689.62,639.55 L 689.60,640.72 L 689.56,643.37 L 689.54,644.75 L 689.50,647.79 L 689.48,649.35 L 689.45,652.75 L 689.43,654.50 L 689.40,658.24 L 689.38,660.15 L 689.35,664.21 L 689.34,666.28 L 689.31,670.63 L 689.28,675.05 L 689.24,684.67 L 689.19,700.08 L 689.18,702.75 L 689.16,708.63 L 689.16,711.65 L 689.14,718.18 L 689.12,721.53 L 689.10,728.65 L 689.09,732.28 L 689.06,739.93 L 689.05,743.81 L 689.02,751.91 L 689.00,756.01 L 688.97,764.49 L 688.95,768.78 L 688.92,777.58 L 688.90,782.01 L 688.86,791.06 L 688.82,800.15 L 688.74,818.80 L 688.70,828.15 L 688.61,846.89 L 688.56,856.22 L 688.47,874.51 L 688.45,879.03 L 688.40,887.89 L 688.33,900.83 L 687.67,1024.00 L 686.00,1024.00 L 686.00,1015.56 L 686.07,1012.24 L 686.17,1010.26 L 686.25,1009.45 L 686.41,1007.96 L 686.51,1007.47 L 686.72,1006.67 L 686.84,1006.60 L 686.89,1006.05 L 686.93,1005.18 L 686.95,1004.49 L 686.99,1002.96 L 687.01,1001.96 L 687.05,999.79 L 687.06,998.48 L 687.10,995.70 L 687.12,994.09 L 687.16,990.72 L 687.18,988.82 L 687.21,984.88 L 687.23,982.71 L 687.27,978.22 L 687.29,975.78 L 687.32,970.76 L 687.34,968.07 L 687.38,962.55 L 687.39,959.61 L 687.43,953.61 L 687.45,950.43 L 687.48,943.97 L 687.50,940.57 L 687.53,933.67 L 687.55,930.06 L 687.58,922.74 L 687.60,918.93 L 687.63,911.21 L 687.65,907.21 L 687.68,899.12 L 687.70,894.94 L 687.73,886.49 L 687.74,882.14 L 687.77,873.37 L 687.79,868.86 L 687.82,859.77 L 687.83,855.12 L 687.86,845.74 L 687.88,840.95 L 687.93,821.53 L 687.96,811.47 L 688.02,791.14 L 688.04,780.69 L 688.09,759.61 L 688.11,748.85 L 688.16,727.20 L 688.18,716.22 L 688.26,671.94 L 688.30,649.62 L 688.36,604.96 L 688.38,582.96 L 688.41,561.05 L 688.41,550.26 L 688.43,528.82 L 688.44,518.33 L 688.45,497.52 L 688.45,487.42 L 688.46,467.42 L 688.46,457.79 L 688.46,448.22 L 688.46,443.54 L 688.45,434.24 L 688.45,429.70 L 688.45,420.70 L 688.45,416.32 L 688.44,407.64 L 688.44,403.42 L 688.43,395.07 L 688.43,391.03 L 688.42,383.05 L 688.41,379.20 L 688.40,371.59 L 688.40,367.94 L 688.39,360.74 L 688.38,357.30 L 688.37,350.52 L 688.36,347.30 L 688.34,340.96 L 688.33,337.97 L 688.32,332.11 L 688.31,329.36 L 688.29,323.99 L 688.28,321.49 L 688.25,316.63 L 688.24,314.39 L 688.22,310.06 L 688.21,308.11 L 688.18,304.33 L 688.17,302.66 L 688.14,299.46 L 688.12,298.08 L 688.09,295.48 L 688.08,294.41 L 688.05,292.42 L 688.03,291.67 L 688.00,290.33 L 687.98,289.90 L 687.94,289.22 L 687.92,289.14 L 687.54,287.08 L 687.42,285.95 L 687.43,285.49 L 687.50,284.63 L 687.61,284.29 L 687.86,283.67 L 688.06,283.43 L 688.66,282.19 L 688.72,281.36 L 688.55,281.08 L 688.53,280.70 L 688.80,280.61 M 893.91,24.14 L 894.34,25.15 L 893.47,23.33 M 892.43,21.40 L 893.14,22.72 L 891.97,20.70 M 889.73,17.43 L 890.49,18.52 L 889.43,17.07 M 886.59,13.72 L 886.60,13.73 L 886.59,13.71 M 871.56,3.02 L 871.03,2.78 L 869.66,2.30 L 871.07,2.79 Z" fill="rgba(204,134,10,1)" />
<path d="M 688.41,550.26 L 688.41,561.05 L 688.38,582.96 L 688.36,604.96 L 688.30,649.62 L 688.26,671.94 L 688.18,716.22 L 688.16,727.20 L 688.11,748.85 L 688.09,759.61 L 688.04,780.69 L 688.02,791.14 L 687.96,811.47 L 687.93,821.53 L 687.88,840.95 L 687.86,845.74 L 687.83,855.12 L 687.82,859.77 L 687.79,868.86 L 687.77,873.37 L 687.74,882.14 L 687.73,886.49 L 687.70,894.94 L 687.68,899.12 L 687.65,907.21 L 687.63,911.21 L 687.60,918.93 L 687.58,922.74 L 687.55,930.06 L 687.53,933.67 L 687.50,940.57 L 687.48,943.97 L 687.45,950.43 L 687.43,953.61 L 687.39,959.61 L 687.38,962.55 L 687.34,968.07 L 687.32,970.76 L 687.29,975.78 L 687.27,978.22 L 687.23,982.71 L 687.21,984.88 L 687.18,988.82 L 687.16,990.72 L 687.12,994.09 L 687.10,995.70 L 687.06,998.48 L 687.05,999.79 L 687.01,1001.96 L 686.99,1002.96 L 686.95,1004.49 L 686.93,1005.18 L 686.89,1006.05 L 686.84,1006.60 L 686.72,1006.67 L 686.51,1007.47 L 686.41,1007.96 L 686.25,1009.45 L 686.17,1010.26 L 686.07,1012.24 L 686.00,1015.56 L 686.00,1024.00 L 482.00,1023.95 L 482.03,936.25 L 482.04,921.96 L 482.06,912.93 L 482.07,908.66 L 482.10,900.28 L 482.12,896.33 L 482.16,888.58 L 482.18,884.94 L 482.24,877.82 L 482.27,874.49 L 482.34,867.98 L 482.37,864.95 L 482.45,859.04 L 482.50,856.31 L 482.59,850.99 L 482.64,848.54 L 482.75,843.80 L 482.80,841.64 L 482.92,837.46 L 482.99,835.58 L 483.12,831.95 L 483.19,830.34 L 483.34,827.25 L 483.42,825.90 L 483.58,823.34 L 483.66,822.26 L 483.84,820.22 L 483.93,819.38 L 484.12,817.85 L 484.23,817.26 L 484.43,816.22 L 484.54,815.87 L 485.05,815.27 L 485.44,815.10 L 485.74,815.03 L 486.41,814.88 L 486.88,814.82 L 487.93,814.69 L 488.63,814.63 L 490.14,814.53 L 491.10,814.48 L 493.17,814.40 L 494.44,814.36 L 497.15,814.29 L 498.78,814.26 L 502.22,814.20 L 504.25,814.18 L 508.51,814.13 L 510.99,814.11 L 516.17,814.08 L 519.13,814.07 L 522.16,814.06 L 523.77,814.05 L 527.06,814.04 L 528.81,814.04 L 532.37,814.03 L 534.26,814.03 L 538.12,814.02 L 540.16,814.02 L 544.31,814.01 L 546.50,814.01 L 550.96,814.01 L 553.31,814.01 L 558.09,814.00 L 560.60,814.00 L 565.72,814.00 L 568.40,814.00 L 573.86,814.00 L 576.72,814.00 L 582.53,814.00 L 585.57,814.00 L 593.80,814.00 L 599.06,814.00 L 601.58,814.00 L 606.54,814.00 L 608.91,813.99 L 613.58,813.99 L 615.81,813.99 L 620.20,813.99 L 622.29,813.98 L 626.41,813.98 L 628.37,813.98 L 635.94,813.96 L 639.35,813.95 L 645.93,813.93 L 648.87,813.92 L 654.52,813.89 L 657.03,813.88 L 661.82,813.84 L 663.92,813.82 L 667.92,813.77 L 669.64,813.75 L 672.92,813.69 L 674.32,813.66 L 676.94,813.59 L 678.03,813.55 L 680.07,813.47 L 680.89,813.42 L 682.42,813.33 L 683.01,813.28 L 684.08,813.17 L 684.47,813.11 L 685.16,812.98 L 685.39,812.91 L 686.00,812.62 L 686.00,812.44 L 686.25,811.49 L 686.61,811.26 L 686.84,811.40 L 686.89,811.06 L 686.92,810.46 L 686.93,809.98 L 686.97,808.90 L 686.98,808.19 L 687.01,806.65 L 687.03,805.71 L 687.06,803.73 L 687.08,802.58 L 687.11,800.16 L 687.13,798.80 L 687.16,795.97 L 687.18,794.41 L 687.21,791.18 L 687.23,789.43 L 687.26,785.82 L 687.28,783.88 L 687.32,779.90 L 687.33,777.78 L 687.37,773.45 L 687.38,771.16 L 687.42,766.50 L 687.43,764.05 L 687.47,759.06 L 687.49,756.46 L 687.52,751.17 L 687.54,748.42 L 687.57,742.84 L 687.59,739.95 L 687.62,734.10 L 687.64,731.07 L 687.71,718.73 L 687.74,712.21 L 687.81,698.95 L 687.84,692.02 L 687.90,677.96 L 687.94,670.68 L 688.00,655.95 L 688.03,648.38 L 688.09,633.11 L 688.12,625.31 L 688.18,609.62 L 688.21,601.66 L 688.32,569.57 L 688.37,553.38 L 688.43,532.06 M 732.43,0.50 L 736.45,0.50 L 744.13,0.50 L 747.91,0.50 L 755.12,0.50 L 758.67,0.50 L 765.43,0.51 L 768.76,0.51 L 775.08,0.51 L 778.19,0.52 L 784.10,0.52 L 787.00,0.52 L 792.50,0.53 L 795.20,0.53 L 800.30,0.54 L 802.81,0.55 L 807.54,0.56 L 809.86,0.56 L 814.23,0.57 L 816.38,0.58 L 820.40,0.60 L 822.37,0.60 L 826.07,0.62 L 827.88,0.63 L 831.26,0.65 L 832.92,0.66 L 836.00,0.68 L 837.51,0.69 L 840.31,0.72 L 841.67,0.73 L 844.20,0.76 L 846.67,0.79 L 850.86,0.86 L 852.85,0.90 L 856.17,0.98 L 857.73,1.03 L 860.29,1.13 L 861.49,1.18 L 863.42,1.30 L 864.32,1.36 L 865.74,1.50 L 866.39,1.57 L 867.43,1.73 L 869.66,2.30 L 871.03,2.78 L 873.72,4.01 L 875.06,4.66 L 877.65,6.22 L 878.93,7.03 L 881.38,8.89 L 882.59,9.84 L 884.87,11.96 L 885.99,13.04 L 888.07,15.38 L 889.08,16.58 L 890.91,19.11 L 891.80,20.40 L 893.36,23.10 L 895.36,27.28 L 897.50,32.50 L 897.77,191.43 L 897.78,198.09 L 897.79,210.78 L 897.80,217.02 L 897.81,228.87 L 897.82,234.69 L 897.82,245.70 L 897.82,251.11 L 897.82,261.28 L 897.82,266.27 L 897.81,275.61 L 897.80,280.18 L 897.79,288.69 L 897.78,292.84 L 897.75,300.52 L 897.74,304.26 L 897.71,311.11 L 897.70,314.43 L 897.66,320.46 L 897.64,323.37 L 897.60,328.57 L 897.58,331.07 L 897.53,335.45 L 897.50,337.53 L 897.44,341.09 L 897.42,342.76 L 897.35,345.50 L 897.32,346.77 L 897.25,348.69 L 897.21,349.54 L 897.14,350.65 L 897.02,351.38 L 896.67,351.73 L 896.25,351.79 L 895.98,350.95 L 895.98,350.64 L 895.94,350.26 L 895.91,350.11 L 895.80,350.03 L 895.73,350.04 L 895.50,350.28 L 895.00,351.00 L 894.68,351.50 L 894.27,351.81 L 894.02,351.25 L 894.01,351.19 L 893.82,351.07 L 893.70,351.02 L 893.23,350.91 L 892.96,350.86 L 892.19,350.77 L 891.76,350.72 L 890.66,350.64 L 890.07,350.60 L 888.61,350.52 L 887.83,350.49 L 885.99,350.42 L 885.02,350.39 L 882.76,350.33 L 881.58,350.30 L 878.89,350.25 L 877.49,350.23 L 874.33,350.19 L 872.69,350.17 L 869.04,350.13 L 867.15,350.12 L 862.97,350.09 L 860.82,350.08 L 856.10,350.06 L 853.67,350.05 L 848.38,350.03 L 845.66,350.02 L 839.76,350.01 L 836.74,350.01 L 830.22,350.00 L 819.70,350.00 L 816.17,350.00 L 809.56,350.00 L 806.32,349.99 L 800.28,349.99 L 797.33,349.98 L 791.85,349.97 L 789.17,349.96 L 784.21,349.94 L 781.80,349.93 L 777.36,349.91 L 775.20,349.89 L 771.24,349.86 L 769.32,349.84 L 765.84,349.81 L 764.16,349.79 L 761.12,349.74 L 759.66,349.72 L 757.05,349.67 L 755.80,349.64 L 753.60,349.58 L 752.55,349.55 L 750.74,349.48 L 749.89,349.45 L 748.44,349.37 L 747.76,349.33 L 746.67,349.25 L 746.16,349.21 L 745.39,349.11 L 745.04,349.07 L 744.58,348.96 L 744.20,348.80 L 744.03,348.63 L 743.73,347.86 L 743.59,347.41 L 743.35,346.18 L 743.24,345.52 L 743.09,343.99 L 743.00,341.50 L 743.00,340.66 L 742.95,339.21 L 742.91,338.52 L 742.77,337.34 L 742.69,336.79 L 742.46,335.86 L 742.33,335.43 L 741.98,334.74 L 741.60,334.09 L 740.45,333.39 L 738.00,333.00 L 737.21,333.00 L 735.88,332.69 L 735.26,332.49 L 734.31,331.80 L 733.88,331.41 L 733.34,330.36 L 733.00,328.42 L 733.00,327.86 L 732.68,326.81 L 732.47,326.29 L 731.71,325.31 L 731.27,324.83 L 730.04,323.90 L 727.64,322.52 L 727.00,322.19 L 725.99,320.94 L 725.16,318.53 L 725.07,317.72 L 724.37,315.75 L 722.94,313.19 L 722.68,312.86 L 722.07,311.80 L 721.76,311.22 L 721.12,309.78 L 719.41,304.97 L 719.09,303.84 L 718.44,302.01 L 718.10,301.15 L 717.32,299.73 L 716.91,299.05 L 715.88,297.84 L 713.95,296.08 L 712.90,295.23 L 710.93,293.90 L 710.49,293.63 L 709.77,293.24 L 709.06,293.00 L 708.92,293.00 L 708.36,292.74 L 708.04,292.57 L 707.21,292.03 L 704.25,289.68 L 703.22,288.77 L 700.72,286.75 L 700.11,286.26 L 698.96,285.39 L 697.50,284.34 L 696.60,283.73 L 694.45,282.59 L 693.37,282.06 L 691.33,281.25 L 690.86,281.07 L 690.03,280.83 L 689.65,280.72 L 689.06,280.63 L 688.80,280.61 L 688.53,280.70 L 688.55,281.08 L 688.72,281.36 L 688.66,282.19 L 688.06,283.43 L 687.86,283.67 L 687.61,284.29 L 687.50,284.63 L 687.43,285.49 L 687.42,285.95 L 687.54,287.08 L 687.92,289.14 L 687.94,289.22 L 687.94,289.25 L 687.87,289.00 L 687.24,287.19 L 686.84,286.14 L 684.98,281.60 L 683.92,279.37 L 680.18,272.83 L 677.28,268.97 L 675.62,267.29 L 672.17,264.08 L 670.24,262.72 L 666.22,260.15 L 664.00,259.10 L 658.50,256.50 L 593.50,255.88 L 552.87,255.54 L 539.44,255.45 L 532.82,255.41 L 519.63,255.34 L 513.17,255.30 L 500.33,255.25 L 494.07,255.23 L 481.68,255.19 L 475.69,255.17 L 463.86,255.15 L 458.20,255.14 L 447.03,255.14 L 441.74,255.14 L 431.35,255.15 L 426.48,255.16 L 416.97,255.19 L 412.59,255.21 L 408.26,255.23 L 406.20,255.24 L 402.14,255.26 L 400.22,255.28 L 396.44,255.31 L 394.66,255.32 L 391.17,255.36 L 389.53,255.37 L 386.35,255.41 L 384.88,255.43 L 382.01,255.47 L 380.70,255.50 L 378.16,255.54 L 377.02,255.56 L 374.83,255.61 L 373.87,255.64 L 372.04,255.69 L 371.26,255.72 L 369.80,255.78 L 369.21,255.81 L 368.14,255.87 L 367.75,255.90 L 367.07,255.97 L 366.89,256.01 L 367.10,255.97 L 367.87,255.89 L 368.32,255.85 L 369.56,255.78 L 370.24,255.75 L 371.94,255.68 L 372.85,255.65 L 374.99,255.59 L 376.12,255.55 L 378.70,255.50 L 380.04,255.47 L 383.03,255.41 L 384.58,255.39 L 387.98,255.34 L 389.73,255.31 L 393.52,255.27 L 395.47,255.25 L 399.64,255.21 L 401.78,255.19 L 406.32,255.15 L 408.64,255.14 L 413.54,255.11 L 416.04,255.09 L 421.29,255.07 L 423.95,255.06 L 429.54,255.04 L 432.37,255.03 L 438.27,255.02 L 441.26,255.01 L 447.47,255.00 L 457.12,255.00 L 541.96,255.00 L 542.23,143.75 L 542.24,140.40 L 542.25,134.01 L 542.26,130.86 L 542.28,124.86 L 542.28,121.90 L 542.30,116.26 L 542.31,113.49 L 542.32,108.22 L 542.33,105.62 L 542.35,100.70 L 542.35,98.28 L 542.37,93.69 L 542.38,91.43 L 542.39,87.16 L 542.40,85.07 L 542.42,81.11 L 542.43,79.17 L 542.45,75.51 L 542.46,73.71 L 542.48,70.34 L 542.49,68.68 L 542.51,65.58 L 542.52,64.06 L 542.55,61.22 L 542.57,58.44 L 542.63,53.61 L 542.66,51.31 L 542.73,47.35 L 542.76,45.48 L 542.84,42.30 L 542.89,40.80 L 542.98,38.30 L 543.03,37.12 L 543.14,35.20 L 543.20,34.30 L 543.33,32.86 L 543.40,32.19 L 543.55,31.12 L 543.63,30.62 L 543.80,29.83 L 544.42,28.00 L 545.07,26.47 L 546.57,23.53 L 547.36,22.09 L 549.11,19.35 L 550.02,18.01 L 551.99,15.50 L 553.00,14.27 L 555.18,12.00 L 556.29,10.90 L 558.63,8.90 L 559.82,7.94 L 562.32,6.23 L 563.58,5.42 L 566.21,4.03 L 570.25,2.33 L 570.88,2.11 L 572.48,1.75 L 572.96,1.67 L 574.15,1.51 L 574.79,1.44 L 576.43,1.31 L 577.31,1.25 L 579.51,1.13 L 580.69,1.08 L 583.59,0.99 L 585.13,0.94 L 588.84,0.86 L 590.81,0.83 L 595.46,0.76 L 596.68,0.75 L 599.34,0.72 L 600.70,0.71 L 603.63,0.68 L 605.13,0.67 L 608.35,0.65 L 610.00,0.64 L 613.54,0.62 L 615.34,0.61 L 619.20,0.60 L 621.17,0.59 L 625.37,0.57 L 627.51,0.57 L 632.07,0.56 L 634.39,0.55 L 639.32,0.54 L 641.83,0.54 L 647.15,0.53 L 649.85,0.53 L 655.57,0.52 L 658.48,0.52 L 664.62,0.51 L 667.74,0.51 L 674.31,0.51 L 677.65,0.51 L 684.67,0.50 L 688.24,0.50 L 695.72,0.50 L 699.53,0.50 L 707.49,0.50 L 720.00,0.50 L 724.27,0.50 Z" fill="rgba(226,169,17,1)" />
<path d="M 688.56,481.29 L 688.54,489.12 L 688.50,505.02 L 688.46,520.98 L 688.37,553.38 L 688.32,569.57 L 688.21,601.66 L 688.18,609.62 L 688.12,625.31 L 688.09,633.11 L 688.03,648.38 L 688.00,655.95 L 687.94,670.68 L 687.90,677.96 L 687.84,692.02 L 687.81,698.95 L 687.74,712.21 L 687.71,718.73 L 687.64,731.07 L 687.62,734.10 L 687.59,739.95 L 687.57,742.84 L 687.54,748.42 L 687.52,751.17 L 687.49,756.46 L 687.47,759.06 L 687.43,764.05 L 687.42,766.50 L 687.38,771.16 L 687.37,773.45 L 687.33,777.78 L 687.32,779.90 L 687.28,783.88 L 687.26,785.82 L 687.23,789.43 L 687.21,791.18 L 687.18,794.41 L 687.16,795.97 L 687.13,798.80 L 687.11,800.16 L 687.08,802.58 L 687.06,803.73 L 687.03,805.71 L 687.01,806.65 L 686.98,808.19 L 686.97,808.90 L 686.93,809.98 L 686.92,810.46 L 686.89,811.06 L 686.84,811.40 L 686.61,811.26 L 686.25,811.49 L 686.00,812.44 L 686.00,812.62 L 685.39,812.91 L 685.16,812.98 L 684.47,813.11 L 684.08,813.17 L 683.01,813.28 L 682.42,813.33 L 680.89,813.42 L 680.07,813.47 L 678.03,813.55 L 676.94,813.59 L 674.32,813.66 L 672.92,813.69 L 669.64,813.75 L 667.92,813.77 L 663.92,813.82 L 661.82,813.84 L 657.03,813.88 L 654.52,813.89 L 648.87,813.92 L 645.93,813.93 L 639.35,813.95 L 635.94,813.96 L 628.37,813.98 L 626.41,813.98 L 622.29,813.98 L 620.20,813.99 L 615.81,813.99 L 613.58,813.99 L 608.91,813.99 L 606.54,814.00 L 601.58,814.00 L 599.06,814.00 L 593.80,814.00 L 585.57,814.00 L 582.53,814.00 L 576.72,814.00 L 573.86,814.00 L 568.40,814.00 L 565.72,814.00 L 560.60,814.00 L 558.09,814.00 L 553.31,814.01 L 550.96,814.01 L 546.50,814.01 L 544.31,814.01 L 540.16,814.02 L 538.12,814.02 L 534.26,814.03 L 532.37,814.03 L 528.81,814.04 L 527.06,814.04 L 523.77,814.05 L 522.16,814.06 L 519.13,814.07 L 516.17,814.08 L 510.99,814.11 L 508.51,814.13 L 504.25,814.18 L 502.22,814.20 L 498.78,814.26 L 497.15,814.29 L 494.44,814.36 L 493.17,814.40 L 491.10,814.48 L 490.14,814.53 L 488.63,814.63 L 487.93,814.69 L 486.88,814.82 L 486.41,814.88 L 485.74,815.03 L 485.44,815.10 L 485.05,815.27 L 484.54,815.87 L 484.43,816.22 L 484.23,817.26 L 484.12,817.85 L 483.93,819.38 L 483.84,820.22 L 483.66,822.26 L 483.58,823.34 L 483.42,825.90 L 483.34,827.25 L 483.19,830.34 L 483.12,831.95 L 482.99,835.58 L 482.92,837.46 L 482.80,841.64 L 482.75,843.80 L 482.64,848.54 L 482.59,850.99 L 482.50,856.31 L 482.45,859.04 L 482.37,864.95 L 482.34,867.98 L 482.27,874.49 L 482.24,877.82 L 482.18,884.94 L 482.16,888.58 L 482.12,896.33 L 482.10,900.28 L 482.07,908.66 L 482.06,912.93 L 482.04,921.96 L 482.03,936.25 L 482.00,1024.00 L 481.99,854.25 L 481.99,839.95 L 482.00,830.78 L 482.00,826.37 L 482.00,817.66 L 482.00,813.49 L 482.01,805.24 L 482.01,801.28 L 482.02,793.48 L 482.02,789.74 L 482.03,782.36 L 482.04,778.83 L 482.05,771.87 L 482.06,768.54 L 482.08,761.97 L 482.08,758.84 L 482.10,752.66 L 482.11,749.71 L 482.13,743.91 L 482.15,741.14 L 482.17,735.69 L 482.18,733.09 L 482.21,727.99 L 482.23,725.56 L 482.26,720.78 L 482.28,718.51 L 482.31,714.05 L 482.33,711.93 L 482.37,707.77 L 482.39,705.80 L 482.44,701.93 L 482.46,700.09 L 482.56,693.02 L 482.61,689.86 L 482.73,683.79 L 482.80,681.08 L 482.93,675.88 L 483.01,673.57 L 483.17,669.14 L 483.26,667.17 L 483.44,663.39 L 483.54,661.71 L 483.74,658.47 L 483.86,657.01 L 484.09,654.20 L 484.22,652.91 L 484.47,650.41 L 484.61,649.24 L 485.13,644.98 L 585.56,645.24 L 686.00,645.50 L 686.10,643.00 L 686.20,640.50 L 686.94,643.00 L 687.02,642.47 L 687.07,641.34 L 687.10,640.42 L 687.16,638.32 L 687.19,636.93 L 687.25,633.92 L 687.28,632.10 L 687.34,628.25 L 687.37,626.02 L 687.43,621.38 L 687.46,618.78 L 687.53,613.41 L 687.56,610.47 L 687.63,604.44 L 687.66,601.19 L 687.72,594.54 L 687.75,591.01 L 687.82,583.82 L 687.85,580.04 L 687.92,572.37 L 687.95,568.37 L 688.01,560.27 L 688.04,556.08 L 688.11,547.62 L 688.14,543.27 L 688.20,534.50 L 688.23,530.03 L 688.34,511.90 L 688.40,502.61 L 688.59,468.74 M 680.18,272.83 L 680.19,272.86 L 679.10,271.39 M 675.62,267.29 L 677.28,268.97 L 677.33,269.04 L 675.68,267.35 L 673.90,265.69 Z" fill="rgba(232,181,51,1)" />
<path d="M 688.40,502.61 L 688.34,511.90 L 688.23,530.03 L 688.20,534.50 L 688.14,543.27 L 688.11,547.62 L 688.04,556.08 L 688.01,560.27 L 687.95,568.37 L 687.92,572.37 L 687.85,580.04 L 687.82,583.82 L 687.75,591.01 L 687.72,594.54 L 687.66,601.19 L 687.63,604.44 L 687.56,610.47 L 687.53,613.41 L 687.46,618.78 L 687.43,621.38 L 687.37,626.02 L 687.34,628.25 L 687.28,632.10 L 687.25,633.92 L 687.19,636.93 L 687.16,638.32 L 687.10,640.42 L 687.07,641.34 L 687.02,642.47 L 686.94,643.00 L 686.20,640.50 L 686.10,643.00 L 686.00,645.50 L 585.56,645.24 L 485.13,644.98 L 484.61,649.24 L 484.47,650.41 L 484.22,652.91 L 484.09,654.20 L 483.86,657.01 L 483.74,658.47 L 483.54,661.71 L 483.44,663.39 L 483.26,667.17 L 483.17,669.14 L 483.01,673.57 L 482.93,675.88 L 482.80,681.08 L 482.73,683.79 L 482.61,689.86 L 482.56,693.02 L 482.46,700.09 L 482.44,701.93 L 482.39,705.80 L 482.37,707.77 L 482.33,711.93 L 482.31,714.05 L 482.28,718.51 L 482.26,720.78 L 482.23,725.56 L 482.21,727.99 L 482.18,733.09 L 482.17,735.69 L 482.15,741.14 L 482.13,743.91 L 482.11,749.71 L 482.10,752.66 L 482.08,758.84 L 482.08,761.97 L 482.06,768.54 L 482.05,771.87 L 482.04,778.83 L 482.03,782.36 L 482.02,789.74 L 482.02,793.48 L 482.01,801.28 L 482.01,805.24 L 482.00,813.49 L 482.00,817.66 L 482.00,826.37 L 482.00,830.78 L 481.99,839.95 L 481.99,854.25 L 482.00,1024.00 L 322.25,1023.93 L 317.96,1023.93 L 309.71,1023.93 L 305.64,1023.93 L 297.81,1023.92 L 293.96,1023.92 L 286.56,1023.91 L 282.91,1023.91 L 275.91,1023.90 L 272.47,1023.90 L 265.87,1023.89 L 262.62,1023.89 L 256.41,1023.88 L 253.35,1023.88 L 247.51,1023.86 L 244.64,1023.86 L 239.16,1023.85 L 236.46,1023.84 L 231.34,1023.83 L 228.81,1023.82 L 224.02,1023.81 L 221.67,1023.80 L 217.21,1023.78 L 215.01,1023.77 L 210.86,1023.76 L 208.83,1023.75 L 204.98,1023.73 L 203.09,1023.72 L 199.54,1023.69 L 197.79,1023.68 L 194.52,1023.66 L 192.91,1023.65 L 189.90,1023.62 L 186.96,1023.59 L 181.83,1023.53 L 179.38,1023.50 L 175.16,1023.42 L 173.16,1023.39 L 169.77,1023.30 L 168.17,1023.26 L 165.51,1023.16 L 164.27,1023.11 L 162.25,1023.00 L 161.31,1022.95 L 159.84,1022.82 L 159.17,1022.76 L 158.15,1022.62 L 157.68,1022.55 L 157.02,1022.40 L 155.23,1021.92 L 151.79,1020.60 L 150.10,1019.88 L 146.89,1018.12 L 145.32,1017.20 L 142.37,1015.04 L 140.93,1013.91 L 138.29,1011.39 L 137.01,1010.09 L 134.71,1007.25 L 133.61,1005.80 L 131.69,1002.67 L 130.78,1001.07 L 129.27,997.70 L 127.53,992.41 L 127.44,992.07 L 127.28,991.13 L 127.21,990.61 L 127.07,989.18 L 127.00,988.39 L 126.88,986.32 L 126.82,985.19 L 126.71,982.34 L 126.66,980.80 L 126.57,977.00 L 126.55,975.99 L 126.51,973.76 L 126.49,972.61 L 126.45,970.10 L 126.43,968.80 L 126.40,965.99 L 126.38,964.54 L 126.36,961.40 L 126.34,959.78 L 126.31,956.30 L 126.30,954.52 L 126.28,950.67 L 126.27,948.71 L 126.25,944.49 L 126.24,942.33 L 126.22,937.71 L 126.21,935.35 L 126.20,930.32 L 126.19,927.75 L 126.18,922.28 L 126.18,919.49 L 126.17,913.57 L 126.16,910.56 L 126.16,904.16 L 126.15,900.91 L 126.15,894.03 L 126.15,890.52 L 126.15,883.13 L 126.15,879.37 L 126.15,871.46 L 126.15,867.43 L 126.15,858.97 L 126.16,854.67 L 126.16,845.64 L 126.16,841.06 L 126.17,831.45 L 126.17,826.57 L 126.18,819.51 L 126.18,824.99 L 126.19,829.32 L 126.20,837.80 L 126.20,841.78 L 126.22,849.54 L 126.22,853.13 L 126.24,860.10 L 126.25,863.27 L 126.27,869.40 L 126.28,872.12 L 126.30,877.34 L 126.31,879.59 L 126.34,883.85 L 126.35,885.59 L 126.37,887.27 L 126.38,888.01 L 126.39,889.43 L 126.40,890.03 L 126.41,891.17 L 126.42,891.63 L 126.44,892.49 L 126.45,892.81 L 126.46,893.38 L 126.47,893.56 L 126.49,893.83 L 126.50,893.86 L 127.00,894.58 L 127.47,894.71 L 128.55,894.82 L 129.26,894.63 L 129.60,894.60 L 130.06,894.58 L 130.39,894.57 L 131.13,894.55 L 131.61,894.54 L 132.64,894.52 L 133.25,894.51 L 134.56,894.49 L 135.31,894.48 L 136.88,894.46 L 137.76,894.45 L 141.56,894.41 L 143.83,894.39 L 148.62,894.36 L 151.36,894.34 L 157.08,894.31 L 160.26,894.29 L 166.85,894.26 L 170.45,894.24 L 177.85,894.21 L 181.84,894.20 L 189.99,894.17 L 194.33,894.16 L 203.17,894.14 L 207.83,894.12 L 217.31,894.10 L 222.26,894.09 L 232.30,894.07 L 237.52,894.07 L 248.08,894.05 L 253.53,894.04 L 264.53,894.03 L 270.18,894.03 L 281.58,894.02 L 287.41,894.02 L 299.14,894.01 L 305.10,894.01 L 478.71,894.00 L 480.01,886.75 L 480.19,885.35 L 480.31,884.06 L 480.36,883.21 L 480.47,881.38 L 480.52,880.25 L 480.63,877.85 L 480.68,876.41 L 480.77,873.38 L 480.82,871.62 L 480.91,867.93 L 480.95,865.81 L 481.04,861.40 L 481.08,858.91 L 481.17,853.74 L 481.21,850.85 L 481.29,844.88 L 481.33,841.57 L 481.40,834.74 L 481.44,830.99 L 481.52,823.27 L 481.56,819.05 L 481.63,810.38 L 481.67,805.68 L 481.74,796.02 L 481.78,790.81 L 481.82,785.53 L 481.83,782.79 L 481.87,777.24 L 481.89,774.37 L 481.93,768.55 L 481.95,765.53 L 481.98,759.44 L 482.00,756.29 L 482.04,749.91 L 482.06,746.61 L 482.10,739.94 L 482.12,736.50 L 482.30,707.59 L 482.36,698.26 L 482.40,693.71 L 482.47,684.68 L 482.50,680.30 L 482.58,671.63 L 482.62,667.44 L 482.69,659.18 L 482.73,655.22 L 482.81,647.43 L 482.85,643.72 L 482.93,636.43 L 482.97,633.00 L 483.05,626.28 L 483.09,623.15 L 483.17,617.05 L 483.21,614.25 L 483.29,608.81 L 483.33,606.36 L 483.41,601.65 L 483.44,599.58 L 483.52,595.64 L 483.56,593.98 L 483.63,590.86 L 483.67,589.63 L 483.74,587.38 L 483.78,586.61 L 483.85,585.29 L 483.88,585.00 L 484.26,581.64 L 484.49,579.61 L 484.58,578.77 L 484.76,577.23 L 484.81,576.71 L 484.91,575.84 L 484.92,575.74 L 485.45,575.66 L 486.31,575.62 L 486.99,575.59 L 488.50,575.55 L 489.48,575.53 L 491.60,575.49 L 492.88,575.47 L 495.58,575.43 L 497.13,575.41 L 500.38,575.38 L 502.19,575.36 L 505.94,575.33 L 507.99,575.32 L 512.22,575.29 L 514.50,575.28 L 519.16,575.26 L 521.65,575.25 L 526.72,575.23 L 529.40,575.23 L 534.84,575.21 L 537.69,575.21 L 543.47,575.20 L 546.47,575.20 L 552.55,575.20 L 555.70,575.20 L 562.05,575.20 L 565.31,575.20 L 578.59,575.22 L 585.50,575.24 L 593.60,575.26 L 598.77,575.27 L 601.25,575.28 L 606.14,575.29 L 608.48,575.29 L 613.09,575.30 L 615.30,575.31 L 623.85,575.32 L 627.73,575.32 L 635.25,575.33 L 638.65,575.33 L 645.20,575.33 L 648.14,575.32 L 653.79,575.31 L 656.31,575.30 L 661.13,575.27 L 663.24,575.26 L 667.29,575.22 L 669.05,575.20 L 672.38,575.16 L 673.81,575.13 L 676.50,575.07 L 677.63,575.04 L 679.74,574.96 L 680.60,574.92 L 682.20,574.83 L 682.82,574.78 L 683.97,574.68 L 684.39,574.63 L 685.14,574.51 L 685.39,574.44 L 685.82,574.31 L 685.93,574.23 L 686.09,574.08 L 686.10,574.00 L 686.20,573.61 L 686.31,573.58 L 686.39,573.67 L 686.73,574.31 L 686.94,575.00 L 687.04,574.91 L 687.10,574.43 L 687.13,573.99 L 687.20,572.99 L 687.23,572.30 L 687.30,570.79 L 687.33,569.85 L 687.40,567.87 L 687.43,566.70 L 687.50,564.27 L 687.53,562.89 L 687.60,560.02 L 687.63,558.44 L 687.70,555.18 L 687.73,553.40 L 687.79,549.76 L 687.82,547.81 L 687.89,543.82 L 687.92,541.71 L 687.98,537.40 L 688.01,535.13 L 688.07,530.52 L 688.10,528.11 L 688.21,518.22 L 688.27,512.93 L 688.37,502.12 L 688.42,496.45 L 688.46,491.35 M 688.86,323.11 L 688.89,326.96 L 688.90,328.99 L 688.92,333.63 L 688.93,336.04 L 688.94,341.41 L 688.94,344.18 L 688.95,350.21 L 688.95,353.31 L 688.95,359.95 L 688.95,363.34 L 688.94,370.53 L 688.93,374.19 L 688.92,381.86 L 688.91,385.75 L 688.90,388.35 L 688.90,387.95 L 688.89,376.56 L 688.88,371.13 L 688.85,360.48 L 688.83,355.50 L 688.50,288.50 L 688.84,321.50 Z" fill="rgba(241,204,63,1)" />
<path d="M 332.36,455.52 L 332.38,457.24 L 332.43,460.61 L 332.46,462.17 L 332.52,465.19 L 332.55,466.56 L 332.61,469.21 L 332.65,470.39 L 332.71,472.63 L 332.75,473.59 L 332.85,476.25 L 332.91,477.45 L 333.01,479.77 L 333.06,480.79 L 333.17,482.72 L 333.22,483.54 L 333.32,485.06 L 333.37,485.66 L 333.46,486.73 L 333.50,487.09 L 333.59,487.68 L 333.62,487.78 L 333.69,487.85 L 333.72,487.68 L 333.78,487.19 L 333.80,486.72 L 333.99,484.03 L 334.17,482.55 L 334.28,482.00 L 334.51,481.04 L 334.64,480.79 L 334.91,480.44 L 335.05,480.53 L 335.42,480.49 L 335.64,480.20 L 335.72,479.94 L 336.00,478.62 L 336.00,477.64 L 336.18,474.72 L 336.30,473.84 L 336.37,473.47 L 336.52,472.80 L 336.61,472.58 L 336.93,472.33 L 337.39,472.17 L 337.80,472.10 L 338.73,471.97 L 339.41,471.90 L 340.92,471.78 L 341.94,471.73 L 344.15,471.63 L 345.57,471.58 L 348.62,471.49 L 350.50,471.45 L 354.49,471.38 L 356.89,471.34 L 359.36,471.31 L 360.70,471.30 L 363.46,471.27 L 364.95,471.25 L 368.00,471.23 L 369.65,471.21 L 373.03,471.19 L 374.84,471.18 L 378.55,471.16 L 380.54,471.15 L 384.60,471.13 L 386.76,471.12 L 391.18,471.11 L 393.54,471.10 L 398.34,471.08 L 400.89,471.08 L 406.09,471.07 L 408.84,471.06 L 414.45,471.05 L 417.41,471.05 L 423.45,471.04 L 426.63,471.03 L 433.10,471.03 L 436.51,471.02 L 443.44,471.02 L 447.08,471.02 L 454.49,471.01 L 458.37,471.01 L 466.26,471.01 L 470.39,471.00 L 478.78,471.00 L 483.17,471.00 L 492.08,471.00 L 496.74,471.00 L 506.18,471.00 L 511.11,471.00 L 523.79,471.00 L 531.94,471.00 L 535.87,471.00 L 543.64,471.01 L 547.38,471.01 L 554.77,471.01 L 558.33,471.01 L 565.34,471.02 L 568.72,471.02 L 575.37,471.03 L 578.56,471.03 L 584.86,471.04 L 587.88,471.04 L 593.83,471.05 L 596.68,471.06 L 602.30,471.07 L 604.98,471.07 L 610.26,471.08 L 612.78,471.09 L 617.75,471.10 L 620.11,471.11 L 624.76,471.13 L 626.97,471.13 L 631.31,471.15 L 633.37,471.16 L 637.42,471.18 L 639.33,471.19 L 643.09,471.21 L 644.86,471.22 L 648.34,471.24 L 649.97,471.25 L 656.24,471.30 L 658.99,471.33 L 664.23,471.39 L 666.49,471.42 L 670.76,471.48 L 672.56,471.52 L 675.93,471.59 L 677.31,471.63 L 679.85,471.72 L 680.82,471.77 L 682.60,471.86 L 683.22,471.91 L 684.29,472.02 L 684.58,472.07 L 685.01,472.19 L 685.02,472.25 L 685.27,472.81 L 685.68,472.50 L 686.00,472.00 L 686.46,471.49 L 686.68,471.48 L 686.76,471.66 L 686.89,472.14 L 686.93,472.56 L 686.98,473.55 L 686.98,474.25 L 687.30,476.90 L 687.50,477.51 L 687.63,477.70 L 687.88,478.00 L 688.02,478.00 L 688.15,477.64 L 688.23,477.04 L 688.26,476.56 L 688.33,475.48 L 688.37,474.76 L 688.43,473.19 L 688.46,472.22 L 688.52,470.17 L 688.54,468.95 L 688.59,466.40 L 688.62,464.95 L 688.66,461.90 L 688.68,460.19 L 688.68,459.70 L 688.68,460.90 L 688.64,467.01 L 688.56,479.01 L 688.52,484.95 L 688.42,496.45 L 688.37,502.12 L 688.27,512.93 L 688.21,518.22 L 688.10,528.11 L 688.07,530.52 L 688.01,535.13 L 687.98,537.40 L 687.92,541.71 L 687.89,543.82 L 687.82,547.81 L 687.79,549.76 L 687.73,553.40 L 687.70,555.18 L 687.63,558.44 L 687.60,560.02 L 687.53,562.89 L 687.50,564.27 L 687.43,566.70 L 687.40,567.87 L 687.33,569.85 L 687.30,570.79 L 687.23,572.30 L 687.20,572.99 L 687.13,573.99 L 687.10,574.43 L 687.04,574.91 L 686.94,575.00 L 686.73,574.31 L 686.39,573.67 L 686.31,573.58 L 686.20,573.61 L 686.10,574.00 L 686.09,574.08 L 685.93,574.23 L 685.82,574.31 L 685.39,574.44 L 685.14,574.51 L 684.39,574.63 L 683.97,574.68 L 682.82,574.78 L 682.20,574.83 L 680.60,574.92 L 679.74,574.96 L 677.63,575.04 L 676.50,575.07 L 673.81,575.13 L 672.38,575.16 L 669.05,575.20 L 667.29,575.22 L 663.24,575.26 L 661.13,575.27 L 656.31,575.30 L 653.79,575.31 L 648.14,575.32 L 645.20,575.33 L 638.65,575.33 L 635.25,575.33 L 627.73,575.32 L 623.85,575.32 L 615.30,575.31 L 613.09,575.30 L 608.48,575.29 L 606.14,575.29 L 601.25,575.28 L 598.77,575.27 L 593.60,575.26 L 585.50,575.24 L 578.59,575.22 L 565.31,575.20 L 562.05,575.20 L 555.70,575.20 L 552.55,575.20 L 546.47,575.20 L 543.47,575.20 L 537.69,575.21 L 534.84,575.21 L 529.40,575.23 L 526.72,575.23 L 521.65,575.25 L 519.16,575.26 L 514.50,575.28 L 512.22,575.29 L 507.99,575.32 L 505.94,575.33 L 502.19,575.36 L 500.38,575.38 L 497.13,575.41 L 495.58,575.43 L 492.88,575.47 L 491.60,575.49 L 489.48,575.53 L 488.50,575.55 L 486.99,575.59 L 486.31,575.62 L 485.45,575.66 L 484.92,575.74 L 484.91,575.84 L 484.81,576.71 L 484.76,577.23 L 484.58,578.77 L 484.49,579.61 L 484.26,581.64 L 483.88,585.00 L 483.85,585.29 L 483.78,586.61 L 483.74,587.38 L 483.67,589.63 L 483.63,590.86 L 483.56,593.98 L 483.52,595.64 L 483.44,599.58 L 483.41,601.65 L 483.33,606.36 L 483.29,608.81 L 483.21,614.25 L 483.17,617.05 L 483.09,623.15 L 483.05,626.28 L 482.97,633.00 L 482.93,636.43 L 482.85,643.72 L 482.81,647.43 L 482.73,655.22 L 482.69,659.18 L 482.62,667.44 L 482.58,671.63 L 482.50,680.30 L 482.47,684.68 L 482.40,693.71 L 482.36,698.26 L 482.30,707.59 L 482.12,736.50 L 482.10,739.94 L 482.06,746.61 L 482.04,749.91 L 482.00,756.29 L 481.98,759.44 L 481.95,765.53 L 481.93,768.55 L 481.89,774.37 L 481.87,777.24 L 481.83,782.79 L 481.82,785.53 L 481.78,790.81 L 481.74,796.02 L 481.67,805.68 L 481.63,810.38 L 481.56,819.05 L 481.52,823.27 L 481.44,830.99 L 481.40,834.74 L 481.33,841.57 L 481.29,844.88 L 481.21,850.85 L 481.17,853.74 L 481.08,858.91 L 481.04,861.40 L 480.95,865.81 L 480.91,867.93 L 480.82,871.62 L 480.77,873.38 L 480.68,876.41 L 480.63,877.85 L 480.52,880.25 L 480.47,881.38 L 480.36,883.21 L 480.31,884.06 L 480.19,885.35 L 480.01,886.75 L 478.71,894.00 L 305.10,894.01 L 299.14,894.01 L 287.41,894.02 L 281.58,894.02 L 270.18,894.03 L 264.53,894.03 L 253.53,894.04 L 248.08,894.05 L 237.52,894.07 L 232.30,894.07 L 222.26,894.09 L 217.31,894.10 L 207.83,894.12 L 203.17,894.14 L 194.33,894.16 L 189.99,894.17 L 181.84,894.20 L 177.85,894.21 L 170.45,894.24 L 166.85,894.26 L 160.26,894.29 L 157.08,894.31 L 151.36,894.34 L 148.62,894.36 L 143.83,894.39 L 141.56,894.41 L 137.76,894.45 L 136.88,894.46 L 135.31,894.48 L 134.56,894.49 L 133.25,894.51 L 132.64,894.52 L 131.61,894.54 L 131.13,894.55 L 130.39,894.57 L 130.06,894.58 L 129.60,894.60 L 129.26,894.63 L 128.55,894.82 L 127.47,894.71 L 127.00,894.58 L 126.50,893.86 L 126.49,893.83 L 126.47,893.56 L 126.46,893.38 L 126.45,892.81 L 126.44,892.49 L 126.42,891.63 L 126.41,891.17 L 126.40,890.03 L 126.39,889.43 L 126.38,888.01 L 126.37,887.27 L 126.35,885.59 L 126.34,883.85 L 126.31,879.59 L 126.30,877.34 L 126.28,872.12 L 126.27,869.40 L 126.25,863.27 L 126.24,860.10 L 126.22,853.13 L 126.22,849.54 L 126.20,841.78 L 126.20,837.80 L 126.19,829.32 L 126.18,824.99 L 126.18,815.83 L 126.18,811.18 L 126.17,801.42 L 126.17,796.47 L 126.18,786.16 L 126.18,780.94 L 126.18,770.15 L 126.18,764.69 L 126.19,757.94 L 126.19,758.40 L 126.23,764.08 L 126.25,766.68 L 126.30,771.72 L 126.32,773.99 L 126.37,778.39 L 126.39,780.35 L 126.45,784.10 L 126.48,785.73 L 126.53,788.83 L 126.56,790.14 L 126.63,792.59 L 126.66,793.57 L 126.73,795.37 L 126.77,796.03 L 126.84,797.18 L 126.88,797.51 L 126.96,798.00 L 127.00,798.00 L 127.71,797.32 L 128.00,796.33 L 128.00,795.70 L 128.35,793.72 L 128.87,792.53 L 129.20,792.20 L 129.85,792.03 L 130.77,791.93 L 131.50,791.88 L 133.13,791.79 L 134.23,791.75 L 136.63,791.66 L 138.13,791.62 L 141.34,791.55 L 143.27,791.51 L 147.35,791.44 L 149.73,791.41 L 154.73,791.35 L 157.59,791.33 L 163.57,791.28 L 166.94,791.25 L 170.37,791.23 L 172.19,791.22 L 175.89,791.20 L 177.84,791.19 L 181.81,791.17 L 183.90,791.16 L 188.15,791.14 L 190.39,791.14 L 194.92,791.12 L 197.30,791.11 L 202.13,791.10 L 204.65,791.09 L 209.78,791.08 L 212.46,791.07 L 217.89,791.06 L 220.72,791.06 L 226.46,791.05 L 229.45,791.04 L 235.52,791.04 L 238.67,791.03 L 245.05,791.02 L 248.37,791.02 L 255.09,791.02 L 258.57,791.01 L 265.63,791.01 L 269.29,791.01 L 276.69,791.00 L 280.52,791.00 L 288.27,791.00 L 292.28,791.00 L 300.40,791.00 L 478.78,791.00 L 480.11,780.75 L 480.29,779.02 L 480.41,777.61 L 480.46,776.77 L 480.57,774.99 L 480.61,773.95 L 480.71,771.75 L 480.75,770.49 L 480.84,767.84 L 480.88,766.33 L 480.95,763.19 L 480.99,761.42 L 481.05,757.74 L 481.08,755.69 L 481.14,751.43 L 481.17,749.07 L 481.22,744.19 L 481.24,741.51 L 481.28,735.97 L 481.30,732.94 L 481.33,726.71 L 481.35,723.31 L 481.38,716.33 L 481.39,712.55 L 481.41,704.79 L 481.42,700.60 L 481.44,692.02 L 481.44,687.40 L 481.46,677.95 L 481.46,672.89 L 481.47,662.53 L 481.47,657.00 L 481.50,543.50 L 478.32,536.78 L 475.84,532.24 L 473.97,529.40 L 472.93,528.09 L 470.77,525.53 L 469.60,524.36 L 467.20,522.10 L 465.90,521.08 L 463.27,519.13 L 461.87,518.28 L 459.02,516.66 L 457.53,515.98 L 454.50,514.71 L 452.92,514.21 L 449.73,513.31 L 448.08,513.00 L 446.87,512.88 L 445.50,512.81 L 444.54,512.77 L 442.43,512.70 L 441.11,512.66 L 438.27,512.60 L 436.59,512.57 L 433.04,512.51 L 431.00,512.48 L 426.75,512.42 L 424.36,512.39 L 419.41,512.34 L 416.67,512.32 L 411.04,512.27 L 407.96,512.25 L 401.65,512.21 L 398.24,512.19 L 391.26,512.15 L 387.52,512.14 L 379.88,512.11 L 375.81,512.09 L 367.52,512.07 L 363.14,512.06 L 354.21,512.04 L 349.51,512.03 L 339.95,512.01 L 334.94,512.01 L 324.77,512.00 L 319.45,512.00 L 317.35,512.00 L 332.50,511.95 L 332.35,455.38 M 128.31,540.22 L 127.93,541.85 L 127.76,542.83 L 127.44,544.94 L 127.30,546.23 L 127.04,548.98 L 126.93,550.64 L 126.72,554.18 L 126.63,556.29 L 126.55,558.47 L 126.51,559.66 L 126.48,560.97 L 126.50,544.50 L 128.42,539.82 M 138.51,524.51 L 136.38,526.76 L 136.46,526.66 L 138.51,524.51 L 139.56,523.46 L 139.58,523.44 M 143.95,519.87 L 145.39,518.85 L 145.96,518.47 M 167.29,512.80 L 165.47,512.91 L 162.07,513.14 L 160.68,513.28 L 158.08,513.57 L 157.03,513.74 L 155.08,514.09 L 154.28,514.30 L 153.75,514.45 L 153.93,514.38 L 155.19,513.94 L 155.87,513.73 L 157.74,513.41 L 158.27,513.33 L 159.58,513.19 L 160.28,513.13 L 161.98,513.02 L 162.88,512.96 L 165.06,512.86 L 166.22,512.82 L 168.30,512.76 M 688.85,360.48 L 688.88,371.13 L 688.89,376.56 L 688.90,387.95 L 688.90,393.72 L 688.89,405.64 L 688.88,411.65 L 688.84,423.90 L 688.83,427.83 L 688.83,425.13 L 688.84,419.06 L 688.83,415.83 L 688.83,409.24 L 688.82,405.75 L 688.81,398.64 L 688.80,394.89 L 688.79,387.26 L 688.77,383.25 L 688.50,288.50 L 688.83,355.50 M 332.87,293.30 L 332.84,294.04 L 332.77,295.63 L 332.74,296.60 L 332.68,298.65 L 332.64,299.83 L 332.59,302.29 L 332.56,303.67 L 332.50,306.53 L 332.48,308.09 L 332.42,311.30 L 332.40,313.03 L 332.35,316.58 L 332.33,318.46 L 332.29,321.93 L 332.30,321.11 L 332.33,316.76 L 332.35,314.65 L 332.40,310.83 L 332.42,308.98 L 332.47,305.68 L 332.50,304.09 L 332.56,301.31 L 332.59,299.98 L 332.65,297.72 L 332.69,296.65 L 332.76,294.91 L 332.80,294.10 L 332.88,292.88 L 332.94,292.23 M 340.23,273.41 L 340.32,273.28 L 340.35,273.23 M 340.82,272.56 L 341.56,271.50 L 341.63,271.42 M 356.58,259.33 L 354.71,260.36 L 351.03,262.56 L 349.34,263.86 L 346.04,266.58 L 344.56,268.12 L 342.87,270.01 L 344.41,268.27 L 345.89,266.71 L 349.19,263.95 L 350.89,262.63 L 354.58,260.41 L 356.48,259.37 L 360.51,257.73 L 360.58,257.71 Z" fill="rgba(242,209,83,1)" />
<path d="M 481.47,662.53 L 481.46,672.89 L 481.46,677.95 L 481.44,687.40 L 481.44,692.02 L 481.42,700.60 L 481.41,704.79 L 481.39,712.55 L 481.38,716.33 L 481.35,723.31 L 481.33,726.71 L 481.30,732.94 L 481.28,735.97 L 481.24,741.51 L 481.22,744.19 L 481.17,749.07 L 481.14,751.43 L 481.08,755.69 L 481.05,757.74 L 480.99,761.42 L 480.95,763.19 L 480.88,766.33 L 480.84,767.84 L 480.75,770.49 L 480.71,771.75 L 480.61,773.95 L 480.57,774.99 L 480.46,776.77 L 480.41,777.61 L 480.29,779.02 L 480.11,780.75 L 478.78,791.00 L 300.40,791.00 L 292.28,791.00 L 288.27,791.00 L 280.52,791.00 L 276.69,791.00 L 269.29,791.01 L 265.63,791.01 L 258.57,791.01 L 255.09,791.02 L 248.37,791.02 L 245.05,791.02 L 238.67,791.03 L 235.52,791.04 L 229.45,791.04 L 226.46,791.05 L 220.72,791.06 L 217.89,791.06 L 212.46,791.07 L 209.78,791.08 L 204.65,791.09 L 202.13,791.10 L 197.30,791.11 L 194.92,791.12 L 190.39,791.14 L 188.15,791.14 L 183.90,791.16 L 181.81,791.17 L 177.84,791.19 L 175.89,791.20 L 172.19,791.22 L 170.37,791.23 L 166.94,791.25 L 163.57,791.28 L 157.59,791.33 L 154.73,791.35 L 149.73,791.41 L 147.35,791.44 L 143.27,791.51 L 141.34,791.55 L 138.13,791.62 L 136.63,791.66 L 134.23,791.75 L 133.13,791.79 L 131.50,791.88 L 130.77,791.93 L 129.85,792.03 L 129.20,792.20 L 128.87,792.53 L 128.35,793.72 L 128.00,795.70 L 128.00,796.33 L 127.71,797.32 L 127.00,798.00 L 126.96,798.00 L 126.88,797.51 L 126.84,797.18 L 126.77,796.03 L 126.73,795.37 L 126.66,793.57 L 126.63,792.59 L 126.56,790.14 L 126.53,788.83 L 126.48,785.73 L 126.45,784.10 L 126.39,780.35 L 126.37,778.39 L 126.32,773.99 L 126.30,771.72 L 126.25,766.68 L 126.23,764.08 L 126.19,758.40 L 126.17,755.48 L 126.14,749.16 L 126.13,745.92 L 126.10,738.96 L 126.09,735.40 L 126.06,727.81 L 126.05,723.93 L 126.04,715.70 L 126.03,711.51 L 126.02,702.65 L 126.01,698.14 L 126.00,688.65 L 126.00,683.83 L 126.00,673.71 L 126.00,669.47 L 126.00,661.40 L 126.00,657.43 L 126.00,649.88 L 126.00,646.17 L 126.00,639.14 L 126.00,635.68 L 126.00,630.87 L 126.00,636.08 L 126.01,641.04 L 126.03,650.77 L 126.05,655.33 L 126.08,664.23 L 126.10,668.29 L 126.12,672.28 L 126.13,674.17 L 126.15,677.86 L 126.17,679.59 L 126.19,682.96 L 126.21,684.52 L 126.24,687.55 L 126.25,688.92 L 126.28,691.58 L 126.30,692.76 L 126.33,695.01 L 126.35,695.98 L 126.38,697.81 L 126.40,698.56 L 126.44,699.93 L 126.46,700.44 L 126.49,701.34 L 126.51,701.60 L 126.55,702.00 L 126.57,702.00 L 127.42,701.56 L 128.23,700.91 L 128.64,700.50 L 129.15,700.27 L 129.78,700.12 L 130.28,700.06 L 131.41,699.93 L 132.20,699.87 L 133.93,699.76 L 135.07,699.71 L 137.53,699.61 L 139.07,699.57 L 142.35,699.48 L 144.35,699.44 L 148.58,699.37 L 151.08,699.34 L 153.66,699.31 L 155.05,699.30 L 157.90,699.27 L 159.44,699.25 L 162.59,699.23 L 164.28,699.22 L 167.73,699.19 L 169.58,699.18 L 173.36,699.16 L 175.37,699.15 L 179.48,699.13 L 181.67,699.13 L 186.13,699.11 L 188.50,699.10 L 193.32,699.09 L 195.88,699.08 L 201.08,699.07 L 203.82,699.06 L 209.42,699.05 L 212.36,699.05 L 218.36,699.04 L 221.52,699.04 L 227.93,699.03 L 231.30,699.03 L 238.15,699.02 L 241.74,699.02 L 249.03,699.01 L 252.85,699.01 L 260.60,699.01 L 264.66,699.01 L 272.88,699.00 L 277.18,699.00 L 285.89,699.00 L 290.44,699.00 L 299.65,699.00 L 478.76,699.00 L 480.02,687.35 L 480.32,683.57 L 480.41,681.99 L 480.46,681.09 L 480.54,679.24 L 480.58,678.21 L 480.66,676.08 L 480.70,674.92 L 480.77,672.51 L 480.81,671.21 L 480.87,668.52 L 480.91,667.07 L 480.97,664.10 L 480.99,662.50 L 481.05,659.24 L 481.07,657.50 L 481.12,653.94 L 481.15,652.05 L 481.19,648.19 L 481.21,646.14 L 481.24,641.98 L 481.26,639.78 L 481.29,635.31 L 481.30,632.95 L 481.33,628.17 L 481.34,625.65 L 481.36,620.54 L 481.37,617.87 L 481.38,612.44 L 481.39,609.60 L 481.50,543.50 L 481.47,657.00 M 128.40,539.98 L 128.23,540.58 L 128.31,540.22 L 128.52,539.46 L 128.76,538.79 M 128.83,538.58 L 128.98,538.17 L 129.22,537.56 L 129.75,536.45 L 131.69,533.08 L 129.81,536.45 M 332.06,360.05 L 332.08,362.74 L 332.13,368.07 L 332.16,370.62 L 332.22,375.62 L 332.26,377.96 L 332.35,382.52 L 332.40,384.59 L 332.50,388.58 L 332.56,390.33 L 332.68,393.64 L 332.75,395.00 L 332.96,398.76 L 333.07,400.26 L 333.17,401.68 L 333.22,402.28 L 333.32,403.40 L 333.37,403.85 L 333.46,404.65 L 333.51,404.92 L 333.59,405.37 L 333.63,405.45 L 333.70,405.52 L 333.73,405.41 L 333.78,405.08 L 333.80,404.75 L 334.00,402.91 L 334.18,401.83 L 334.30,401.40 L 334.54,400.62 L 334.66,400.37 L 334.92,400.00 L 335.05,400.00 L 335.42,399.57 L 335.64,398.88 L 335.72,398.38 L 335.88,397.29 L 335.93,396.64 L 336.00,395.26 L 336.00,389.00 L 510.50,389.00 L 525.56,389.00 L 535.16,389.00 L 539.74,389.00 L 548.75,389.00 L 553.05,389.00 L 561.50,389.01 L 565.52,389.01 L 573.43,389.01 L 577.18,389.01 L 584.57,389.02 L 588.07,389.02 L 594.94,389.02 L 598.19,389.03 L 604.58,389.04 L 607.59,389.04 L 613.51,389.05 L 616.29,389.05 L 621.75,389.07 L 624.32,389.07 L 629.34,389.08 L 631.69,389.09 L 636.30,389.11 L 638.45,389.12 L 642.66,389.13 L 644.62,389.14 L 648.44,389.16 L 650.21,389.18 L 653.67,389.20 L 655.27,389.21 L 658.39,389.24 L 659.82,389.25 L 662.61,389.28 L 663.88,389.30 L 666.36,389.33 L 667.49,389.35 L 669.67,389.39 L 670.66,389.41 L 672.57,389.45 L 673.43,389.47 L 676.62,389.56 L 677.87,389.61 L 680.16,389.72 L 681.02,389.78 L 682.55,389.90 L 683.09,389.97 L 684.02,390.12 L 684.30,390.20 L 684.76,390.36 L 684.87,390.46 L 685.01,390.65 L 685.02,390.75 L 685.06,391.60 L 685.13,391.90 L 685.20,391.92 L 685.37,391.87 L 685.50,391.71 L 685.79,391.32 L 686.00,391.00 L 686.47,390.40 L 686.70,390.29 L 686.77,390.38 L 686.90,390.68 L 686.93,390.99 L 686.98,391.71 L 686.98,392.25 L 687.30,394.19 L 687.51,394.64 L 687.64,394.78 L 687.90,395.00 L 688.04,395.00 L 688.29,394.21 L 688.36,393.61 L 688.39,393.21 L 688.46,392.34 L 688.49,391.80 L 688.54,390.66 L 688.57,389.99 L 688.62,388.57 L 688.64,387.76 L 688.69,386.06 L 688.71,385.11 L 688.74,383.13 L 688.76,382.03 L 688.77,381.21 L 688.77,383.25 L 688.79,387.26 L 688.80,394.89 L 688.81,398.64 L 688.82,405.75 L 688.83,409.24 L 688.83,415.83 L 688.84,419.06 L 688.83,425.13 L 688.83,428.11 L 688.82,433.67 L 688.82,436.39 L 688.80,441.44 L 688.79,443.90 L 688.77,448.44 L 688.76,450.65 L 688.73,454.70 L 688.71,456.65 L 688.68,460.19 L 688.66,461.90 L 688.62,464.95 L 688.59,466.40 L 688.54,468.95 L 688.52,470.17 L 688.46,472.22 L 688.43,473.19 L 688.37,474.76 L 688.33,475.48 L 688.26,476.56 L 688.23,477.04 L 688.15,477.64 L 688.02,478.00 L 687.88,478.00 L 687.63,477.70 L 687.50,477.51 L 687.30,476.90 L 686.98,474.25 L 686.98,473.55 L 686.93,472.56 L 686.89,472.14 L 686.76,471.66 L 686.68,471.48 L 686.46,471.49 L 686.00,472.00 L 685.68,472.50 L 685.27,472.81 L 685.02,472.25 L 685.01,472.19 L 684.58,472.07 L 684.29,472.02 L 683.22,471.91 L 682.60,471.86 L 680.82,471.77 L 679.85,471.72 L 677.31,471.63 L 675.93,471.59 L 672.56,471.52 L 670.76,471.48 L 666.49,471.42 L 664.23,471.39 L 658.99,471.33 L 656.24,471.30 L 649.97,471.25 L 648.34,471.24 L 644.86,471.22 L 643.09,471.21 L 639.33,471.19 L 637.42,471.18 L 633.37,471.16 L 631.31,471.15 L 626.97,471.13 L 624.76,471.13 L 620.11,471.11 L 617.75,471.10 L 612.78,471.09 L 610.26,471.08 L 604.98,471.07 L 602.30,471.07 L 596.68,471.06 L 593.83,471.05 L 587.88,471.04 L 584.86,471.04 L 578.56,471.03 L 575.37,471.03 L 568.72,471.02 L 565.34,471.02 L 558.33,471.01 L 554.77,471.01 L 547.38,471.01 L 543.64,471.01 L 535.87,471.00 L 531.94,471.00 L 523.79,471.00 L 511.11,471.00 L 506.18,471.00 L 496.74,471.00 L 492.08,471.00 L 483.17,471.00 L 478.78,471.00 L 470.39,471.00 L 466.26,471.01 L 458.37,471.01 L 454.49,471.01 L 447.08,471.02 L 443.44,471.02 L 436.51,471.02 L 433.10,471.03 L 426.63,471.03 L 423.45,471.04 L 417.41,471.05 L 414.45,471.05 L 408.84,471.06 L 406.09,471.07 L 400.89,471.08 L 398.34,471.08 L 393.54,471.10 L 391.18,471.11 L 386.76,471.12 L 384.60,471.13 L 380.54,471.15 L 378.55,471.16 L 374.84,471.18 L 373.03,471.19 L 369.65,471.21 L 368.00,471.23 L 364.95,471.25 L 363.46,471.27 L 360.70,471.30 L 359.36,471.31 L 356.89,471.34 L 354.49,471.38 L 350.50,471.45 L 348.62,471.49 L 345.57,471.58 L 344.15,471.63 L 341.94,471.73 L 340.92,471.78 L 339.41,471.90 L 338.73,471.97 L 337.80,472.10 L 337.39,472.17 L 336.93,472.33 L 336.61,472.58 L 336.52,472.80 L 336.37,473.47 L 336.30,473.84 L 336.18,474.72 L 336.00,477.64 L 336.00,478.62 L 335.72,479.94 L 335.64,480.20 L 335.42,480.49 L 335.05,480.53 L 334.91,480.44 L 334.64,480.79 L 334.51,481.04 L 334.28,482.00 L 334.17,482.55 L 333.99,484.03 L 333.80,486.72 L 333.78,487.19 L 333.72,487.68 L 333.69,487.85 L 333.62,487.78 L 333.59,487.68 L 333.50,487.09 L 333.46,486.73 L 333.37,485.66 L 333.32,485.06 L 333.22,483.54 L 333.17,482.72 L 333.06,480.79 L 333.01,479.77 L 332.91,477.45 L 332.85,476.25 L 332.75,473.59 L 332.71,472.63 L 332.65,470.39 L 332.61,469.21 L 332.55,466.56 L 332.52,465.19 L 332.46,462.17 L 332.43,460.61 L 332.38,457.24 L 332.36,455.52 L 332.31,451.83 L 332.29,449.96 L 332.24,445.99 L 332.20,441.96 L 332.14,433.18 L 332.11,428.69 L 332.06,419.17 L 332.04,414.34 L 332.02,404.34 L 332.00,394.25 L 332.01,373.65 L 332.02,368.54 L 332.05,358.52 L 332.05,357.78 M 332.94,292.18 L 333.06,291.09 L 332.94,292.24 Z" fill="rgba(244,215,99,1)" />
<path d="M 478.76,699.00 L 478.72,699.00 L 479.32,693.80 M 481.26,639.78 L 481.24,641.98 L 481.21,646.14 L 481.19,648.19 L 481.15,652.05 L 481.12,653.94 L 481.07,657.50 L 481.05,659.24 L 480.99,662.50 L 480.97,664.10 L 480.91,667.07 L 480.87,668.52 L 480.81,671.21 L 480.77,672.51 L 480.70,674.92 L 480.66,676.08 L 480.58,678.21 L 480.54,679.24 L 480.46,681.09 L 480.41,681.99 L 480.32,683.57 L 480.20,685.11 L 480.27,683.81 L 480.31,682.93 L 480.40,681.09 L 480.44,680.06 L 480.52,677.93 L 480.56,676.75 L 480.63,674.32 L 480.67,673.00 L 480.75,670.28 L 480.78,668.81 L 480.85,665.82 L 480.88,664.22 L 480.95,660.94 L 480.98,659.21 L 481.04,655.67 L 481.07,653.80 L 481.18,646.07 L 481.23,641.82 L 481.28,637.42 M 280.44,511.99 L 289.21,511.99 L 303.05,511.99 L 308.67,511.99 L 319.45,512.00 L 324.77,512.00 L 334.94,512.01 L 339.95,512.01 L 349.51,512.03 L 354.21,512.04 L 363.14,512.06 L 367.52,512.07 L 375.81,512.09 L 379.88,512.11 L 387.52,512.14 L 391.26,512.15 L 398.24,512.19 L 401.65,512.21 L 407.96,512.25 L 411.04,512.27 L 416.67,512.32 L 419.41,512.34 L 424.36,512.39 L 426.75,512.42 L 431.00,512.48 L 433.04,512.51 L 436.59,512.57 L 438.27,512.60 L 441.11,512.66 L 442.43,512.70 L 444.54,512.77 L 445.50,512.81 L 446.87,512.88 L 448.08,513.00 L 449.73,513.31 L 452.92,514.21 L 454.50,514.71 L 457.53,515.98 L 459.02,516.66 L 461.87,518.28 L 463.27,519.13 L 465.90,521.08 L 467.20,522.10 L 469.60,524.36 L 470.77,525.53 L 472.93,528.09 L 473.97,529.40 L 475.84,532.24 L 478.32,536.78 L 481.50,543.50 L 481.46,566.45 L 481.45,566.24 L 481.43,566.12 L 481.40,565.98 L 481.37,566.09 L 481.33,566.42 L 481.31,566.77 L 481.26,567.57 L 481.23,568.15 L 481.18,569.42 L 481.15,570.23 L 481.08,571.96 L 481.05,573.00 L 480.69,583.08 L 480.42,589.56 L 480.28,592.43 L 480.15,595.24 L 480.08,596.50 L 479.95,598.95 L 479.88,600.00 L 479.76,601.99 L 479.70,602.79 L 479.58,604.25 L 479.53,604.75 L 478.80,612.00 L 304.40,612.00 L 283.39,612.00 L 270.05,612.01 L 263.72,612.02 L 251.27,612.03 L 245.38,612.04 L 233.82,612.05 L 228.38,612.06 L 217.72,612.09 L 212.73,612.10 L 202.96,612.13 L 198.42,612.14 L 189.55,612.17 L 185.46,612.19 L 177.49,612.23 L 173.85,612.25 L 166.79,612.29 L 163.60,612.32 L 157.44,612.37 L 154.70,612.39 L 149.45,612.45 L 147.17,612.47 L 142.82,612.53 L 140.99,612.56 L 137.56,612.63 L 136.19,612.66 L 133.67,612.73 L 132.75,612.77 L 131.15,612.84 L 130.69,612.88 L 130.00,612.96 L 130.00,613.00 L 129.71,613.71 L 129.28,614.00 L 129.00,614.00 L 128.61,613.77 L 128.38,613.40 L 128.29,613.14 L 128.00,611.87 L 128.00,611.06 L 127.71,608.80 L 127.51,608.20 L 127.39,607.97 L 127.14,607.58 L 127.00,607.50 L 126.77,608.11 L 126.63,609.28 L 126.56,610.24 L 126.45,612.42 L 126.39,613.88 L 126.29,617.06 L 126.25,619.02 L 126.17,623.20 L 126.14,625.66 L 126.08,630.83 L 126.06,633.78 L 126.03,639.93 L 126.02,643.30 L 126.01,641.04 L 126.00,636.08 L 126.00,625.71 L 126.00,623.11 L 126.00,618.16 L 126.00,615.73 L 126.00,611.09 L 126.00,608.80 L 126.00,604.46 L 126.01,602.33 L 126.01,598.28 L 126.01,596.28 L 126.02,592.51 L 126.03,590.65 L 126.04,587.14 L 126.05,583.70 L 126.09,577.56 L 126.11,574.60 L 126.17,569.37 L 126.21,566.86 L 126.30,562.46 L 126.35,560.35 L 126.47,556.68 L 126.54,554.92 L 126.71,551.89 L 126.80,550.45 L 127.01,547.97 L 127.12,546.79 L 127.38,544.76 L 127.52,543.80 L 127.84,542.15 L 128.01,541.36 L 128.40,539.98 L 128.80,538.66 L 129.81,536.45 L 131.69,533.08 L 132.52,531.67 L 134.70,528.76 L 135.85,527.32 L 138.51,524.51 L 139.88,523.15 L 142.76,520.70 L 147.08,517.69 L 148.35,516.95 L 150.44,515.74 L 150.98,515.46 L 152.17,514.96 L 152.80,514.72 L 154.28,514.30 L 155.08,514.09 L 157.03,513.74 L 158.08,513.57 L 160.68,513.28 L 162.07,513.14 L 165.47,512.91 L 167.29,512.80 L 171.68,512.62 L 172.85,512.58 L 175.39,512.50 L 176.70,512.46 L 179.56,512.40 L 181.02,512.36 L 184.20,512.31 L 185.83,512.28 L 189.36,512.23 L 191.17,512.21 L 195.06,512.17 L 197.06,512.15 L 201.34,512.12 L 203.54,512.11 L 208.24,512.08 L 210.64,512.07 L 215.77,512.05 L 218.39,512.04 L 223.98,512.03 L 226.83,512.02 L 232.90,512.01 L 235.99,512.01 L 242.55,512.00 L 245.90,512.00 L 252.98,512.00 L 256.59,511.99 L 264.21,511.99 L 268.09,511.99 L 276.28,511.99 M 688.23,394.36 L 688.37,393.29 L 688.43,392.44 L 688.55,390.53 L 688.54,390.66 L 688.49,391.80 L 688.46,392.34 L 688.39,393.21 L 688.36,393.61 L 688.29,394.21 L 688.04,395.00 L 688.00,395.00 M 458.20,255.14 L 463.86,255.15 L 475.69,255.17 L 481.68,255.19 L 494.07,255.23 L 500.33,255.25 L 513.17,255.30 L 519.63,255.34 L 532.82,255.41 L 539.44,255.45 L 552.87,255.54 L 593.50,255.88 L 658.50,256.50 L 664.00,259.10 L 666.24,260.15 L 670.27,262.73 L 672.21,264.11 L 675.68,267.35 L 677.35,269.07 L 680.33,273.04 L 684.28,279.87 L 688.50,288.50 L 688.70,324.48 L 688.65,322.99 L 688.60,321.73 L 688.49,319.41 L 688.43,318.56 L 688.30,317.07 L 688.23,316.64 L 688.08,316.00 L 688.00,316.00 L 687.61,315.74 L 687.38,315.34 L 687.29,315.05 L 686.99,313.64 L 686.98,312.75 L 686.93,311.28 L 686.84,310.66 L 686.76,310.52 L 686.59,310.36 L 686.46,310.45 L 686.18,310.72 L 686.00,311.00 L 685.52,311.65 L 685.29,311.82 L 685.22,311.76 L 685.10,311.56 L 685.06,311.31 L 685.02,310.70 L 685.02,310.25 L 685.00,308.00 L 336.00,308.00 L 336.00,313.56 L 335.93,315.84 L 335.82,317.04 L 335.73,317.47 L 335.54,318.20 L 335.42,318.38 L 335.16,318.60 L 335.00,318.50 L 334.57,318.65 L 334.32,319.16 L 334.22,319.61 L 334.03,320.63 L 333.96,321.32 L 333.84,322.80 L 333.81,323.69 L 333.75,325.36 L 333.72,326.21 L 333.70,326.50 L 333.65,326.99 L 333.63,327.09 L 333.58,327.20 L 333.55,327.10 L 333.49,326.82 L 333.46,326.52 L 333.38,325.83 L 333.34,325.32 L 333.24,324.21 L 333.19,323.49 L 333.07,321.94 L 333.00,321.00 L 332.92,320.08 L 332.86,319.69 L 332.84,319.61 L 332.79,319.51 L 332.76,319.57 L 332.71,319.75 L 332.69,319.93 L 332.60,320.92 L 332.56,321.77 L 332.49,323.67 L 332.45,324.92 L 332.39,327.62 L 332.36,329.21 L 332.31,332.55 L 332.29,334.43 L 332.25,338.29 L 332.23,340.38 L 332.21,344.64 L 332.20,346.87 L 332.19,356.04 L 332.20,360.71 L 332.24,370.03 L 332.29,374.39 L 332.34,378.67 L 332.37,380.67 L 332.43,384.57 L 332.47,386.33 L 332.55,389.72 L 332.60,391.18 L 332.70,393.92 L 332.68,393.64 L 332.56,390.33 L 332.50,388.58 L 332.40,384.59 L 332.35,382.52 L 332.26,377.96 L 332.22,375.62 L 332.16,370.62 L 332.13,368.07 L 332.08,362.74 L 332.06,360.05 L 332.04,354.51 L 332.02,348.94 L 332.03,337.66 L 332.04,334.87 L 332.07,329.40 L 332.09,326.70 L 332.13,321.49 L 332.16,318.93 L 332.23,314.09 L 332.26,311.74 L 332.34,307.40 L 332.39,305.30 L 332.48,301.57 L 332.54,299.79 L 332.65,296.79 L 332.71,295.39 L 332.84,293.24 L 333.06,291.09 L 333.41,288.88 L 334.62,284.63 L 335.31,282.55 L 337.12,278.60 L 338.10,276.66 L 340.46,273.06 L 341.70,271.31 L 344.56,268.12 L 346.04,266.58 L 349.34,263.86 L 351.03,262.56 L 354.71,260.36 L 356.58,259.33 L 360.58,257.71 L 366.89,256.01 L 367.07,255.97 L 367.75,255.90 L 368.14,255.87 L 369.21,255.81 L 369.80,255.78 L 371.26,255.72 L 372.04,255.69 L 373.87,255.64 L 374.83,255.61 L 377.02,255.56 L 378.16,255.54 L 380.70,255.50 L 382.01,255.47 L 384.88,255.43 L 386.35,255.41 L 389.53,255.37 L 391.17,255.36 L 394.66,255.32 L 396.44,255.31 L 400.22,255.28 L 402.14,255.26 L 406.20,255.24 L 408.26,255.23 L 412.59,255.21 L 416.97,255.19 L 426.48,255.16 L 431.35,255.15 L 441.74,255.14 L 447.03,255.14 M 290.44,699.00 L 285.89,699.00 L 277.18,699.00 L 272.88,699.00 L 264.66,699.01 L 260.60,699.01 L 252.85,699.01 L 249.03,699.01 L 241.74,699.02 L 238.15,699.02 L 231.30,699.03 L 227.93,699.03 L 221.52,699.04 L 218.36,699.04 L 212.36,699.05 L 209.42,699.05 L 203.82,699.06 L 201.08,699.07 L 195.88,699.08 L 193.32,699.09 L 188.50,699.10 L 186.13,699.11 L 181.67,699.13 L 179.48,699.13 L 175.37,699.15 L 173.36,699.16 L 169.58,699.18 L 167.73,699.19 L 164.28,699.22 L 162.59,699.23 L 159.44,699.25 L 157.90,699.27 L 155.05,699.30 L 153.66,699.31 L 151.08,699.34 L 148.58,699.37 L 144.35,699.44 L 142.35,699.48 L 139.07,699.57 L 137.53,699.61 L 135.07,699.71 L 133.93,699.76 L 132.20,699.87 L 131.41,699.93 L 130.28,700.06 L 129.78,700.12 L 129.15,700.27 L 128.64,700.50 L 129.15,700.27 L 129.78,700.12 L 130.28,700.06 L 131.41,699.93 L 132.19,699.87 L 133.93,699.76 L 135.07,699.71 L 137.53,699.61 L 139.06,699.57 L 142.35,699.48 L 144.35,699.44 L 148.58,699.37 L 151.08,699.34 L 153.66,699.31 L 155.05,699.30 L 157.90,699.27 L 159.44,699.25 L 162.58,699.23 L 164.27,699.22 L 167.73,699.19 L 169.57,699.18 L 173.35,699.16 L 175.37,699.15 L 179.48,699.13 L 181.66,699.13 L 186.12,699.11 L 188.49,699.10 L 193.32,699.09 L 195.87,699.08 L 201.07,699.07 L 203.82,699.06 L 209.41,699.05 L 212.35,699.05 L 218.35,699.04 L 221.50,699.04 L 227.92,699.03 L 231.29,699.03 L 238.13,699.02 L 241.72,699.02 L 249.02,699.01 L 252.83,699.01 L 260.59,699.01 L 264.64,699.01 L 272.86,699.00 L 277.16,699.00 L 285.87,699.00 L 290.42,699.00 L 299.63,699.00 L 299.65,699.00 Z" fill="rgba(248,227,129,1)" />
<path d="M 126.00,654.44 L 126.00,650.51 L 126.02,643.38 L 126.03,639.93 L 126.06,633.78 L 126.08,630.83 L 126.14,625.66 L 126.17,623.20 L 126.25,619.02 L 126.29,617.06 L 126.39,613.88 L 126.45,612.42 L 126.56,610.24 L 126.63,609.28 L 126.77,608.11 L 127.00,607.50 L 127.14,607.58 L 127.39,607.97 L 127.51,608.20 L 127.71,608.80 L 128.00,611.06 L 128.00,611.87 L 128.29,613.14 L 128.38,613.40 L 128.61,613.77 L 129.00,614.00 L 129.28,614.00 L 129.71,613.71 L 130.00,613.00 L 130.00,612.96 L 130.69,612.88 L 131.15,612.84 L 132.75,612.77 L 133.67,612.73 L 136.19,612.66 L 137.56,612.63 L 140.99,612.56 L 142.82,612.53 L 147.17,612.47 L 149.45,612.45 L 154.70,612.39 L 157.44,612.37 L 163.60,612.32 L 166.79,612.29 L 173.85,612.25 L 177.49,612.23 L 185.46,612.19 L 189.55,612.17 L 198.42,612.14 L 202.96,612.13 L 212.73,612.10 L 217.72,612.09 L 228.38,612.06 L 233.82,612.05 L 245.38,612.04 L 251.27,612.03 L 263.72,612.02 L 270.05,612.01 L 283.39,612.00 L 304.40,612.00 L 478.80,612.00 L 479.53,604.75 L 479.58,604.25 L 479.70,602.79 L 479.76,601.99 L 479.88,600.00 L 479.95,598.95 L 480.08,596.50 L 480.15,595.24 L 480.28,592.43 L 480.42,589.56 L 480.69,583.08 L 481.05,573.00 L 481.08,571.96 L 481.15,570.23 L 481.18,569.42 L 481.23,568.15 L 481.26,567.57 L 481.31,566.77 L 481.33,566.42 L 481.37,566.09 L 481.40,565.98 L 481.43,566.12 L 481.45,566.24 L 481.48,566.85 L 481.50,567.21 L 481.52,568.29 L 481.53,568.88 L 481.55,570.44 L 481.56,571.27 L 481.57,573.30 L 481.58,574.37 L 481.58,576.88 L 481.59,578.19 L 481.59,581.17 L 481.59,582.73 L 481.58,586.19 L 481.58,587.98 L 481.56,591.93 L 481.56,593.96 L 481.54,598.39 L 481.53,600.67 L 481.51,605.58 L 481.46,613.50 L 481.44,618.68 L 481.36,628.36 L 481.32,633.09 L 481.23,641.82 L 481.18,646.07 L 481.07,653.80 L 481.04,655.67 L 480.98,659.21 L 480.95,660.94 L 480.88,664.22 L 480.85,665.82 L 480.78,668.81 L 480.75,670.28 L 480.67,673.00 L 480.63,674.32 L 480.56,676.75 L 480.52,677.93 L 480.44,680.06 L 480.40,681.09 L 480.31,682.93 L 480.27,683.81 L 480.18,685.34 L 480.14,686.07 L 480.05,687.28 L 479.91,688.75 L 478.72,699.00 L 304.43,699.00 L 299.63,699.00 L 290.42,699.00 L 285.87,699.00 L 277.16,699.00 L 272.86,699.00 L 264.64,699.01 L 260.59,699.01 L 252.83,699.01 L 249.02,699.01 L 241.72,699.02 L 238.13,699.02 L 231.29,699.03 L 227.92,699.03 L 221.50,699.04 L 218.35,699.04 L 212.35,699.05 L 209.41,699.05 L 203.82,699.06 L 201.07,699.07 L 195.87,699.08 L 193.32,699.09 L 188.49,699.10 L 186.12,699.11 L 181.66,699.13 L 179.48,699.13 L 175.37,699.15 L 173.35,699.16 L 169.57,699.18 L 167.73,699.19 L 164.27,699.22 L 162.58,699.23 L 159.44,699.25 L 157.90,699.27 L 155.05,699.30 L 153.66,699.31 L 151.08,699.34 L 148.58,699.37 L 144.35,699.44 L 142.35,699.48 L 139.06,699.57 L 137.53,699.61 L 135.07,699.71 L 133.93,699.76 L 132.19,699.87 L 131.41,699.93 L 130.28,700.06 L 129.78,700.12 L 129.15,700.27 L 128.64,700.50 L 128.23,700.91 L 127.42,701.56 L 126.57,702.00 L 126.55,702.00 L 126.51,701.75 L 126.49,701.59 L 126.46,701.03 L 126.44,700.71 L 126.40,699.85 L 126.38,699.39 L 126.35,698.25 L 126.32,697.04 L 126.25,693.85 L 126.22,692.14 L 126.17,688.03 L 126.14,685.87 L 126.10,680.98 L 126.08,678.45 L 126.05,672.91 L 126.03,670.06 L 126.01,663.99 L 126.00,660.91 M 332.75,395.00 L 332.70,393.92 L 332.60,391.18 L 332.55,389.72 L 332.47,386.33 L 332.43,384.57 L 332.37,380.67 L 332.34,378.67 L 332.29,374.39 L 332.24,370.03 L 332.20,360.71 L 332.19,356.04 L 332.20,346.87 L 332.21,344.64 L 332.23,340.38 L 332.25,338.29 L 332.29,334.43 L 332.31,332.55 L 332.36,329.21 L 332.39,327.62 L 332.45,324.92 L 332.49,323.67 L 332.56,321.77 L 332.60,320.92 L 332.69,319.93 L 332.71,319.75 L 332.76,319.57 L 332.79,319.51 L 332.84,319.61 L 332.86,319.69 L 332.92,320.08 L 333.00,321.00 L 333.07,321.94 L 333.19,323.49 L 333.24,324.21 L 333.34,325.32 L 333.38,325.83 L 333.46,326.52 L 333.49,326.82 L 333.55,327.10 L 333.58,327.20 L 333.63,327.09 L 333.65,326.99 L 333.70,326.50 L 333.72,326.21 L 333.75,325.36 L 333.81,323.69 L 333.84,322.80 L 333.96,321.32 L 334.03,320.63 L 334.22,319.61 L 334.32,319.16 L 334.57,318.65 L 335.00,318.50 L 335.16,318.60 L 335.42,318.38 L 335.54,318.20 L 335.73,317.47 L 335.82,317.04 L 335.93,315.84 L 336.00,313.56 L 336.00,308.00 L 510.50,308.00 L 685.00,308.00 L 685.02,310.25 L 685.02,310.70 L 685.06,311.31 L 685.10,311.56 L 685.22,311.76 L 685.29,311.82 L 685.52,311.65 L 686.00,311.00 L 686.18,310.72 L 686.46,310.45 L 686.59,310.36 L 686.76,310.52 L 686.84,310.66 L 686.93,311.28 L 686.98,312.75 L 686.99,313.64 L 687.29,315.05 L 687.38,315.34 L 687.61,315.74 L 688.00,316.00 L 688.08,316.00 L 688.23,316.64 L 688.30,317.07 L 688.43,318.56 L 688.49,319.41 L 688.60,321.73 L 688.65,322.99 L 688.74,326.12 L 688.79,327.79 L 688.85,331.72 L 688.89,333.79 L 688.94,338.50 L 688.96,340.95 L 688.98,346.43 L 689.00,355.50 L 689.00,358.71 L 688.98,364.57 L 688.97,367.40 L 688.94,372.50 L 688.91,374.95 L 688.85,379.28 L 688.82,381.34 L 688.74,384.88 L 688.70,386.54 L 688.60,389.27 L 688.55,390.53 L 688.43,392.44 L 688.37,393.29 L 688.23,394.36 L 688.00,395.00 L 687.86,395.00 L 687.61,394.78 L 687.49,394.64 L 687.29,394.19 L 686.98,392.25 L 686.98,391.71 L 686.93,390.99 L 686.90,390.68 L 686.77,390.38 L 686.70,390.29 L 686.47,390.40 L 686.00,391.00 L 685.79,391.32 L 685.50,391.71 L 685.37,391.87 L 685.20,391.92 L 685.13,391.90 L 685.06,391.60 L 685.02,390.75 L 685.01,390.65 L 684.87,390.46 L 684.76,390.36 L 684.30,390.20 L 684.02,390.12 L 683.09,389.97 L 682.55,389.90 L 681.02,389.78 L 680.16,389.72 L 677.87,389.61 L 676.62,389.56 L 673.43,389.47 L 672.57,389.45 L 670.66,389.41 L 669.67,389.39 L 667.49,389.35 L 666.36,389.33 L 663.88,389.30 L 662.61,389.28 L 659.82,389.25 L 658.39,389.24 L 655.27,389.21 L 653.67,389.20 L 650.21,389.18 L 648.44,389.16 L 644.62,389.14 L 642.66,389.13 L 638.45,389.12 L 636.30,389.11 L 631.69,389.09 L 629.34,389.08 L 624.32,389.07 L 621.75,389.07 L 616.29,389.05 L 613.51,389.05 L 607.59,389.04 L 604.58,389.04 L 598.19,389.03 L 594.94,389.02 L 588.07,389.02 L 584.57,389.02 L 577.18,389.01 L 573.43,389.01 L 565.52,389.01 L 561.50,389.01 L 553.05,389.00 L 548.75,389.00 L 539.74,389.00 L 535.16,389.00 L 525.56,389.00 L 510.50,389.00 L 336.00,389.00 L 336.00,394.50 L 336.00,395.26 L 335.93,396.64 L 335.88,397.29 L 335.72,398.38 L 335.64,398.88 L 335.42,399.57 L 335.05,400.00 L 334.92,400.00 L 334.66,400.37 L 334.54,400.62 L 334.30,401.40 L 334.18,401.83 L 334.00,402.91 L 333.80,404.75 L 333.78,405.08 L 333.73,405.41 L 333.70,405.52 L 333.63,405.45 L 333.59,405.37 L 333.51,404.92 L 333.46,404.65 L 333.37,403.85 L 333.32,403.40 L 333.22,402.28 L 333.17,401.68 L 333.07,400.26 L 332.96,398.76 Z" fill="rgba(246,221,114,1)" />
</g>
</svg>