<?xml version="1.0" standalone="no"?>
<!DOCTYPE svg PUBLIC "-//W3C//DTD SVG 20010904//EN"
 "http://www.w3.org/TR/2001/REC-SVG-20010904/DTD/svg10.dtd">
<svg version="1.0" xmlns="http://www.w3.org/2000/svg"
 width="300.000000pt" height="300.000000pt" viewBox="0 0 300.000000 300.000000"
 preserveAspectRatio="xMidYMid meet">

<g transform="translate(0.000000,300.000000) scale(0.100000,-0.100000)"
fill="#000000" stroke="none">
<path d="M0 1500 l0 -1500 1500 0 1500 0 0 1500 0 1500 -1500 0 -1500 0 0
-1500z m1350 930 c49 -33 94 -60 100 -60 5 0 10 -3 10 -7 0 -5 12 -13 26 -20
25 -12 35 -7 151 67 71 46 136 80 150 80 15 0 74 -33 144 -80 66 -45 124 -78
131 -74 7 4 8 3 4 -4 -4 -7 7 -18 28 -29 20 -9 36 -20 36 -25 0 -4 4 -8 9 -8
17 0 101 -61 111 -80 6 -10 10 -74 10 -142 l0 -124 88 -67 c148 -112 136 -86
140 -315 2 -108 1 -211 -3 -229 -4 -22 -21 -43 -60 -75 -31 -23 -80 -63 -110
-87 l-55 -43 0 -120 c0 -125 -12 -169 -49 -182 -9 -3 -34 -16 -56 -29 -251
-151 -394 -230 -417 -230 -15 0 -69 25 -127 60 l-100 61 -46 -29 c-25 -16 -47
-29 -49 -29 -2 0 -30 -16 -62 -35 -69 -42 -77 -41 -177 19 -70 42 -166 98
-237 139 -19 11 -48 28 -65 38 -16 10 -44 26 -62 35 -17 9 -36 28 -42 41 -6
13 -11 79 -12 146 l0 122 -110 84 -109 84 0 233 0 234 110 87 110 88 0 122 c0
67 3 129 6 138 6 14 329 236 419 287 48 27 70 22 165 -42z"/>
<path d="M1173 2313 l-53 -36 0 -157 c0 -175 -6 -193 -59 -193 -54 0 -60 15
-62 146 0 64 -4 117 -8 117 -4 0 -29 -14 -54 -31 l-47 -31 0 -101 0 -102 85
-58 85 -58 80 43 80 43 0 123 c0 109 2 124 20 142 11 11 31 20 45 20 14 0 34
-9 45 -20 18 -18 20 -33 20 -159 0 -77 -4 -151 -9 -164 -7 -17 -42 -42 -115
-82 l-106 -58 0 -88 0 -89 93 -46 c50 -25 98 -50 105 -56 8 -7 12 -42 12 -109
0 -112 0 -112 70 -70 l45 27 3 85 3 85 -57 34 c-71 44 -82 55 -90 87 -6 21 -1
31 20 50 15 13 33 23 41 23 7 0 56 -28 107 -62 l93 -63 3 -197 2 -198 72 0
c52 0 83 6 115 21 38 18 48 19 74 9 81 -34 92 -137 18 -176 -38 -19 -67 -18
-112 6 -26 14 -56 20 -102 20 l-65 0 0 -108 0 -108 85 -48 84 -48 148 88 c81
48 168 99 193 114 l45 26 5 133 c4 119 7 135 26 149 11 10 37 30 57 46 20 16
37 32 37 35 0 15 -105 63 -142 66 -49 3 -98 49 -98 91 0 55 49 104 103 104 32
0 86 -36 92 -62 4 -15 31 -38 78 -66 l72 -42 3 160 c2 121 -1 164 -10 173 -7
7 -36 29 -63 50 -55 41 -120 94 -142 115 -7 8 -13 35 -13 63 l0 49 -122 0
c-102 0 -129 -3 -164 -20 -34 -17 -47 -19 -70 -10 -67 26 -91 81 -63 143 22
48 106 63 152 27 22 -17 40 -20 141 -20 93 0 118 3 122 15 6 15 -33 54 -76 77
-14 7 -79 48 -144 92 -112 74 -121 78 -142 65 -12 -8 -61 -38 -108 -67 l-86
-54 2 -216 3 -216 65 -38 c39 -23 78 -38 98 -38 63 0 112 -44 112 -101 0 -56
-67 -108 -121 -94 -32 8 -66 37 -70 60 -3 15 -118 95 -137 95 -3 0 -20 11 -39
26 l-33 25 0 242 c0 133 -4 247 -8 253 -9 13 -198 134 -209 133 -4 0 -32 -16
-60 -36z"/>
<path d="M765 1768 c-27 -22 -62 -50 -77 -62 -24 -18 -28 -29 -28 -69 0 -27 3
-47 8 -45 4 2 42 23 85 46 61 34 84 42 105 37 33 -8 42 -21 42 -62 0 -29 -6
-35 -97 -89 -54 -31 -108 -63 -120 -71 -30 -17 -33 -95 -5 -118 34 -28 184
-145 186 -145 2 0 43 22 92 50 49 27 98 50 109 50 37 -1 57 -25 53 -66 -3 -38
-5 -40 -115 -102 l-113 -64 0 -73 c0 -83 -3 -79 113 -144 l57 -33 106 61 c59
34 118 61 133 61 47 0 76 -51 52 -89 -5 -7 -45 -35 -90 -61 l-82 -46 51 -28
51 -28 84 49 85 48 0 173 c0 94 -2 172 -6 172 -3 0 -51 -26 -107 -58 -256
-147 -275 -155 -318 -132 -19 11 -27 63 -11 86 4 6 43 30 87 54 44 24 88 48
98 54 14 9 17 26 17 111 l0 101 -73 38 -74 38 -93 -61 c-51 -34 -99 -61 -107
-61 -18 0 -63 45 -63 64 0 25 45 69 106 105 94 55 91 51 93 149 l2 87 -80 58
c-44 31 -86 57 -93 56 -7 0 -35 -18 -63 -41z"/>
</g>
</svg>
