<?xml version="1.0" encoding="UTF-8"?>
<svg id="Layer_1" data-name="Layer 1" xmlns="http://www.w3.org/2000/svg" viewBox="0 0 1200 517.5">
  <defs>
    <style>
      .cls-1 {
        fill: #b73e0f;
      }

      .cls-2 {
        fill: #fff;
      }

      .cls-3 {
        fill: #f5fffd;
      }

      .cls-4 {
        fill: #ffe7de;
      }

      .cls-5 {
        fill: #fe5000;
      }

      .cls-6 {
        fill: #f49067;
      }

      .cls-7 {
        fill: #383838;
      }

      .cls-8 {
        fill: #8a1f04;
      }
    </style>
  </defs>
  <rect class="cls-3" x="0" width="1200" height="517.5"/>
  <g>
    <g>
      <g>
        <g>
          <path class="cls-6" d="m1076.4,232.2c-13.29-59.79-66.86-104.29-130.58-103.81-2.8.02-5.59.13-8.35.32l37.84-38.41-42.68-48.5c4.15-.26,8.32-.42,12.53-.45,111.64-.84,204.46,81.7,219.35,189.39l-47.33,41.64-40.79-40.19Z"/>
          <path class="cls-5" d="m976.86,478.89l-42.21-47.97,39.2-39.79c60.75-12.56,106.21-66.59,105.72-130.99-.02-2.69-.12-5.36-.3-8l37.46,36.9,49.35-43.42c.32,4.58.5,9.21.54,13.86.84,111.76-81.89,204.67-189.75,219.4Z"/>
          <path class="cls-1" d="m817.6,288.82c12.71,60.55,65.97,105.53,130.22,105.05,2.14-.02,4.27-.08,6.39-.2l-36.22,36.77,43.96,49.96c-4.46.3-8.95.48-13.48.51-112.2.84-204.7-84.96-218.89-193.44l40.7-39.16,47.31,40.51Z"/>
          <path class="cls-6" d="m381.98,229.66c-13.29-59.79-66.08-100.7-129.8-100.22-2.8.02-5.59.13-8.35.32l37.84-38.41-42.68-48.5c4.15-.26,8.32-.42,12.53-.45,111.64-.84,203.67,81.04,218.57,188.73l-40.79,40.19-47.33-41.64Z"/>
          <path class="cls-1" d="m123.27,289.6c12.71,60.55,66.65,105.8,130.9,105.32,2.14-.02,4.27-.08,6.39-.2l-36.22,36.77,43.96,49.96c-4.46.3-8.95.48-13.48.51-112.2.84-205.39-82.53-219.57-191.02l47.21-41.54,40.8,40.19Z"/>
          <path class="cls-8" d="m223.83,132.69c-59.58,13.44-103.87,66.91-103.4,130.49.02,2.26.09,4.5.22,6.73l-37.72-37.16-49.12,43.22c-.25-4.02-.39-8.07-.42-12.14-.84-112.07,82.35-205.18,190.65-219.52l40.98,46.57-41.19,41.81Z"/>
          <path class="cls-8" d="m470.1,231.12c13.29-59.79,66.86-104.29,130.58-103.81,2.8.02,5.59.13,8.35.32l-37.84-38.41,42.68-48.5c-4.15-.26-8.32-.42-12.53-.45-111.64-.84-204.46,81.7-219.35,189.39l47.33,41.64,40.79-40.19Z"/>
          <path class="cls-6" d="m569.65,477.81l42.21-47.97-39.2-39.79c-49.36-10.2-88.62-47.79-101.35-96.06-2.94-11.14,1.66,2.01,1.66-33.45,0-2.69-.71-11.22-.54-13.86l-49.35,43.42-37.46-36.9c-.32,4.58.08,12.74.04,17.39-.09,11.42-.24,10.8,1.36,21.77.33,2.29-4.12,4.25-3.72,6.52,16.58,93.07,91.81,166.03,186.35,178.95Z"/>
          <path class="cls-5" d="m729.59,287.48c-12.71,60.55-66.65,105.8-130.9,105.32-2.14-.02-4.27-.08-6.39-.2l36.22,36.77-43.96,49.96c4.46.3,8.95.48,13.48.51,112.2.84,205.39-82.53,219.57-191.02l-47.21-41.54-40.8,40.19Z"/>
          <path class="cls-1" d="m629.02,130.56c59.58,13.44,103.87,66.91,103.4,130.49-.02,2.26-.09,4.5-.22,6.73l37.72-37.16,49.12,43.22c.25-4.02.39-8.07.42-12.14.84-112.07-82.35-205.18-190.65-219.52l-40.98,46.57,41.19,41.81Z"/>
          <path class="cls-5" d="m283.21,479.93l-42.21-47.97,39.2-39.79c60.75-12.56,106.21-66.59,105.72-130.99-.02-2.69-.12-5.36-.3-8l37.46,36.9,49.35-43.42c.32,4.58.5,9.21.54,13.86.84,111.76-81.89,204.67-189.75,219.4Z"/>
          <path class="cls-8" d="m917.48,131.64c-59.58,13.44-98.51,68.41-98.04,131.99.02,2.26-.53,7.99-.4,10.22l-49.12-43.22-42.46,44.3c-.25-4.02-.39-8.07-.42-12.14-.84-112.07,82.35-205.18,190.65-219.52l40.98,46.57-41.19,41.81Z"/>
        </g>
        <circle class="cls-4" cx="253.05" cy="260.79" r="108.96"/>
        <circle class="cls-4" cx="599.67" cy="260.79" r="108.96"/>
        <circle class="cls-4" cx="948.92" cy="260.79" r="108.96"/>
      </g>
      <g>
        <g>
          <path class="cls-2" d="m113.42,149.95l16.39,11.77-1.55,2.16-12.22-8.78,8.31,14.22-1.09,1.52-16.17-3.32,12.24,8.79-1.55,2.16-16.39-11.77,1.67-2.32,17.9,3.67-9.19-15.79,1.65-2.3Z"/>
          <path class="cls-2" d="m133.87,156.29c-1.33.41-2.69.44-4.07.07-1.38-.36-2.67-1.11-3.87-2.25-1.18-1.12-1.99-2.38-2.41-3.75-.42-1.38-.45-2.74-.09-4.09.36-1.35,1.06-2.57,2.1-3.67,1.04-1.1,2.23-1.86,3.56-2.29,1.33-.43,2.69-.47,4.08-.12,1.39.34,2.68,1.08,3.88,2.22,1.2,1.14,2,2.4,2.41,3.8.41,1.39.43,2.77.06,4.14-.36,1.37-1.07,2.61-2.11,3.7-1.03,1.08-2.21,1.83-3.54,2.24Zm3.21-6.26c.25-.91.23-1.86-.06-2.85-.29-.99-.9-1.93-1.83-2.81-.93-.88-1.89-1.45-2.89-1.7-1-.25-1.93-.23-2.81.06-.88.29-1.65.78-2.3,1.47-.67.7-1.12,1.5-1.36,2.38-.24.89-.2,1.81.11,2.78.31.97.94,1.89,1.86,2.78.94.9,1.9,1.48,2.88,1.75.98.27,1.9.27,2.76,0,.86-.28,1.63-.76,2.28-1.45.66-.69,1.11-1.49,1.36-2.41Z"/>
          <path class="cls-2" d="m137.16,136.43c-.28-1.37-.19-2.69.27-3.95.46-1.26,1.24-2.35,2.35-3.27.96-.79,2.03-1.31,3.22-1.55s2.3-.18,3.33.18l-5.38-6.52,2.07-1.71,13.74,16.63-2.07,1.71-1.91-2.32c.2,1.07.1,2.17-.3,3.29-.4,1.13-1.14,2.13-2.2,3.01-1.09.9-2.31,1.45-3.65,1.65-1.34.2-2.66.02-3.98-.53-1.32-.55-2.49-1.45-3.51-2.69-1.04-1.26-1.7-2.57-1.97-3.95Zm9.85-6.61c-.95-.38-1.89-.49-2.83-.33-.94.16-1.79.55-2.56,1.19-.76.63-1.31,1.39-1.65,2.27-.33.88-.4,1.82-.21,2.82.2,1,.68,1.96,1.44,2.89.78.94,1.64,1.61,2.59,2,.95.39,1.89.5,2.82.35.93-.15,1.78-.54,2.55-1.18.76-.63,1.31-1.39,1.65-2.29.33-.89.4-1.84.2-2.85-.2-1.01-.69-1.97-1.45-2.9-.77-.93-1.62-1.58-2.57-1.96Z"/>
          <path class="cls-2" d="m168.32,120.25l-10.73,6.92c.93,1.27,2.05,2.01,3.36,2.22,1.3.21,2.54-.06,3.72-.82.96-.62,1.62-1.36,1.98-2.23.35-.86.42-1.76.2-2.68l2.4-1.55c.47,1.52.43,3.04-.12,4.54-.56,1.5-1.64,2.77-3.24,3.8-1.27.82-2.6,1.27-3.97,1.35-1.37.08-2.69-.23-3.94-.91-1.25-.68-2.33-1.72-3.22-3.11-.9-1.39-1.4-2.78-1.52-4.19-.12-1.4.14-2.71.78-3.92.64-1.21,1.61-2.24,2.92-3.08,1.27-.82,2.58-1.27,3.92-1.35,1.34-.08,2.59.2,3.74.83,1.16.63,2.13,1.56,2.92,2.78.27.42.54.89.8,1.39Zm-5.38-2.2c-.77-.37-1.58-.51-2.43-.41-.85.1-1.67.4-2.45.91-1.13.73-1.85,1.71-2.18,2.94s-.14,2.52.57,3.87l8.48-5.47c-.55-.85-1.21-1.46-1.98-1.83Z"/>
          <path class="cls-2" d="m167.08,104.47l10.24,18.99-2.33,1.26-10.24-18.99,2.33-1.26Z"/>
        </g>
        <g>
          <path class="cls-2" d="m117.21,361.6c.28,1.8.05,3.5-.69,5.1-.74,1.6-1.95,3.01-3.64,4.23-1.69,1.22-3.4,1.92-5.15,2.11-1.74.19-3.42-.13-5.02-.98-1.6-.84-3.05-2.17-4.35-3.96l-3.7-5.13,16.48-11.89,3.7,5.13c1.3,1.8,2.08,3.59,2.37,5.39Zm-11.86,8.87c1.93.31,3.92-.28,5.95-1.74,2.05-1.48,3.24-3.2,3.58-5.15.34-1.96-.26-3.99-1.78-6.1l-2.15-2.98-12.96,9.35,2.15,2.98c1.54,2.13,3.27,3.34,5.21,3.65Z"/>
          <path class="cls-2" d="m117,372.3c1.36-.35,2.68-.32,3.96.07,1.28.39,2.4,1.11,3.36,2.16.95,1.03,1.54,2.13,1.8,3.3.25,1.17.21,2.25-.12,3.23l2.15-1.97,1.81,1.98-11.78,10.8-1.81-1.98,2.19-2.01c-1.04.24-2.14.19-3.29-.16-1.15-.35-2.2-1.04-3.13-2.05-.96-1.05-1.57-2.23-1.83-3.55-.26-1.32-.15-2.65.34-3.99.48-1.34,1.32-2.56,2.51-3.65,1.2-1.1,2.48-1.83,3.84-2.18Zm7.11,9.5c.33-.96.39-1.91.19-2.84-.21-.93-.65-1.76-1.31-2.49-.67-.73-1.45-1.24-2.35-1.53-.9-.29-1.84-.31-2.82-.06-.99.25-1.93.78-2.81,1.59-.9.83-1.52,1.73-1.86,2.7-.34.97-.41,1.91-.21,2.84.2.92.64,1.75,1.31,2.48s1.46,1.24,2.37,1.53c.91.29,1.86.3,2.85.05.99-.25,1.94-.79,2.82-1.6.89-.81,1.5-1.7,1.83-2.66Z"/>
          <path class="cls-2" d="m133.98,387.7l-6.36,6.94c-.52.57-.77,1.09-.75,1.55.03.46.34.97.94,1.52l1.44,1.32-1.52,1.66-1.76-1.62c-1.09-1-1.68-2-1.76-3-.09-1,.4-2.07,1.45-3.22l6.36-6.94-1.53-1.4,1.48-1.61,1.52,1.4,2.72-2.97,1.96,1.79-2.72,2.97,3.07,2.82-1.48,1.61-3.07-2.82Z"/>
          <path class="cls-2" d="m138.47,393.78c1.28-.58,2.58-.78,3.91-.61,1.33.17,2.56.68,3.68,1.55,1.11.85,1.89,1.83,2.34,2.94.45,1.11.59,2.17.44,3.21l1.78-2.31,2.12,1.63-9.74,12.66-2.13-1.64,1.81-2.36c-.98.42-2.08.55-3.27.41-1.2-.15-2.34-.64-3.44-1.49-1.12-.87-1.93-1.92-2.41-3.18-.48-1.25-.6-2.58-.35-3.99.25-1.4.86-2.75,1.85-4.02,1-1.29,2.13-2.23,3.41-2.8Zm8.64,8.13c.16-1,.06-1.95-.31-2.83-.36-.88-.94-1.62-1.73-2.23-.78-.6-1.64-.97-2.58-1.1-.93-.13-1.86.01-2.79.43-.93.41-1.76,1.1-2.5,2.05-.75.97-1.2,1.96-1.37,2.97-.17,1.01-.07,1.96.29,2.83.36.88.93,1.62,1.71,2.22.79.6,1.65.97,2.6,1.1.94.13,1.88-.02,2.82-.44.94-.42,1.77-1.11,2.51-2.06.74-.95,1.18-1.93,1.34-2.94Z"/>
        </g>
      </g>
      <g>
        <g>
          <path class="cls-2" d="m451.89,174.31c-.84-1.62-1.2-3.32-1.11-5.1.1-1.78.66-3.46,1.7-5.04,1.21-1.85,2.72-3.18,4.52-3.98,1.8-.8,3.73-.97,5.79-.53l-1.74,2.66c-1.33-.2-2.57-.04-3.7.49-1.13.53-2.1,1.4-2.91,2.64-.78,1.19-1.2,2.43-1.26,3.74-.06,1.3.24,2.56.9,3.76.67,1.2,1.68,2.25,3.05,3.14,1.35.88,2.71,1.39,4.08,1.52,1.37.13,2.64-.1,3.81-.68,1.17-.58,2.14-1.46,2.92-2.65.81-1.24,1.23-2.47,1.27-3.72.04-1.24-.3-2.44-1.02-3.58l1.74-2.66c1.21,1.7,1.81,3.53,1.79,5.49-.02,1.96-.64,3.87-1.85,5.72-1.03,1.58-2.34,2.77-3.93,3.58-1.59.81-3.28,1.15-5.09,1.04-1.81-.11-3.54-.71-5.2-1.8-1.66-1.09-2.91-2.44-3.74-4.05Z"/>
          <path class="cls-2" d="m468.08,151.6c.15-.99.63-1.97,1.41-2.93l2.12,1.73-.44.54c-1.88,2.3-1.57,4.48.93,6.52l6.73,5.49-1.68,2.06-12.38-10.1,1.68-2.06,2.01,1.64c-.41-.94-.54-1.9-.39-2.89Z"/>
          <path class="cls-2" d="m488.91,141.7l-8.94,9.12c1.19,1.03,2.45,1.51,3.77,1.42,1.32-.08,2.47-.62,3.45-1.62.8-.82,1.28-1.69,1.44-2.61.15-.92.02-1.81-.4-2.66l2-2.04c.8,1.38,1.09,2.87.88,4.46-.21,1.59-.98,3.06-2.32,4.43-1.06,1.08-2.25,1.81-3.58,2.19-1.32.38-2.67.37-4.04-.02-1.37-.39-2.65-1.17-3.83-2.32-1.18-1.16-1.98-2.41-2.41-3.75-.43-1.34-.46-2.68-.1-4,.36-1.32,1.08-2.54,2.17-3.65,1.06-1.08,2.24-1.81,3.52-2.18,1.29-.37,2.57-.38,3.83-.02s2.42,1.05,3.46,2.07c.36.35.72.75,1.08,1.18Zm-5.73-.96c-.83-.19-1.65-.14-2.46.14s-1.54.76-2.19,1.42c-.94.96-1.43,2.07-1.48,3.35-.05,1.27.42,2.49,1.41,3.64l7.06-7.21c-.72-.71-1.5-1.16-2.33-1.35Z"/>
          <path class="cls-2" d="m488.41,134.95c-.26-1.38-.15-2.69.32-3.95.48-1.25,1.27-2.33,2.37-3.22,1.09-.88,2.23-1.4,3.41-1.58,1.18-.18,2.25-.07,3.22.33l-1.83-2.27,2.09-1.68,10.01,12.45-2.09,1.68-1.86-2.32c.18,1.06.05,2.15-.38,3.28-.43,1.13-1.18,2.13-2.25,2.99-1.11.89-2.32,1.42-3.66,1.59s-2.65-.02-3.96-.6c-1.31-.57-2.47-1.48-3.48-2.74-1.02-1.27-1.66-2.6-1.92-3.97Zm9.94-6.48c-.94-.39-1.88-.51-2.82-.37-.94.15-1.8.53-2.57,1.15-.77.62-1.33,1.37-1.67,2.24-.34.88-.43,1.81-.24,2.81.18,1,.65,1.97,1.4,2.91.77.96,1.62,1.63,2.57,2.03.94.4,1.88.53,2.82.39.94-.14,1.79-.52,2.56-1.14.77-.62,1.33-1.38,1.68-2.27.35-.89.42-1.84.24-2.85-.19-1.01-.66-1.98-1.41-2.92-.76-.94-1.6-1.6-2.54-2Z"/>
          <path class="cls-2" d="m506.5,119.54l5.18,7.86c.43.65.87,1.02,1.32,1.1.45.09,1.02-.1,1.7-.54l1.63-1.08,1.24,1.87-2,1.32c-1.23.81-2.35,1.14-3.34.98-.99-.16-1.92-.89-2.77-2.19l-5.18-7.86-1.73,1.14-1.2-1.83,1.73-1.14-2.22-3.36,2.22-1.46,2.21,3.36,3.48-2.29,1.2,1.83-3.48,2.29Z"/>
          <path class="cls-2" d="m529.32,114.22l-11.24,6.05c.83,1.34,1.89,2.17,3.17,2.48,1.28.31,2.54.14,3.77-.53,1.01-.54,1.73-1.23,2.15-2.07.42-.83.56-1.72.41-2.65l2.52-1.36c.35,1.56.19,3.06-.48,4.52-.67,1.46-1.85,2.63-3.53,3.54-1.33.72-2.69,1.06-4.06,1.03-1.38-.03-2.66-.44-3.85-1.22-1.19-.78-2.18-1.9-2.97-3.35-.78-1.45-1.18-2.89-1.19-4.29,0-1.41.35-2.69,1.09-3.85.73-1.16,1.79-2.1,3.15-2.84,1.34-.72,2.67-1.06,4.01-1.03s2.56.4,3.67,1.12c1.1.72,2,1.72,2.69,3,.24.45.47.93.68,1.45Zm-5.19-2.62c-.74-.43-1.54-.63-2.39-.6-.85.03-1.69.27-2.52.71-1.18.64-1.98,1.55-2.41,2.75-.42,1.2-.34,2.5.26,3.9l8.88-4.78c-.48-.89-1.09-1.55-1.83-1.98Z"/>
        </g>
        <g>
          <path class="cls-2" d="m478.97,374.51l-20.48,7.23-1.97-2.34,10.6-18.96,1.82,2.16-9.29,16.17,17.51-6.41,1.8,2.14Z"/>
          <path class="cls-2" d="m481.8,395.58l-9.25-8.8c-1.02,1.21-1.47,2.47-1.37,3.79.1,1.32.66,2.46,1.67,3.42.83.79,1.71,1.26,2.63,1.4.92.14,1.81,0,2.65-.44l2.07,1.97c-1.37.82-2.85,1.13-4.44.94-1.59-.19-3.08-.94-4.46-2.25-1.1-1.05-1.84-2.23-2.24-3.54-.4-1.32-.41-2.66-.04-4.04.37-1.38,1.13-2.67,2.27-3.86,1.14-1.2,2.38-2.02,3.71-2.46,1.34-.45,2.67-.5,4-.16,1.33.34,2.56,1.04,3.68,2.12,1.1,1.05,1.84,2.21,2.23,3.49.39,1.28.41,2.56.07,3.83-.34,1.27-1.01,2.44-2.02,3.49-.35.37-.74.73-1.17,1.1Zm.88-5.74c.18-.84.12-1.66-.17-2.46-.29-.8-.78-1.53-1.46-2.17-.97-.92-2.09-1.4-3.37-1.43-1.27-.03-2.48.46-3.62,1.46l7.31,6.96c.7-.73,1.13-1.52,1.31-2.35Z"/>
          <path class="cls-2" d="m493.94,394.39c.99.15,1.97.61,2.94,1.39l-1.72,2.14-.54-.44c-2.32-1.86-4.49-1.54-6.51.98l-5.44,6.77-2.07-1.66,10.01-12.45,2.07,1.66-1.63,2.02c.94-.42,1.9-.56,2.89-.41Z"/>
          <path class="cls-2" d="m501.21,399.26l-9.36,12.95-2.15-1.55,9.36-12.95,2.15,1.55Zm-.25-4.03c-.08-.49.03-.94.33-1.35.3-.41.69-.65,1.18-.73.49-.08.94.03,1.35.33.39.29.63.67.7,1.15.07.48-.04.93-.34,1.34-.3.41-.68.66-1.17.74-.48.08-.92-.02-1.31-.3-.41-.3-.65-.69-.73-1.18Z"/>
          <path class="cls-2" d="m509.04,407.14l-2.81-1.83-7.54,11.55-2.22-1.45,7.54-11.55-1.73-1.13,1.2-1.83,1.73,1.13.62-.95c.98-1.5,2.08-2.34,3.3-2.53,1.22-.19,2.69.28,4.4,1.39l-1.21,1.86c-.98-.64-1.79-.89-2.44-.77-.65.12-1.26.62-1.83,1.5l-.62.95,2.81,1.83-1.2,1.83Z"/>
          <path class="cls-2" d="m524.66,413.47l-19.77,15.93-2.4-1.32,6.47-5.22,1.99-16.95,2.58,1.42-1.86,13.76,10.59-8.94,2.4,1.32Z"/>
        </g>
      </g>
      <g>
        <g>
          <path class="cls-2" d="m700.28,118.54c-1.55.42-3.37.06-5.45-1.08l-3.42-1.88-4.08,7.44-2.33-1.28,9.78-17.81,5.75,3.16c2.01,1.1,3.27,2.43,3.79,3.97.51,1.55.35,3.09-.49,4.62-.81,1.48-2,2.44-3.55,2.86Zm-1.07-2.27c.92-.22,1.67-.86,2.24-1.9,1.21-2.2.55-3.99-1.97-5.37l-3.42-1.88-3.59,6.54,3.42,1.88c1.3.71,2.4.95,3.33.73Z"/>
          <path class="cls-2" d="m713.3,113.35l-11.78,18.08-2.22-1.45,11.78-18.08,2.22,1.45Z"/>
          <path class="cls-2" d="m712.6,123.85c1.28-.57,2.58-.76,3.92-.59,1.33.17,2.55.7,3.67,1.57,1.1.86,1.88,1.84,2.32,2.95.44,1.11.58,2.18.42,3.21l1.79-2.3,2.12,1.65-9.82,12.61-2.12-1.65,1.83-2.35c-.99.41-2.08.54-3.28.39-1.2-.16-2.34-.66-3.43-1.51-1.12-.87-1.92-1.94-2.39-3.19-.48-1.26-.59-2.59-.33-3.99.25-1.4.88-2.74,1.87-4.01,1-1.29,2.14-2.22,3.42-2.78Zm8.59,8.19c.17-1,.07-1.95-.29-2.83-.36-.88-.93-1.63-1.71-2.24-.78-.61-1.64-.98-2.57-1.11-.93-.13-1.86,0-2.79.41-.93.41-1.77,1.09-2.51,2.04-.75.97-1.21,1.96-1.39,2.97s-.08,1.96.27,2.83c.35.88.92,1.62,1.7,2.23.78.61,1.64.98,2.59,1.11.94.13,1.89,0,2.83-.42.94-.42,1.78-1.1,2.52-2.05.74-.95,1.19-1.93,1.36-2.93Z"/>
          <path class="cls-2" d="m739.04,144.06c.03,1.68-.74,3.31-2.3,4.88l-6.63,6.69-1.86-1.85,6.36-6.42c1.12-1.13,1.7-2.28,1.73-3.44.03-1.16-.45-2.23-1.42-3.2-.99-.99-2.09-1.46-3.29-1.42-1.2.04-2.39.65-3.57,1.84l-6.22,6.27-1.88-1.87,11.25-11.34,1.88,1.87-1.6,1.62c.95-.21,1.9-.16,2.86.16.96.32,1.82.86,2.59,1.63,1.38,1.37,2.08,2.89,2.11,4.58Z"/>
        </g>
        <g>
          <path class="cls-2" d="m691.63,410.55c-.45,1.54-1.71,2.9-3.77,4.08l-3.4,1.93,4.2,7.37-2.3,1.31-10.06-17.66,5.7-3.25c1.99-1.13,3.78-1.52,5.37-1.15,1.59.37,2.81,1.32,3.68,2.84.84,1.47,1.03,2.98.58,4.52Zm-2.49-.28c.29-.9.14-1.87-.45-2.9-1.24-2.18-3.11-2.56-5.61-1.13l-3.4,1.93,3.7,6.49,3.39-1.93c1.28-.73,2.07-1.55,2.36-2.45Z"/>
          <path class="cls-2" d="m694.88,405.99c-.19-1.39,0-2.7.53-3.92.54-1.23,1.39-2.26,2.54-3.09,1.14-.82,2.3-1.28,3.49-1.4,1.19-.11,2.25.05,3.2.5l-1.7-2.36,2.18-1.57,9.34,12.96-2.18,1.57-1.74-2.41c.12,1.06-.06,2.15-.55,3.25-.49,1.1-1.29,2.06-2.41,2.87-1.15.83-2.4,1.29-3.74,1.4-1.34.1-2.65-.16-3.92-.8-1.28-.64-2.38-1.61-3.33-2.92-.96-1.32-1.53-2.68-1.71-4.07Zm10.27-5.95c-.92-.44-1.85-.61-2.8-.52-.95.1-1.82.44-2.63,1.01-.8.58-1.4,1.3-1.79,2.15-.39.86-.52,1.79-.39,2.8.13,1.01.55,2,1.25,2.98.72.99,1.54,1.71,2.46,2.16.92.45,1.86.63,2.8.54.94-.09,1.81-.43,2.62-1.01.8-.58,1.4-1.3,1.79-2.17.39-.87.52-1.81.39-2.83-.13-1.02-.55-2.01-1.26-2.99-.71-.98-1.52-1.69-2.43-2.13Z"/>
          <path class="cls-2" d="m710.72,394.21c-.33-1.36-.29-2.68.12-3.98s1.19-2.45,2.32-3.46c1.46-1.31,2.98-2.04,4.56-2.19,1.58-.14,3.09.27,4.53,1.26l-2.12,1.91c-.85-.54-1.76-.76-2.72-.65-.96.11-1.88.55-2.74,1.33-1.13,1.01-1.69,2.22-1.68,3.62,0,1.4.64,2.8,1.92,4.22,1.29,1.43,2.63,2.22,4.03,2.38,1.4.16,2.66-.27,3.78-1.29.87-.78,1.41-1.63,1.62-2.56.21-.92.09-1.86-.37-2.81l2.12-1.91c.78,1.5,1.01,3.04.72,4.63-.3,1.59-1.16,3.03-2.59,4.31-1.13,1.02-2.35,1.66-3.68,1.95-1.33.28-2.66.18-3.98-.3-1.32-.48-2.54-1.34-3.66-2.58-1.11-1.23-1.83-2.52-2.16-3.88Z"/>
          <path class="cls-2" d="m738.82,383.93l-9.44-.16,5.2,4.77-1.79,1.95-15.89-14.59,1.79-1.95,9.34,8.58-1.06-9.32,2.5-2.73.77,10.92,11.01-.14-2.44,2.66Z"/>
          <path class="cls-2" d="m733.92,370.64c-.57-1.28-.78-2.58-.61-3.91.17-1.33.69-2.56,1.55-3.68.85-1.11,1.84-1.88,2.94-2.33s2.17-.59,3.21-.43l-2.31-1.78,1.64-2.12,12.65,9.76-1.64,2.12-2.35-1.82c.42.99.55,2.08.4,3.27-.15,1.2-.65,2.34-1.49,3.43-.87,1.12-1.93,1.92-3.18,2.4-1.25.48-2.58.6-3.99.35-1.4-.25-2.74-.87-4.02-1.85-1.29-1-2.22-2.13-2.8-3.41Zm8.15-8.63c-1-.16-1.95-.06-2.83.3-.88.36-1.62.94-2.23,1.72-.61.78-.97,1.64-1.1,2.57-.13.93.01,1.86.42,2.79.41.93,1.09,1.76,2.05,2.5.97.75,1.96,1.21,2.97,1.37,1.01.17,1.96.07,2.83-.28.88-.35,1.62-.93,2.22-1.71.61-.79.97-1.65,1.1-2.59.13-.95-.02-1.89-.44-2.82-.42-.94-1.1-1.77-2.06-2.51-.95-.74-1.93-1.19-2.94-1.35Z"/>
          <path class="cls-2" d="m748.04,344.73c1.04-.59,2.09-.87,3.13-.85l-2.51-1.48,1.36-2.31,14.08,8.27c1.26.74,2.22,1.66,2.88,2.78.66,1.11.98,2.33.95,3.65-.03,1.32-.44,2.64-1.22,3.97-1.06,1.81-2.38,3.07-3.94,3.77-1.56.7-3.15.73-4.75.08l1.33-2.26c.98.24,1.96.12,2.94-.37.97-.49,1.79-1.28,2.44-2.39.74-1.26.95-2.51.63-3.77-.32-1.26-1.19-2.31-2.62-3.14l-2.89-1.7c.54.92.81,1.99.83,3.19.01,1.2-.33,2.4-1.03,3.59-.72,1.22-1.67,2.16-2.86,2.8-1.19.64-2.5.93-3.92.86-1.42-.07-2.83-.51-4.22-1.33-1.41-.83-2.48-1.84-3.2-3.03-.73-1.19-1.09-2.46-1.09-3.81,0-1.34.36-2.62,1.08-3.85.7-1.19,1.57-2.08,2.62-2.67Zm4.4.74c-1.02-.03-1.94.18-2.77.66s-1.5,1.13-2,1.99c-.5.85-.76,1.75-.77,2.69-.01.94.25,1.85.77,2.72.52.87,1.31,1.61,2.35,2.22,1.05.62,2.1.95,3.12.99,1.03.04,1.95-.17,2.78-.63.82-.46,1.49-1.12,1.99-1.98.5-.85.76-1.76.77-2.71,0-.95-.25-1.87-.79-2.75-.53-.88-1.32-1.62-2.36-2.23-1.04-.61-2.07-.93-3.08-.97Z"/>
          <path class="cls-2" d="m766.01,326.84l-5.23,11.65c1.48.56,2.82.57,4.03.03,1.21-.53,2.1-1.44,2.67-2.72.47-1.05.62-2.03.44-2.95-.17-.92-.6-1.7-1.29-2.35l1.17-2.61c1.23,1.02,2.01,2.31,2.37,3.87.35,1.57.14,3.22-.64,4.95-.62,1.38-1.49,2.48-2.6,3.29-1.11.81-2.38,1.27-3.8,1.38-1.42.11-2.89-.18-4.39-.85-1.51-.68-2.69-1.57-3.56-2.68s-1.36-2.35-1.48-3.72.13-2.76.77-4.18c.62-1.38,1.47-2.47,2.55-3.27,1.08-.79,2.28-1.24,3.59-1.34s2.64.14,3.97.74c.46.21.94.45,1.43.74Zm-5.71,1.08c-.85.11-1.6.44-2.26.98-.66.55-1.18,1.24-1.56,2.1-.55,1.22-.63,2.44-.23,3.65.39,1.21,1.25,2.19,2.58,2.93l4.13-9.2c-.92-.41-1.81-.57-2.65-.46Z"/>
        </g>
      </g>
      <g>
        <g>
          <path class="cls-2" d="m815.56,172.5l-9.62.07-1.6,2.78,7.21,4.13-1.32,2.3-17.63-10.1,3.26-5.69c.76-1.33,1.64-2.33,2.62-2.99.98-.66,1.99-.99,3.03-1,1.04-.01,2.05.27,3.05.84,1.21.7,2.08,1.66,2.61,2.89.53,1.23.54,2.63.04,4.21l9.92-.19-1.58,2.76Zm-13.06,1.79l1.94-3.39c.71-1.25.94-2.36.68-3.34-.26-.98-.9-1.76-1.93-2.35-1.04-.6-2.03-.75-2.96-.47-.93.29-1.75,1.06-2.48,2.33l-1.94,3.39,6.68,3.83Z"/>
          <path class="cls-2" d="m821.89,151.16l-7.55,10.3c1.33.85,2.64,1.14,3.93.88,1.29-.27,2.35-.97,3.18-2.1.68-.92,1.03-1.85,1.05-2.79.02-.93-.23-1.79-.77-2.57l1.69-2.3c.98,1.25,1.49,2.68,1.5,4.28s-.54,3.17-1.66,4.71c-.9,1.22-1.97,2.11-3.23,2.68-1.26.56-2.59.75-4,.55s-2.79-.78-4.12-1.75c-1.33-.98-2.3-2.1-2.92-3.37-.61-1.27-.84-2.58-.67-3.94.17-1.36.71-2.67,1.63-3.92.9-1.22,1.96-2.11,3.18-2.66,1.22-.55,2.49-.74,3.79-.56,1.31.17,2.55.69,3.72,1.55.41.3.82.64,1.24,1.02Zm-5.81-.14c-.85-.07-1.66.09-2.42.49-.76.4-1.42.97-1.97,1.72-.79,1.08-1.12,2.26-.99,3.52.13,1.27.77,2.4,1.91,3.41l5.96-8.14c-.82-.6-1.65-.93-2.5-1Z"/>
          <path class="cls-2" d="m815.11,136.87l16.34,14.09-1.73,2.01-16.34-14.09,1.73-2.01Z"/>
          <path class="cls-2" d="m839.49,132.63l-9.08,8.98c1.17,1.05,2.42,1.54,3.74,1.48,1.32-.06,2.48-.58,3.47-1.57.82-.81,1.31-1.67,1.48-2.59.17-.92.05-1.81-.36-2.66l2.03-2.01c.78,1.39,1.04,2.88.81,4.47-.24,1.58-1.03,3.05-2.39,4.39-1.08,1.07-2.28,1.78-3.61,2.13-1.33.36-2.68.33-4.04-.08-1.36-.41-2.63-1.21-3.79-2.38-1.16-1.17-1.95-2.44-2.35-3.79-.4-1.35-.42-2.68-.04-4,.38-1.32,1.12-2.52,2.23-3.62,1.08-1.07,2.26-1.77,3.56-2.12,1.29-.35,2.57-.34,3.83.04,1.26.38,2.41,1.08,3.43,2.12.35.36.71.76,1.06,1.2Zm-5.71-1.05c-.83-.2-1.65-.17-2.46.1s-1.55.73-2.21,1.39c-.95.94-1.46,2.05-1.53,3.32-.07,1.27.38,2.49,1.35,3.67l7.17-7.09c-.71-.72-1.48-1.18-2.31-1.38Z"/>
          <path class="cls-2" d="m839.08,125.88c-.24-1.38-.11-2.69.39-3.94.49-1.25,1.3-2.31,2.42-3.18,1.1-.86,2.25-1.37,3.43-1.53,1.18-.16,2.25-.03,3.21.38l-1.79-2.3,2.12-1.65,9.82,12.6-2.12,1.65-1.83-2.35c.16,1.06.02,2.15-.43,3.27-.44,1.12-1.21,2.11-2.3,2.96-1.12.87-2.35,1.38-3.68,1.54-1.33.15-2.65-.07-3.95-.66-1.3-.59-2.44-1.52-3.43-2.79-1-1.29-1.62-2.62-1.86-4Zm10.04-6.33c-.93-.41-1.87-.54-2.82-.41-.94.13-1.81.5-2.59,1.11-.78.61-1.35,1.35-1.71,2.22s-.45,1.81-.29,2.81c.17,1,.62,1.98,1.36,2.93.75.97,1.6,1.66,2.54,2.07.94.41,1.88.56,2.81.43.94-.13,1.8-.49,2.58-1.1s1.35-1.36,1.71-2.24c.36-.88.45-1.83.28-2.84-.17-1.01-.63-1.99-1.37-2.94-.74-.95-1.58-1.63-2.51-2.04Z"/>
          <path class="cls-2" d="m863.82,122.55c-1.05.16-2.01.06-2.88-.28-.87-.34-1.59-.91-2.15-1.71l2.33-1.44c.48.64,1.14,1,1.98,1.07.84.08,1.72-.17,2.64-.74.86-.53,1.42-1.14,1.68-1.83.26-.69.21-1.32-.14-1.9-.37-.59-.91-.87-1.61-.84-.71.04-1.7.26-2.99.66-1.17.36-2.16.6-2.96.72-.81.12-1.6.05-2.39-.2-.79-.26-1.45-.82-1.99-1.7-.43-.69-.62-1.46-.56-2.29.05-.83.36-1.66.91-2.46.55-.81,1.31-1.51,2.29-2.12,1.51-.93,2.96-1.3,4.35-1.11,1.4.19,2.54.92,3.42,2.21l-2.26,1.39c-.49-.68-1.12-1.08-1.91-1.18-.79-.11-1.62.11-2.49.65-.81.5-1.35,1.07-1.62,1.71-.26.64-.22,1.25.12,1.81.28.45.65.73,1.12.84.47.11.98.12,1.52.02.55-.1,1.27-.28,2.18-.54,1.14-.34,2.09-.57,2.86-.69.77-.12,1.53-.06,2.29.18.75.24,1.4.77,1.92,1.59.46.75.67,1.54.62,2.39-.05.85-.34,1.68-.88,2.48-.54.8-1.3,1.51-2.28,2.11-1.04.64-2.09,1.04-3.13,1.2Z"/>
          <path class="cls-2" d="m884.59,103.89l-11.5,5.55c.77,1.38,1.79,2.25,3.06,2.62,1.27.37,2.53.25,3.79-.36,1.03-.5,1.78-1.16,2.24-1.97.46-.81.63-1.69.52-2.63l2.57-1.24c.28,1.57.06,3.07-.68,4.49-.74,1.42-1.96,2.55-3.68,3.38-1.37.66-2.73.94-4.11.85-1.37-.09-2.64-.55-3.8-1.39-1.16-.83-2.1-1.99-2.81-3.48-.72-1.49-1.05-2.93-1-4.34.05-1.41.47-2.67,1.26-3.8.78-1.12,1.88-2.02,3.28-2.7,1.36-.66,2.72-.95,4.05-.86s2.54.52,3.61,1.28c1.07.77,1.93,1.81,2.56,3.12.22.46.43.95.62,1.48Zm-5.07-2.85c-.72-.46-1.51-.7-2.36-.7-.86,0-1.71.19-2.55.6-1.21.58-2.05,1.46-2.53,2.65-.48,1.18-.45,2.48.09,3.91l9.08-4.39c-.44-.91-1.02-1.6-1.74-2.06Z"/>
        </g>
        <g>
          <path class="cls-2" d="m1047.54,386.56l11.03,16.89-2.22,1.45-8.23-12.59,2.61,16.26-1.56,1.02-13.88-8.94,8.24,12.62-2.22,1.45-11.03-16.89,2.39-1.56,15.37,9.88-2.87-18.04,2.37-1.55Z"/>
          <path class="cls-2" d="m1065.07,397.16c-1.37.27-2.72.15-4.06-.35-1.34-.51-2.54-1.39-3.62-2.65-1.06-1.24-1.73-2.57-2-3.98-.27-1.41-.16-2.77.33-4.08s1.32-2.45,2.47-3.43c1.15-.98,2.41-1.62,3.78-1.9,1.37-.28,2.72-.18,4.07.3,1.35.49,2.56,1.36,3.63,2.62,1.07,1.26,1.74,2.6,2,4.03.26,1.43.13,2.8-.37,4.13-.51,1.33-1.33,2.48-2.49,3.46-1.14.97-2.39,1.59-3.76,1.86Zm3.85-5.89c.35-.88.42-1.83.24-2.85-.19-1.01-.7-2.01-1.53-2.99-.83-.98-1.73-1.64-2.7-1.99s-1.9-.43-2.8-.23c-.91.2-1.72.6-2.44,1.22-.74.63-1.27,1.37-1.6,2.23-.33.86-.39,1.78-.18,2.78.21,1,.73,1.98,1.56,2.96.85.99,1.74,1.67,2.68,2.04.94.37,1.86.46,2.75.28.89-.18,1.7-.59,2.42-1.2.72-.62,1.26-1.37,1.61-2.25Z"/>
          <path class="cls-2" d="m1076.42,367.33c1.68-.07,3.33.66,4.94,2.18l6.85,6.46-1.8,1.91-6.57-6.21c-1.16-1.09-2.32-1.64-3.48-1.64-1.16,0-2.22.5-3.16,1.5-.96,1.02-1.41,2.13-1.34,3.33.07,1.2.71,2.38,1.93,3.52l6.42,6.07-1.82,1.93-11.62-10.97,1.82-1.93,1.65,1.56c-.23-.94-.2-1.89.09-2.86.3-.96.82-1.84,1.56-2.63,1.33-1.41,2.84-2.15,4.52-2.22Z"/>
          <path class="cls-2" d="m1076.77,359.74c-.49.05-.93-.08-1.33-.4-.39-.32-.61-.72-.66-1.22-.05-.49.08-.93.4-1.33.31-.38.7-.59,1.19-.63.49-.04.92.1,1.32.41s.62.72.67,1.21-.07.92-.37,1.29c-.32.39-.72.61-1.22.66Zm4.04-.02l12.4,10.08-1.67,2.06-12.4-10.08,1.67-2.06Z"/>
          <path class="cls-2" d="m1087.19,354.97l7.6,5.57c.63.46,1.17.65,1.62.57s.92-.44,1.4-1.1l1.16-1.58,1.81,1.33-1.41,1.93c-.87,1.19-1.8,1.88-2.79,2.08-.99.19-2.1-.17-3.36-1.09l-7.6-5.57-1.22,1.67-1.76-1.29,1.22-1.67-3.25-2.38,1.57-2.14,3.25,2.38,2.46-3.36,1.76,1.29-2.46,3.36Z"/>
          <path class="cls-2" d="m1104.11,353.42c-1.21.68-2.54.99-3.96.92-1.43-.07-2.85-.53-4.26-1.39-1.39-.85-2.44-1.91-3.14-3.17-.7-1.26-1.02-2.59-.95-3.98.07-1.39.5-2.74,1.29-4.03.79-1.29,1.79-2.29,3-2.98,1.21-.7,2.53-1.02,3.96-.98,1.43.04,2.85.5,4.26,1.36,1.41.86,2.46,1.93,3.15,3.21.69,1.28,1,2.62.93,4.04s-.5,2.77-1.29,4.06c-.78,1.28-1.78,2.26-2.99,2.94Zm1.83-6.79c.05-.95-.17-1.87-.66-2.78-.49-.91-1.29-1.69-2.38-2.36-1.09-.67-2.15-1.02-3.18-1.06s-1.94.18-2.74.65c-.8.47-1.45,1.11-1.94,1.92-.51.83-.78,1.7-.83,2.62-.05.92.18,1.82.69,2.7.51.88,1.31,1.66,2.41,2.33,1.11.68,2.17,1.05,3.18,1.11,1.01.06,1.91-.14,2.7-.59s1.43-1.08,1.93-1.9c.5-.81.77-1.69.83-2.64Z"/>
          <path class="cls-2" d="m1101.39,328.14c-.06-1,.18-2.05.74-3.17l2.45,1.22-.31.63c-1.33,2.66-.55,4.71,2.34,6.15l7.77,3.88-1.19,2.37-14.29-7.14,1.19-2.37,2.32,1.16c-.61-.83-.95-1.74-1.01-2.74Z"/>
        </g>
      </g>
      <g>
        <path class="cls-2" d="m1005.2,99.09c1.42-1.13,3.02-1.83,4.79-2.07,1.77-.25,3.53-.02,5.27.69,2.05.83,3.65,2.05,4.78,3.66s1.68,3.47,1.65,5.57l-2.95-1.19c-.06-1.35-.46-2.53-1.2-3.54s-1.79-1.79-3.16-2.35c-1.31-.53-2.62-.7-3.91-.51-1.29.19-2.46.73-3.51,1.61-1.05.88-1.88,2.08-2.49,3.6-.6,1.5-.84,2.93-.7,4.29.14,1.37.61,2.57,1.41,3.6.8,1.04,1.85,1.82,3.17,2.35,1.37.55,2.67.73,3.89.52,1.23-.21,2.33-.77,3.31-1.7l2.95,1.19c-1.43,1.52-3.11,2.46-5.04,2.82-1.93.36-3.92.13-5.97-.7-1.75-.71-3.17-1.76-4.27-3.16s-1.77-3-2.01-4.79c-.24-1.79.01-3.61.76-5.45.74-1.84,1.83-3.32,3.25-4.46Z"/>
        <path class="cls-2" d="m1022.08,122.65c-.72-1.19-1.08-2.5-1.07-3.93.01-1.43.42-2.87,1.24-4.31.8-1.42,1.82-2.51,3.05-3.25,1.23-.75,2.55-1.11,3.94-1.09,1.4.01,2.75.4,4.08,1.14,1.32.74,2.35,1.71,3.09,2.89.74,1.19,1.11,2.49,1.12,3.93,0,1.43-.39,2.87-1.2,4.31-.81,1.44-1.84,2.53-3.09,3.26-1.25.73-2.58,1.09-4,1.08-1.42-.02-2.79-.4-4.11-1.14-1.3-.73-2.32-1.69-3.04-2.88Zm6.85,1.58c.95.02,1.86-.23,2.75-.76.89-.53,1.64-1.35,2.28-2.47.63-1.12.94-2.19.94-3.22,0-1.03-.25-1.93-.75-2.71s-1.16-1.41-1.99-1.87c-.85-.48-1.73-.72-2.65-.74-.92-.01-1.81.25-2.67.79-.86.54-1.61,1.37-2.24,2.49-.64,1.13-.97,2.21-.99,3.22-.02,1.01.2,1.91.68,2.68.48.77,1.13,1.39,1.96,1.86.83.47,1.72.71,2.67.73Z"/>
        <path class="cls-2" d="m1053.48,126.59c.28,1.66-.23,3.38-1.54,5.18l-5.54,7.61-2.12-1.54,5.32-7.3c.94-1.29,1.34-2.51,1.19-3.66-.15-1.15-.78-2.14-1.89-2.95-1.13-.82-2.29-1.12-3.47-.91s-2.27,1.01-3.25,2.36l-5.2,7.14-2.14-1.56,9.41-12.91,2.14,1.56-1.34,1.84c.9-.35,1.85-.44,2.85-.27.99.17,1.93.58,2.81,1.22,1.57,1.14,2.5,2.55,2.78,4.21Z"/>
        <path class="cls-2" d="m1063.29,135.87l-2.53-2.21-9.07,10.38-2-1.75,9.07-10.38-1.56-1.36,1.44-1.65,1.56,1.36.75-.86c1.18-1.35,2.39-2.03,3.62-2.04,1.24-.01,2.63.65,4.16,1.99l-1.46,1.67c-.88-.77-1.65-1.14-2.31-1.11-.66.03-1.33.44-2.03,1.23l-.75.86,2.53,2.21-1.44,1.65Z"/>
        <path class="cls-2" d="m1069.27,138.61l-11.13,11.46-1.9-1.85,11.13-11.46,1.9,1.85Zm.33-4.03c0-.5.17-.92.52-1.29.35-.36.78-.55,1.27-.55.49,0,.92.17,1.29.52.35.34.52.75.52,1.24,0,.49-.17.91-.53,1.28-.35.36-.77.55-1.26.56-.49.01-.91-.15-1.25-.49-.36-.35-.55-.78-.55-1.27Z"/>
        <path class="cls-2" d="m1079.45,150.52c.23,1.18.16,2.26-.19,3.24l2.2-1.91,1.76,2.02-12.32,10.72c-1.1.96-2.28,1.57-3.55,1.85-1.27.28-2.52.19-3.76-.26-1.25-.45-2.37-1.26-3.38-2.42-1.38-1.58-2.15-3.23-2.32-4.93-.17-1.71.31-3.22,1.43-4.53l1.72,1.98c-.54.86-.74,1.83-.58,2.9s.65,2.1,1.49,3.07c.96,1.1,2.08,1.7,3.38,1.79,1.3.1,2.57-.4,3.81-1.48l2.53-2.2c-1.05.22-2.14.14-3.29-.23-1.15-.37-2.17-1.07-3.08-2.12-.93-1.07-1.51-2.27-1.75-3.6-.23-1.33-.09-2.66.43-3.99.52-1.33,1.39-2.52,2.6-3.58,1.23-1.07,2.53-1.76,3.9-2.08,1.36-.31,2.68-.25,3.96.17,1.27.43,2.37,1.17,3.31,2.24.91,1.04,1.47,2.15,1.7,3.33Zm-2.1,3.94c.36-.95.44-1.9.26-2.83-.18-.94-.6-1.78-1.25-2.53-.65-.75-1.42-1.28-2.31-1.59-.89-.31-1.83-.35-2.82-.13-.99.22-1.95.73-2.85,1.52-.92.8-1.57,1.68-1.93,2.64s-.46,1.9-.28,2.83c.18.93.59,1.77,1.24,2.52.65.75,1.43,1.28,2.33,1.59.9.31,1.85.35,2.85.13,1-.23,1.96-.74,2.87-1.53.91-.79,1.54-1.66,1.9-2.62Z"/>
        <path class="cls-2" d="m1094.69,170.2l-13.21,8.98-1.49-2.19,1.95-1.33c-.96.04-1.88-.18-2.77-.67-.88-.49-1.63-1.19-2.25-2.09-.7-1.03-1.11-2.1-1.25-3.21-.13-1.11.07-2.19.6-3.24.53-1.05,1.41-2,2.63-2.83l7.74-5.26,1.48,2.17-7.45,5.06c-1.3.88-2.08,1.89-2.33,3.03s.01,2.27.79,3.41c.8,1.17,1.79,1.85,2.97,2.04s2.46-.19,3.85-1.13l7.26-4.93,1.49,2.19Z"/>
        <path class="cls-2" d="m1099.26,179.28c.86.51,1.59,1.31,2.19,2.4l-2.4,1.33-.34-.61c-1.44-2.6-3.57-3.12-6.39-1.56l-7.6,4.21-1.28-2.32,13.98-7.74,1.29,2.32-2.27,1.26c1.03-.03,1.97.21,2.83.72Z"/>
        <path class="cls-2" d="m1100.72,202.28l-5.16-11.68c-1.4.72-2.31,1.71-2.72,2.97-.41,1.25-.34,2.52.23,3.8.46,1.05,1.09,1.82,1.89,2.3.8.49,1.67.69,2.62.62l1.15,2.61c-1.58.23-3.06-.05-4.46-.83-1.4-.79-2.48-2.05-3.25-3.79-.61-1.39-.85-2.76-.71-4.13s.65-2.62,1.52-3.75c.87-1.13,2.06-2.03,3.57-2.69,1.51-.67,2.97-.95,4.37-.85,1.41.1,2.66.56,3.75,1.39,1.1.82,1.96,1.95,2.59,3.37.61,1.39.85,2.75.72,4.08-.13,1.33-.6,2.52-1.41,3.57s-1.87,1.86-3.2,2.45c-.46.2-.96.39-1.5.57Zm3.02-4.97c.49-.7.75-1.48.78-2.34.04-.86-.13-1.71-.51-2.56-.54-1.23-1.39-2.1-2.56-2.62-1.16-.52-2.47-.53-3.91-.04l4.07,9.23c.93-.41,1.63-.96,2.12-1.67Z"/>
      </g>
    </g>
    <g>
      <path class="cls-7" d="m258.08,307.38v25.15h-6.13v-15.09l-5.63,15.09h-4.94l-5.66-15.12v15.12h-6.13v-25.15h7.24l7.06,17.41,6.99-17.41h7.2Z"/>
      <path class="cls-7" d="m268.61,327.8h8.03v4.73h-14.15v-25.15h6.13v20.42Z"/>
    </g>
    <g>
      <path class="cls-7" d="m582.8,308.96c1.98,1.05,3.52,2.53,4.6,4.43,1.09,1.9,1.63,4.09,1.63,6.58s-.54,4.65-1.63,6.56c-1.09,1.91-2.63,3.39-4.62,4.44-1.99,1.05-4.31,1.58-6.93,1.58h-9.42v-25.15h9.42c2.65,0,4.97.53,6.95,1.58Zm-1.94,16.38c1.29-1.27,1.94-3.06,1.94-5.38s-.65-4.12-1.94-5.41-3.09-1.93-5.41-1.93h-2.9v14.62h2.9c2.32,0,4.12-.63,5.41-1.9Z"/>
      <path class="cls-7" d="m598.6,312.29v5.09h8.21v4.73h-8.21v5.52h9.28v4.91h-15.41v-25.15h15.41v4.91h-9.28Z"/>
      <path class="cls-7" d="m635.47,307.38l-8.92,25.15h-7.67l-8.92-25.15h6.52l6.24,18.99,6.27-18.99h6.49Z"/>
    </g>
    <g>
      <path class="cls-7" d="m924.37,331.14c-1.97-1.1-3.54-2.63-4.69-4.6-1.16-1.97-1.74-4.19-1.74-6.65s.58-4.67,1.74-6.63c1.16-1.96,2.72-3.49,4.69-4.59s4.14-1.65,6.5-1.65,4.53.55,6.5,1.65,3.52,2.63,4.66,4.59c1.13,1.96,1.7,4.17,1.7,6.63s-.57,4.68-1.72,6.65-2.7,3.51-4.66,4.6-4.12,1.65-6.49,1.65-4.53-.55-6.5-1.65Zm11.32-5.95c1.21-1.34,1.81-3.11,1.81-5.3s-.6-4-1.81-5.32c-1.21-1.33-2.81-1.99-4.82-1.99s-3.65.66-4.86,1.97c-1.21,1.31-1.81,3.09-1.81,5.34s.6,4,1.81,5.32c1.21,1.33,2.82,1.99,4.86,1.99s3.61-.67,4.82-2.01Z"/>
      <path class="cls-7" d="m965.31,319.47c-.67,1.21-1.7,2.18-3.08,2.92-1.39.74-3.11,1.11-5.16,1.11h-3.8v9.03h-6.13v-25.15h9.93c2.01,0,3.7.35,5.09,1.04,1.39.69,2.42,1.65,3.12,2.87.69,1.22,1.04,2.62,1.04,4.19,0,1.46-.33,2.79-1,4Zm-6.09-1.67c.57-.55.86-1.33.86-2.33s-.29-1.78-.86-2.33c-.57-.55-1.45-.82-2.62-.82h-3.33v6.31h3.33c1.17,0,2.04-.27,2.62-.82Z"/>
      <path class="cls-7" d="m973.66,331.89c-1.46-.6-2.62-1.48-3.49-2.65-.87-1.17-1.33-2.58-1.38-4.23h6.52c.1.93.42,1.64.97,2.13.55.49,1.27.73,2.15.73s1.62-.21,2.15-.63.79-1,.79-1.74c0-.62-.21-1.13-.63-1.54-.42-.41-.93-.74-1.54-1-.61-.26-1.47-.56-2.6-.9-1.62-.5-2.95-1-3.98-1.5-1.03-.5-1.91-1.24-2.65-2.22-.74-.98-1.11-2.26-1.11-3.83,0-2.34.85-4.17,2.54-5.5,1.7-1.33,3.91-1.99,6.63-1.99s5,.66,6.7,1.99c1.7,1.33,2.6,3.17,2.72,5.54h-6.63c-.05-.81-.35-1.45-.9-1.92s-1.25-.7-2.11-.7c-.74,0-1.34.2-1.79.59-.45.39-.68.96-.68,1.7,0,.81.38,1.45,1.15,1.9s1.96.94,3.58,1.47c1.62.55,2.94,1.08,3.96,1.58,1.01.5,1.89,1.23,2.63,2.19.74.96,1.11,2.19,1.11,3.69s-.36,2.74-1.09,3.91-1.79,2.1-3.17,2.79c-1.39.69-3.02,1.04-4.91,1.04s-3.49-.3-4.95-.9Z"/>
    </g>
    <g>
      <path class="cls-5" d="m235.29,232.31c.41.56,1.19.72,1.78.34.57-.41.72-1.2.34-1.79-2.2-3.36-6.7-4.3-10.06-2.1-.02.02-.05.03-.07.05-.49.55-.44,1.38.1,1.87.36.33.87.43,1.33.26,2.18-1.44,5.12-.84,6.56,1.34,0,0,.01.02.02.03h0Z"/>
      <path class="cls-5" d="m229.73,251.12c-2.56-.53-4.21-3.03-3.68-5.6,0,0,0-.02,0-.03-.09-.73-.76-1.24-1.49-1.14-.44.06-.82.33-1.02.73-.82,3.93,1.7,7.78,5.63,8.6.03,0,.06.01.09.02h.25c.72-.13,1.2-.82,1.08-1.54-.08-.46-.4-.84-.84-1.01l-.03-.04Z"/>
      <path class="cls-5" d="m236.82,245.62c.08-.73-.44-1.38-1.17-1.47-.73-.08-1.38.44-1.47,1.17-.03.23,0,.47.1.68.47,3.6,3.53,6.31,7.16,6.33.35,0,.71-.02,1.06-.07.69-.12,1.17-.76,1.09-1.46-.12-.69-.76-1.17-1.46-1.09-2.6.34-4.98-1.5-5.32-4.1h0Z"/>
      <g>
        <path class="cls-5" d="m286.33,221.92c-1.65.45-2.94,1.74-3.39,3.39h-5.03c-.37,0-.72.16-.97.44l-6.74,7.73h-17.36v2.57h17.95c.37,0,.72-.16.97-.44l6.74-7.73h4.44c.71,2.59,3.38,4.11,5.97,3.39s4.11-3.38,3.39-5.97c-.71-2.59-3.38-4.11-5.97-3.39Zm1.26,6.92c-1.26,0-2.28-1.02-2.28-2.28s1.02-2.28,2.28-2.28,2.28,1.02,2.28,2.28-1.02,2.28-2.28,2.28Z"/>
        <path class="cls-5" d="m252.84,219.93h5.88c.43,0,.84-.21,1.09-.56l1.64-2.65c.43.13.88.2,1.33.21,2.68.01,4.87-2.15,4.88-4.83.01-2.48-1.84-4.52-4.25-4.82h-1.23c-2.37.31-4.21,2.3-4.23,4.75,0,1.22.48,2.4,1.33,3.28l-1.33,2.04h-5.11m0,11.3h16.82c.37,0,.73-.16.97-.45l4.7-5.52c.2-.23.31-.53.31-.84v-5.13c2.56-.71,4.06-3.36,3.35-5.93-.59-2.13-2.54-3.51-4.65-3.51h-.37c-.3.02-.6.07-.91.16-2.56.71-4.06,3.36-3.35,5.93.45,1.63,1.72,2.9,3.35,3.35v4.7l-3.98,4.67h-16.24m9.95-16.33h0c1.26,0,2.28,1.02,2.28,2.28s-1.02,2.28-2.28,2.28-2.28-1.02-2.28-2.28,1.02-2.28,2.28-2.28Zm13.85,2.26c0,1.26-1.01,2.29-2.27,2.29h-.03c-1.25,0-2.26-1.02-2.27-2.27,0-1.26,1.01-2.29,2.27-2.29,1.26,0,2.29,1.01,2.29,2.27Z"/>
        <path class="cls-5" d="m252.84,255.19h16.22l3.98,4.67v4.62c-2.6.71-4.13,3.4-3.42,6,.71,2.6,3.4,4.13,6,3.42,2.6-.71,4.13-3.4,3.42-6-.46-1.67-1.76-2.97-3.42-3.42v-5.17c0-.31-.1-.6-.31-.84l-4.7-5.49c-.24-.29-.59-.45-.97-.45h-16.81m0,11.38h5.11l1.33,2.04c-.85.88-1.32,2.05-1.33,3.28,0,2.68,2.16,4.86,4.84,4.87,2.68,0,4.86-2.16,4.87-4.84,0-2.68-2.16-4.86-4.84-4.87h-.01c-.45.01-.9.08-1.33.21l-1.67-2.77c-.24-.37-.65-.6-1.09-.61h-5.88m0-13.46h17.36l6.74,7.73c.25.27.6.43.97.44h5.03c.71,2.58,3.38,4.09,5.95,3.38,2.58-.71,4.09-3.38,3.38-5.95-.58-2.1-2.5-3.56-4.68-3.56-2.17,0-4.08,1.46-4.66,3.56h-4.44l-6.74-7.73c-.25-.27-.6-.43-.97-.44h-17.95m7.67,23.98c0-1.26,1.03-2.27,2.29-2.27,1.26,0,2.28,1.02,2.28,2.28,0,1.26-1.02,2.28-2.28,2.28s-2.28-1.02-2.28-2.28h0Zm13.82-2.27c1.26,0,2.29,1.01,2.29,2.27h0s-.01,0-.01,0c0,1.26-1.01,2.29-2.27,2.29-1.26,0-2.29-1.01-2.29-2.27,0-1.26,1.01-2.29,2.27-2.29,0,0,0,0,.01,0Zm13.23-14.54c1.26,0,2.29,1.01,2.29,2.27h0c0,1.26-1.01,2.28-2.26,2.29h-.01c-1.26,0-2.29-1.01-2.29-2.27,0-1.26,1.01-2.29,2.27-2.29Z"/>
      </g>
      <path class="cls-5" d="m250.5,205.57l1.48-2.57c-1.99-3.37-5.63-5.53-9.65-5.5-4.4.03-8.39,2.62-10.2,6.63-5.9-1.84-12.17,1.45-14.01,7.35-.34,1.07-.51,2.19-.51,3.32,0,1.03.14,2.05.42,3.04-5.91,1.89-9.16,8.22-7.27,14.13.22.68.5,1.35.85,1.97-4.45,3.46-5.25,9.87-1.79,14.31,1.1,1.41,2.54,2.51,4.19,3.18-3.31,5.23-1.75,12.16,3.49,15.46,1.43.9,3.04,1.47,4.72,1.66.22,5.63,4.96,10.02,10.59,9.8,1.48-.06,2.92-.44,4.24-1.11,1.79,1.4,4,2.16,6.27,2.15,4.2-.02,7.96-2.6,9.5-6.49v-65.98l-2.34-1.35Zm-.15,10.92v6.04c-2.31-1.15-5.06-.97-7.2.46-.57.41-.72,1.2-.34,1.79.41.56,1.19.72,1.78.34,1.8-1.22,4.21-1.01,5.77.5v12.23c-2.31-1.16-5.07-.98-7.2.48-.49.54-.45,1.38.09,1.87.37.34.89.44,1.36.26,1.79-1.23,4.2-1.03,5.76.48v31.11c-1.58,3.9-6.02,5.78-9.91,4.2-.4-.16-.78-.36-1.15-.58,2.42-2.16,3.1-5.68,1.64-8.58-.15-.72-.85-1.18-1.56-1.04s-1.18.85-1.04,1.56c.05.23.15.44.31.61,1.13,2.35.15,5.17-2.2,6.31-.01,0-.03.01-.04.02-.1.06-.19.14-.28.23-3.65,2.07-8.29.8-10.36-2.85-.62-1.09-.96-2.32-.99-3.58,2.26-.65,6.51-2.28,7.14-5.49.12-.7-.33-1.36-1.02-1.51-.67-.1-1.31.31-1.49.97-.38,1.91-4.39,3.33-5.98,3.67-4.76-.07-8.57-3.98-8.5-8.74.03-2.09.82-4.1,2.22-5.65.33-.36.44-.87.28-1.33-.16-.43-.53-.76-.98-.85-4.13-.81-6.83-4.82-6.02-8.95.42-2.12,1.72-3.97,3.58-5.08,2.16-1.45,5.08-.88,6.54,1.28.01.02.02.03.03.05.24.34.64.55,1.06.56.26,0,.51-.08.73-.23.57-.41.71-1.2.33-1.79-1.95-2.93-5.72-4.05-8.95-2.65-2.24-4.18-.67-9.38,3.51-11.62.57-.31,1.17-.55,1.8-.72,1.03,1.69,2.86,2.73,4.84,2.75.67,0,1.33-.11,1.95-.34.73-.07,1.26-.72,1.2-1.45s-.72-1.26-1.45-1.2c-.22.02-.44.1-.63.23-1.63.56-3.4-.29-3.98-1.91,0-.04,0-.08,0-.12-1.88-4.37.13-9.43,4.5-11.31,2.23-.96,4.76-.94,6.96.07h.27c3.67.72,4.76,4.09,4.19,7.1-.11.69.34,1.35,1.02,1.5h.24c.64.01,1.19-.43,1.33-1.05.84-4.48-1.09-8.25-4.75-9.67,1.45-2.95,4.44-4.83,7.73-4.86,3.59,0,6.81,2.23,8.05,5.6l-.15,10.89Z"/>
    </g>
    <g>
      <path class="cls-5" d="m636.58,264.51h-6.52c-2.23-3.88-7.19-5.22-11.07-2.98-1.24.71-2.27,1.74-2.98,2.98h-8.97c-.88-1.52-2.22-2.72-3.84-3.41l8.1-6.07h14.45c3.74,0,6.77-3.03,6.77-6.77v-46.06c0-3.74-3.03-6.77-6.77-6.77h-51.48c-3.74,0-6.77,3.03-6.77,6.77v46.06c0,3.74,3.03,6.77,6.77,6.77h14.45l8.1,6.07c-1.61.7-2.96,1.89-3.84,3.41h-8.97c-2.23-3.88-7.19-5.22-11.07-2.98-1.24.71-2.27,1.74-2.98,2.98h-6.52c-2.24,0-4.06,1.82-4.06,4.06,0,1.07.42,2.1,1.18,2.85.76.78,1.8,1.22,2.88,1.21h6.52c2.23,3.88,7.19,5.22,11.07,2.98,1.24-.71,2.27-1.74,2.98-2.98h8.97c2.23,3.88,7.19,5.22,11.07,2.98,1.24-.71,2.27-1.74,2.98-2.98h8.97c2.23,3.88,7.19,5.22,11.07,2.98,1.24-.71,2.27-1.74,2.98-2.98h6.52c2.24,0,4.06-1.82,4.06-4.06-.01-2.24-1.82-4.05-4.06-4.06Zm-73.16,5.42c-.37,0-.72-.15-.97-.42-.25-.25-.39-.59-.39-.94,0-.75.61-1.35,1.35-1.35h5.54c-.16.9-.16,1.81,0,2.71h-5.54Zm13.55,4.06c-2.99,0-5.42-2.43-5.42-5.42s2.43-5.42,5.42-5.42,5.42,2.43,5.42,5.42-2.43,5.42-5.42,5.42Zm8.01-4.06c.16-.9.16-1.81,0-2.71h7.02c-.16.9-.16,1.81,0,2.71h-7.02Zm4.19-17.61h-14.9c-2.24,0-4.06-1.82-4.06-4.06v-46.06c0-2.24,1.82-4.06,4.06-4.06h51.48c2.24,0,4.06,1.82,4.06,4.06v46.06c0,2.24-1.82,4.06-4.06,4.06h-14.9c-.29,0-.58.1-.81.27l-10.03,7.52-10.03-7.52c-.23-.18-.52-.27-.81-.27Zm10.84,21.68c-2.99,0-5.42-2.43-5.42-5.42s2.43-5.42,5.42-5.42,5.42,2.43,5.42,5.42-2.43,5.42-5.42,5.42Zm8.01-4.06c.16-.9.16-1.81,0-2.71h7.02c-.16.9-.16,1.81,0,2.71h-7.02Zm15.03,4.06c-2.99,0-5.42-2.43-5.42-5.42s2.43-5.42,5.42-5.42,5.42,2.43,5.42,5.42-2.43,5.42-5.42,5.42Zm13.55-4.06h-5.54c.16-.9.16-1.81,0-2.71h5.54c.37,0,.72.15.97.42.25.25.39.59.39.94,0,.75-.61,1.35-1.35,1.35Z"/>
      <path class="cls-5" d="m591.87,218.45c.75,0,1.35-.61,1.35-1.36,0-.36-.14-.7-.4-.96l-5.82-5.82,5.82-5.82c.54-.52.55-1.38.03-1.92-.52-.54-1.38-.55-1.92-.03-.01.01-.02.02-.03.03l-6.77,6.77c-.53.53-.53,1.39,0,1.92l6.77,6.77c.25.25.6.4.96.4Z"/>
      <path class="cls-5" d="m607.17,218.05c.53.53,1.39.53,1.92,0l6.77-6.77c.53-.53.53-1.39,0-1.92l-6.77-6.77c-.54-.52-1.4-.5-1.92.03-.51.53-.51,1.36,0,1.88l5.82,5.82-5.82,5.82c-.53.53-.53,1.39,0,1.92Z"/>
      <path class="cls-5" d="m596.86,219.73c.71.24,1.48-.15,1.71-.86l5.42-16.26c.24-.71-.15-1.48-.86-1.72-.71-.24-1.48.15-1.72.86l-5.42,16.26c-.24.71.15,1.48.86,1.71h0Z"/>
      <path class="cls-5" d="m576.97,222.51h-1.35c-.75,0-1.35.61-1.35,1.35s.61,1.35,1.35,1.35h1.35c.75,0,1.35-.61,1.35-1.35s-.61-1.35-1.35-1.35Z"/>
      <path class="cls-5" d="m576.97,227.93h-1.35c-.75,0-1.35.61-1.35,1.35s.61,1.35,1.35,1.35h1.35c.75,0,1.35-.61,1.35-1.35s-.61-1.35-1.35-1.35Z"/>
      <path class="cls-5" d="m621.68,230.64h2.71c.75,0,1.35-.61,1.35-1.35s-.61-1.35-1.35-1.35h-2.71c-.75,0-1.35.61-1.35,1.35s.61,1.35,1.35,1.35Z"/>
      <path class="cls-5" d="m576.97,233.35h-1.35c-.75,0-1.35.61-1.35,1.35s.61,1.35,1.35,1.35h1.35c.75,0,1.35-.61,1.35-1.35s-.61-1.35-1.35-1.35Z"/>
      <path class="cls-5" d="m576.97,238.77h-1.35c-.75,0-1.35.61-1.35,1.35s.61,1.35,1.35,1.35h1.35c.75,0,1.35-.61,1.35-1.35s-.61-1.35-1.35-1.35Z"/>
      <path class="cls-5" d="m576.97,244.19h-1.35c-.75,0-1.35.61-1.35,1.35s.61,1.35,1.35,1.35h1.35c.75,0,1.35-.61,1.35-1.35s-.61-1.35-1.35-1.35Z"/>
      <path class="cls-5" d="m582.39,222.51c-.75,0-1.35.61-1.35,1.35v21.68c0,.75.61,1.35,1.35,1.35s1.35-.61,1.35-1.35v-21.68c0-.75-.61-1.35-1.35-1.35Z"/>
      <path class="cls-5" d="m602.71,223.87c0-.75-.61-1.35-1.35-1.35h-13.55c-.75,0-1.35.61-1.35,1.35s.61,1.35,1.35,1.35h13.55c.75,0,1.35-.61,1.35-1.35Z"/>
      <path class="cls-5" d="m589.16,229.29c0,.75.61,1.35,1.35,1.35h13.55c.75,0,1.35-.61,1.35-1.35s-.61-1.35-1.35-1.35h-13.55c-.75,0-1.35.61-1.35,1.35Z"/>
      <path class="cls-5" d="m609.48,227.93c-.75,0-1.35.61-1.35,1.35s.61,1.35,1.35,1.35h6.77c.75,0,1.35-.61,1.35-1.35s-.61-1.35-1.35-1.35h-6.77Z"/>
      <path class="cls-5" d="m613.55,234.71c0-.75-.61-1.35-1.35-1.35h-20.32c-.75,0-1.35.61-1.35,1.35s.61,1.35,1.35,1.35h20.32c.75,0,1.35-.61,1.35-1.35Z"/>
      <path class="cls-5" d="m602.71,240.13c0-.75-.61-1.35-1.35-1.35h-13.55c-.75,0-1.35.61-1.35,1.35s.61,1.35,1.35,1.35h13.55c.75,0,1.35-.61,1.35-1.35Z"/>
      <path class="cls-5" d="m605.42,245.54c0-.75-.61-1.35-1.35-1.35h-13.55c-.75,0-1.35.61-1.35,1.35s.61,1.35,1.35,1.35h13.55c.75,0,1.35-.61,1.35-1.35Z"/>
      <path class="cls-5" d="m616.26,244.19h-6.77c-.75,0-1.35.61-1.35,1.35s.61,1.35,1.35,1.35h6.77c.75,0,1.35-.61,1.35-1.35s-.61-1.35-1.35-1.35Z"/>
    </g>
    <path class="cls-5" d="m984.1,246.19v-.07c0-5.43-3.35-10.31-8.41-12.28l3.32-1.32c1.12-.45,1.91-1.49,2.04-2.69.09-.93.13-1.85.12-2.78,0-.92-.04-1.85-.12-2.77-.12-1.21-.91-2.26-2.04-2.71l-4.27-1.7c-.58-2.08-1.41-4.09-2.48-5.97l1.81-4.23c.5-1.12.32-2.42-.47-3.35-.52-.63-1.11-1.27-1.88-2.06-.77-.75-1.42-1.34-2.02-1.84-.94-.79-2.25-.98-3.37-.49l-4.24,1.8c-1.88-1.07-3.89-1.9-5.98-2.48l-1.71-4.27c-.45-1.13-1.49-1.91-2.69-2.04-1.85-.17-3.71-.17-5.55,0-1.21.13-2.26.92-2.71,2.05l-1.7,4.26c-2.09.58-4.09,1.41-5.98,2.48l-4.23-1.8c-1.12-.5-2.42-.32-3.36.46-.63.52-1.28,1.11-2.07,1.88-.75.77-1.34,1.42-1.84,2.02-.8.94-.99,2.25-.49,3.37l1.81,4.23c-1.07,1.88-1.9,3.89-2.48,5.97l-4.28,1.71c-1.13.45-1.91,1.49-2.04,2.69-.09.93-.13,1.85-.12,2.78,0,.92.04,1.85.12,2.77.12,1.21.91,2.26,2.04,2.71l3.31,1.32c-5.06,1.97-8.4,6.85-8.41,12.28v.07c-1.71.35-2.93,1.85-2.93,3.59v2.2c0,2.43,1.97,4.4,4.4,4.4.16,0,.3.1.34.25.79,3.35,2.75,6.31,5.52,8.35v1.76c-5.86.74-10.25,5.71-10.26,11.61v1.47c0,1.62,1.31,2.93,2.93,2.93h70.35c1.62,0,2.93-1.31,2.93-2.93v-1.47c-.01-5.9-4.4-10.87-10.26-11.61v-1.78c.95-.62,1.81-1.38,2.53-2.27,1.41-1.79,2.42-3.85,2.99-6.05.04-.16.18-.26.35-.26,2.42-.01,4.38-1.97,4.4-4.4v-2.2c0-1.74-1.23-3.24-2.93-3.59Zm-58.33-13.39c-.11-.46-.44-.85-.88-1.03l-4.95-1.98c-.12-.04-.2-.15-.22-.27-.08-.83-.12-1.66-.11-2.49,0-.84.03-1.67.11-2.51.02-.11.1-.21.21-.25l4.96-1.98c.44-.18.77-.55.88-1.01.57-2.31,1.49-4.52,2.72-6.56.24-.4.28-.9.09-1.33l-2.1-4.91c-.05-.11-.04-.24.04-.34.46-.56,1-1.15,1.67-1.83.7-.69,1.3-1.23,1.88-1.71.1-.06.22-.07.32-.01l4.91,2.09c.43.19.93.15,1.33-.09,2.04-1.23,4.25-2.14,6.55-2.72.46-.11.83-.44,1.01-.88l1.98-4.95c.04-.12.15-.2.27-.22,1.66-.15,3.34-.15,5,0,.11.02.21.1.25.21l1.98,4.95c.18.44.55.77,1.01.88,2.31.57,4.53,1.49,6.57,2.72.4.24.9.28,1.33.09l4.91-2.09c.11-.06.24-.04.34.03.56.46,1.15,1,1.83,1.67.69.7,1.23,1.3,1.71,1.88.06.09.06.21.01.31l-2.1,4.91c-.19.43-.15.93.09,1.33,1.23,2.04,2.15,4.25,2.72,6.55.11.46.44.83.88,1.01l4.95,1.97c.12.04.2.15.22.27.08.83.12,1.66.11,2.49,0,.84-.03,1.67-.11,2.51-.02.11-.1.21-.21.25l-4.95,1.98c-.44.18-.77.56-.88,1.03-.01.06-.03.12-.05.18-.37-.03-.73-.06-1.12-.06-.81,0-1.63.09-2.43.25,3.43-10.8-2.55-22.34-13.36-25.76-10.8-3.43-22.34,2.55-25.76,13.36-1.28,4.04-1.28,8.37,0,12.41-.8-.16-1.61-.24-2.43-.25-.38,0-.75.02-1.12.06-.02-.06-.04-.12-.06-.18Zm39.28,33.94c-1.84.22-3.6.89-5.13,1.93-1.53-1.04-3.29-1.71-5.13-1.94v-1.76c2.44-1.74,4.24-4.23,5.13-7.08.89,2.86,2.7,5.34,5.13,7.08v1.76Zm-2.93,13.07h-26.38v-1.47c.01-4.37,3.23-8.08,7.56-8.69.84,3.11,4.05,4.94,7.15,4.1,2-.54,3.56-2.1,4.1-4.1,4.33.61,7.56,4.31,7.57,8.69v1.47Zm-29.31-14.86c.95-.62,1.81-1.38,2.53-2.27,1.14-1.44,2.02-3.07,2.59-4.82.89,2.87,2.7,5.36,5.14,7.11v1.76c-1.84.23-3.6.89-5.13,1.94-1.53-1.05-3.29-1.71-5.13-1.94v-1.79Zm13.19,3.14v-1.83c1.92.5,3.94.5,5.86,0v1.84c0,1.62-1.31,2.93-2.93,2.93s-2.93-1.31-2.93-2.93h0s0,0,0,0Zm16.12-16.12c0,.81-.66,1.47-1.47,1.47-1.48.02-2.76,1-3.17,2.42-.78,2.93-2.93,7.84-8.55,7.84s-7.77-4.91-8.55-7.84c-.41-1.42-1.7-2.4-3.18-2.41-.81,0-1.47-.66-1.47-1.47v-2.2c0-.4.33-.73.73-.73.08,0,.16.01.24.04.45.16.95.09,1.34-.18.28-.21.48-.5.57-.83.05-.18,1.31-4.44,9.08-4.84.53,1.94,2.58,6.1,10.27,6.1.95,0,1.9-.06,2.85-.17.11-.01.22-.04.33-.07.4-.12.82.1.94.5.02.06.03.12.03.18v2.19Zm-16.12-20.52c0-.6,1.14-1.47,2.93-1.47s2.93.87,2.93,1.47-1.14,1.47-2.93,1.47-2.93-.86-2.93-1.46h0Zm2.93,4.4c5.66,0,10.25,4.6,10.26,10.26v.25c-6.45.4-8.2-2.24-8.66-3.91-.36-1.34-1.61-2.24-3-2.16-2.96.04-5.85.92-8.32,2.56,1.41-4.17,5.32-6.98,9.72-6.98h0Zm4.91-1.97c.6-.66.94-1.52.95-2.42,0-2.47-2.58-4.4-5.86-4.4s-5.86,1.93-5.86,4.4c.01.9.35,1.76.95,2.42-2.49,1.01-4.62,2.75-6.1,4.99-1.24-1.88-2.94-3.42-4.95-4.46-1.07-2.3-1.63-4.81-1.63-7.35,0-9.71,7.87-17.59,17.59-17.59s17.59,7.87,17.59,17.59c0,2.54-.56,5.05-1.63,7.35-2,1.04-3.7,2.58-4.95,4.46-1.48-2.24-3.61-3.98-6.1-4.99h0Zm-35.45,21.97c-.4-1.42-1.69-2.4-3.17-2.41-.81,0-1.47-.66-1.47-1.47v-2.2c0-.4.33-.73.74-.73.07,0,.15.01.22.03.76.28,1.6-.1,1.88-.86.06-.16.09-.34.09-.51v-1.6c-.01-5.66,4.56-10.25,10.22-10.26,4.13,0,7.85,2.46,9.46,6.26-.41,1.29-.62,2.64-.62,4v.07c-1.71.35-2.93,1.85-2.93,3.59v2.2c0,1.75,1.04,3.33,2.64,4.02-.46,1.75-1.27,3.39-2.38,4.82-1.47,1.87-3.74,2.93-6.12,2.88-5.61,0-7.77-4.91-8.55-7.85Zm8.55,10.79c.99,0,1.98-.13,2.93-.39v1.86c0,1.62-1.31,2.93-2.93,2.93s-2.93-1.31-2.93-2.93v-1.84c.96.25,1.94.38,2.93.38Zm-13.19,11.71c.01-4.37,3.23-8.08,7.56-8.69.84,3.11,4.04,4.94,7.15,4.1,1.99-.54,3.55-2.1,4.1-4.09,1.09.15,2.14.5,3.1,1.04-1.84,2.12-2.85,4.83-2.86,7.64v1.47h-19.05v-1.47Zm70.35,0v1.47h-19.05v-1.47c0-2.81-1.01-5.52-2.86-7.64.96-.54,2.01-.89,3.1-1.04.85,3.1,4.05,4.93,7.16,4.09,1.99-.54,3.55-2.1,4.09-4.1,4.33.61,7.56,4.31,7.57,8.69Zm-10.26-10.24c0,1.62-1.31,2.93-2.93,2.93s-2.93-1.31-2.93-2.93v-1.84c.96.25,1.94.38,2.93.38.99,0,1.98-.13,2.93-.39v1.86Zm10.26-16.12c0,.4-.16.77-.45,1.04-.27.27-.63.42-1.02.42-1.48,0-2.77.99-3.17,2.41-.46,1.81-1.28,3.5-2.43,4.97-1.48,1.87-3.74,2.93-6.12,2.88-5.52,0-7.69-4.75-8.51-7.7,1.61-.7,2.65-2.28,2.65-4.03v-2.2c0-1.74-1.23-3.24-2.93-3.59v-.07c0-1.36-.21-2.71-.62-4,2.2-5.21,8.2-7.65,13.41-5.46,3.8,1.6,6.27,5.33,6.26,9.46v1.6c0,.81.66,1.47,1.47,1.47.17,0,.35-.03.51-.09.39-.12.8.09.92.48.02.07.03.14.03.22v2.2Z"/>
  </g>
</svg>